G04 (created by PCBNEW (2013-07-07 BZR 4022)-stable) date 16/09/2013 17:45:25*
%MOIN*%
G04 Gerber Fmt 3.4, Leading zero omitted, Abs format*
%FSLAX34Y34*%
G01*
G70*
G90*
G04 APERTURE LIST*
%ADD10C,0.00590551*%
%ADD11C,0.00492126*%
%ADD12C,0.01*%
%ADD13C,0.005*%
%ADD14C,0.006*%
%ADD15C,0.0001*%
%ADD16C,0.008*%
G04 APERTURE END LIST*
G54D10*
G54D11*
X30538Y-33318D02*
X30538Y-33468D01*
X30407Y-33375D02*
X30744Y-33375D01*
X30782Y-33393D01*
X30801Y-33431D01*
X30801Y-33468D01*
X30782Y-33750D02*
X30801Y-33712D01*
X30801Y-33637D01*
X30782Y-33600D01*
X30744Y-33581D01*
X30594Y-33581D01*
X30557Y-33600D01*
X30538Y-33637D01*
X30538Y-33712D01*
X30557Y-33750D01*
X30594Y-33768D01*
X30632Y-33768D01*
X30669Y-33581D01*
X30782Y-33918D02*
X30801Y-33956D01*
X30801Y-34031D01*
X30782Y-34068D01*
X30744Y-34087D01*
X30726Y-34087D01*
X30688Y-34068D01*
X30669Y-34031D01*
X30669Y-33975D01*
X30651Y-33937D01*
X30613Y-33918D01*
X30594Y-33918D01*
X30557Y-33937D01*
X30538Y-33975D01*
X30538Y-34031D01*
X30557Y-34068D01*
X30538Y-34200D02*
X30538Y-34350D01*
X30407Y-34256D02*
X30744Y-34256D01*
X30782Y-34275D01*
X30801Y-34312D01*
X30801Y-34350D01*
X30801Y-34781D02*
X30538Y-34781D01*
X30407Y-34781D02*
X30426Y-34762D01*
X30444Y-34781D01*
X30426Y-34799D01*
X30407Y-34781D01*
X30444Y-34781D01*
X30538Y-34968D02*
X30801Y-34968D01*
X30576Y-34968D02*
X30557Y-34987D01*
X30538Y-35024D01*
X30538Y-35081D01*
X30557Y-35118D01*
X30594Y-35137D01*
X30801Y-35137D01*
X30538Y-35268D02*
X30538Y-35418D01*
X30407Y-35324D02*
X30744Y-35324D01*
X30782Y-35343D01*
X30801Y-35381D01*
X30801Y-35418D01*
X30782Y-35699D02*
X30801Y-35662D01*
X30801Y-35587D01*
X30782Y-35549D01*
X30744Y-35531D01*
X30594Y-35531D01*
X30557Y-35549D01*
X30538Y-35587D01*
X30538Y-35662D01*
X30557Y-35699D01*
X30594Y-35718D01*
X30632Y-35718D01*
X30669Y-35531D01*
X30801Y-35887D02*
X30538Y-35887D01*
X30613Y-35887D02*
X30576Y-35906D01*
X30557Y-35924D01*
X30538Y-35962D01*
X30538Y-35999D01*
X30538Y-36074D02*
X30538Y-36224D01*
X30801Y-36131D02*
X30463Y-36131D01*
X30426Y-36149D01*
X30407Y-36187D01*
X30407Y-36224D01*
X30801Y-36524D02*
X30594Y-36524D01*
X30557Y-36505D01*
X30538Y-36468D01*
X30538Y-36393D01*
X30557Y-36356D01*
X30782Y-36524D02*
X30801Y-36487D01*
X30801Y-36393D01*
X30782Y-36356D01*
X30744Y-36337D01*
X30707Y-36337D01*
X30669Y-36356D01*
X30651Y-36393D01*
X30651Y-36487D01*
X30632Y-36524D01*
X30782Y-36880D02*
X30801Y-36843D01*
X30801Y-36768D01*
X30782Y-36730D01*
X30763Y-36712D01*
X30726Y-36693D01*
X30613Y-36693D01*
X30576Y-36712D01*
X30557Y-36730D01*
X30538Y-36768D01*
X30538Y-36843D01*
X30557Y-36880D01*
X30782Y-37199D02*
X30801Y-37162D01*
X30801Y-37087D01*
X30782Y-37049D01*
X30744Y-37030D01*
X30594Y-37030D01*
X30557Y-37049D01*
X30538Y-37087D01*
X30538Y-37162D01*
X30557Y-37199D01*
X30594Y-37218D01*
X30632Y-37218D01*
X30669Y-37030D01*
X30801Y-37687D02*
X30407Y-37687D01*
X30557Y-37687D02*
X30538Y-37724D01*
X30538Y-37799D01*
X30557Y-37837D01*
X30576Y-37855D01*
X30613Y-37874D01*
X30726Y-37874D01*
X30763Y-37855D01*
X30782Y-37837D01*
X30801Y-37799D01*
X30801Y-37724D01*
X30782Y-37687D01*
X30801Y-38099D02*
X30782Y-38062D01*
X30763Y-38043D01*
X30726Y-38024D01*
X30613Y-38024D01*
X30576Y-38043D01*
X30557Y-38062D01*
X30538Y-38099D01*
X30538Y-38155D01*
X30557Y-38193D01*
X30576Y-38212D01*
X30613Y-38230D01*
X30726Y-38230D01*
X30763Y-38212D01*
X30782Y-38193D01*
X30801Y-38155D01*
X30801Y-38099D01*
X30801Y-38568D02*
X30594Y-38568D01*
X30557Y-38549D01*
X30538Y-38511D01*
X30538Y-38437D01*
X30557Y-38399D01*
X30782Y-38568D02*
X30801Y-38530D01*
X30801Y-38437D01*
X30782Y-38399D01*
X30744Y-38380D01*
X30707Y-38380D01*
X30669Y-38399D01*
X30651Y-38437D01*
X30651Y-38530D01*
X30632Y-38568D01*
X30801Y-38755D02*
X30538Y-38755D01*
X30613Y-38755D02*
X30576Y-38774D01*
X30557Y-38793D01*
X30538Y-38830D01*
X30538Y-38868D01*
X30801Y-39168D02*
X30407Y-39168D01*
X30782Y-39168D02*
X30801Y-39130D01*
X30801Y-39055D01*
X30782Y-39018D01*
X30763Y-38999D01*
X30726Y-38980D01*
X30613Y-38980D01*
X30576Y-38999D01*
X30557Y-39018D01*
X30538Y-39055D01*
X30538Y-39130D01*
X30557Y-39168D01*
X37049Y-28217D02*
X37442Y-28295D01*
X37049Y-28374D01*
X37067Y-28577D02*
X37049Y-28554D01*
X37049Y-28520D01*
X37067Y-28487D01*
X37105Y-28464D01*
X37142Y-28453D01*
X37217Y-28442D01*
X37274Y-28442D01*
X37349Y-28453D01*
X37386Y-28464D01*
X37424Y-28487D01*
X37442Y-28520D01*
X37442Y-28543D01*
X37424Y-28577D01*
X37405Y-28588D01*
X37274Y-28588D01*
X37274Y-28543D01*
X37330Y-28678D02*
X37330Y-28790D01*
X37442Y-28655D02*
X37049Y-28734D01*
X37442Y-28813D01*
X37442Y-29071D02*
X37049Y-29071D01*
X37049Y-29161D01*
X37067Y-29184D01*
X37086Y-29195D01*
X37124Y-29206D01*
X37180Y-29206D01*
X37217Y-29195D01*
X37236Y-29184D01*
X37255Y-29161D01*
X37255Y-29071D01*
X37330Y-29296D02*
X37330Y-29409D01*
X37442Y-29274D02*
X37049Y-29353D01*
X37442Y-29431D01*
X37424Y-29499D02*
X37442Y-29533D01*
X37442Y-29589D01*
X37424Y-29611D01*
X37405Y-29623D01*
X37367Y-29634D01*
X37330Y-29634D01*
X37292Y-29623D01*
X37274Y-29611D01*
X37255Y-29589D01*
X37236Y-29544D01*
X37217Y-29521D01*
X37199Y-29510D01*
X37161Y-29499D01*
X37124Y-29499D01*
X37086Y-29510D01*
X37067Y-29521D01*
X37049Y-29544D01*
X37049Y-29600D01*
X37067Y-29634D01*
X37424Y-29724D02*
X37442Y-29758D01*
X37442Y-29814D01*
X37424Y-29836D01*
X37405Y-29848D01*
X37367Y-29859D01*
X37330Y-29859D01*
X37292Y-29848D01*
X37274Y-29836D01*
X37255Y-29814D01*
X37236Y-29769D01*
X37217Y-29746D01*
X37199Y-29735D01*
X37161Y-29724D01*
X37124Y-29724D01*
X37086Y-29735D01*
X37067Y-29746D01*
X37049Y-29769D01*
X37049Y-29825D01*
X37067Y-29859D01*
X37049Y-30106D02*
X37049Y-30241D01*
X37442Y-30174D02*
X37049Y-30174D01*
X37442Y-30320D02*
X37049Y-30320D01*
X37236Y-30320D02*
X37236Y-30455D01*
X37442Y-30455D02*
X37049Y-30455D01*
X37442Y-30703D02*
X37255Y-30624D01*
X37442Y-30568D02*
X37049Y-30568D01*
X37049Y-30658D01*
X37067Y-30680D01*
X37086Y-30691D01*
X37124Y-30703D01*
X37180Y-30703D01*
X37217Y-30691D01*
X37236Y-30680D01*
X37255Y-30658D01*
X37255Y-30568D01*
X37049Y-30849D02*
X37049Y-30894D01*
X37067Y-30916D01*
X37105Y-30939D01*
X37180Y-30950D01*
X37311Y-30950D01*
X37386Y-30939D01*
X37424Y-30916D01*
X37442Y-30894D01*
X37442Y-30849D01*
X37424Y-30826D01*
X37386Y-30804D01*
X37311Y-30793D01*
X37180Y-30793D01*
X37105Y-30804D01*
X37067Y-30826D01*
X37049Y-30849D01*
X37049Y-31051D02*
X37367Y-31051D01*
X37405Y-31062D01*
X37424Y-31074D01*
X37442Y-31096D01*
X37442Y-31141D01*
X37424Y-31164D01*
X37405Y-31175D01*
X37367Y-31186D01*
X37049Y-31186D01*
X37067Y-31422D02*
X37049Y-31400D01*
X37049Y-31366D01*
X37067Y-31332D01*
X37105Y-31310D01*
X37142Y-31299D01*
X37217Y-31287D01*
X37274Y-31287D01*
X37349Y-31299D01*
X37386Y-31310D01*
X37424Y-31332D01*
X37442Y-31366D01*
X37442Y-31389D01*
X37424Y-31422D01*
X37405Y-31434D01*
X37274Y-31434D01*
X37274Y-31389D01*
X37442Y-31535D02*
X37049Y-31535D01*
X37236Y-31535D02*
X37236Y-31670D01*
X37442Y-31670D02*
X37049Y-31670D01*
X37836Y-28183D02*
X37836Y-28104D01*
X38043Y-28104D02*
X37649Y-28104D01*
X37649Y-28217D01*
X37649Y-28352D02*
X37649Y-28397D01*
X37668Y-28419D01*
X37705Y-28442D01*
X37780Y-28453D01*
X37911Y-28453D01*
X37986Y-28442D01*
X38024Y-28419D01*
X38043Y-28397D01*
X38043Y-28352D01*
X38024Y-28329D01*
X37986Y-28307D01*
X37911Y-28295D01*
X37780Y-28295D01*
X37705Y-28307D01*
X37668Y-28329D01*
X37649Y-28352D01*
X38043Y-28689D02*
X37855Y-28610D01*
X38043Y-28554D02*
X37649Y-28554D01*
X37649Y-28644D01*
X37668Y-28667D01*
X37687Y-28678D01*
X37724Y-28689D01*
X37780Y-28689D01*
X37818Y-28678D01*
X37836Y-28667D01*
X37855Y-28644D01*
X37855Y-28554D01*
X38024Y-28959D02*
X38043Y-28993D01*
X38043Y-29049D01*
X38024Y-29071D01*
X38005Y-29083D01*
X37968Y-29094D01*
X37930Y-29094D01*
X37893Y-29083D01*
X37874Y-29071D01*
X37855Y-29049D01*
X37836Y-29004D01*
X37818Y-28982D01*
X37799Y-28970D01*
X37761Y-28959D01*
X37724Y-28959D01*
X37687Y-28970D01*
X37668Y-28982D01*
X37649Y-29004D01*
X37649Y-29060D01*
X37668Y-29094D01*
X37855Y-29240D02*
X38043Y-29240D01*
X37649Y-29161D02*
X37855Y-29240D01*
X37649Y-29319D01*
X38043Y-29398D02*
X37649Y-29398D01*
X38043Y-29533D01*
X37649Y-29533D01*
X38005Y-29780D02*
X38024Y-29769D01*
X38043Y-29735D01*
X38043Y-29713D01*
X38024Y-29679D01*
X37986Y-29656D01*
X37949Y-29645D01*
X37874Y-29634D01*
X37818Y-29634D01*
X37743Y-29645D01*
X37705Y-29656D01*
X37668Y-29679D01*
X37649Y-29713D01*
X37649Y-29735D01*
X37668Y-29769D01*
X37687Y-29780D01*
X38043Y-30061D02*
X37649Y-30061D01*
X37649Y-30118D01*
X37668Y-30151D01*
X37705Y-30174D01*
X37743Y-30185D01*
X37818Y-30196D01*
X37874Y-30196D01*
X37949Y-30185D01*
X37986Y-30174D01*
X38024Y-30151D01*
X38043Y-30118D01*
X38043Y-30061D01*
X37836Y-30298D02*
X37836Y-30376D01*
X38043Y-30410D02*
X38043Y-30298D01*
X37649Y-30298D01*
X37649Y-30410D01*
X37649Y-30478D02*
X37649Y-30613D01*
X38043Y-30545D02*
X37649Y-30545D01*
X37836Y-30691D02*
X37836Y-30770D01*
X38043Y-30804D02*
X38043Y-30691D01*
X37649Y-30691D01*
X37649Y-30804D01*
X38005Y-31040D02*
X38024Y-31029D01*
X38043Y-30995D01*
X38043Y-30973D01*
X38024Y-30939D01*
X37986Y-30916D01*
X37949Y-30905D01*
X37874Y-30894D01*
X37818Y-30894D01*
X37743Y-30905D01*
X37705Y-30916D01*
X37668Y-30939D01*
X37649Y-30973D01*
X37649Y-30995D01*
X37668Y-31029D01*
X37687Y-31040D01*
X37649Y-31107D02*
X37649Y-31242D01*
X38043Y-31175D02*
X37649Y-31175D01*
X38043Y-31321D02*
X37649Y-31321D01*
X37649Y-31479D02*
X37649Y-31524D01*
X37668Y-31546D01*
X37705Y-31569D01*
X37780Y-31580D01*
X37911Y-31580D01*
X37986Y-31569D01*
X38024Y-31546D01*
X38043Y-31524D01*
X38043Y-31479D01*
X38024Y-31456D01*
X37986Y-31434D01*
X37911Y-31422D01*
X37780Y-31422D01*
X37705Y-31434D01*
X37668Y-31456D01*
X37649Y-31479D01*
X38043Y-31681D02*
X37649Y-31681D01*
X38043Y-31816D01*
X37649Y-31816D01*
X36197Y-25631D02*
X36062Y-25631D01*
X36130Y-26025D02*
X36130Y-25631D01*
X35939Y-25631D02*
X35894Y-25631D01*
X35871Y-25650D01*
X35849Y-25688D01*
X35838Y-25763D01*
X35838Y-25894D01*
X35849Y-25969D01*
X35871Y-26006D01*
X35894Y-26025D01*
X35939Y-26025D01*
X35961Y-26006D01*
X35984Y-25969D01*
X35995Y-25894D01*
X35995Y-25763D01*
X35984Y-25688D01*
X35961Y-25650D01*
X35939Y-25631D01*
X35556Y-26025D02*
X35556Y-25631D01*
X35500Y-25631D01*
X35466Y-25650D01*
X35444Y-25688D01*
X35433Y-25725D01*
X35421Y-25800D01*
X35421Y-25856D01*
X35433Y-25931D01*
X35444Y-25969D01*
X35466Y-26006D01*
X35500Y-26025D01*
X35556Y-26025D01*
X35320Y-26025D02*
X35320Y-25631D01*
X35084Y-25650D02*
X35106Y-25631D01*
X35140Y-25631D01*
X35174Y-25650D01*
X35196Y-25688D01*
X35208Y-25725D01*
X35219Y-25800D01*
X35219Y-25856D01*
X35208Y-25931D01*
X35196Y-25969D01*
X35174Y-26006D01*
X35140Y-26025D01*
X35118Y-26025D01*
X35084Y-26006D01*
X35073Y-25988D01*
X35073Y-25856D01*
X35118Y-25856D01*
X34971Y-25988D02*
X34960Y-26006D01*
X34971Y-26025D01*
X34983Y-26006D01*
X34971Y-25988D01*
X34971Y-26025D01*
X34679Y-26025D02*
X34679Y-25631D01*
X34521Y-25631D02*
X34476Y-25631D01*
X34454Y-25650D01*
X34431Y-25688D01*
X34420Y-25763D01*
X34420Y-25894D01*
X34431Y-25969D01*
X34454Y-26006D01*
X34476Y-26025D01*
X34521Y-26025D01*
X34544Y-26006D01*
X34566Y-25969D01*
X34578Y-25894D01*
X34578Y-25763D01*
X34566Y-25688D01*
X34544Y-25650D01*
X34521Y-25631D01*
X34203Y-27579D02*
X34203Y-27382D01*
X34068Y-27579D01*
X34068Y-27382D01*
X33821Y-27560D02*
X33832Y-27570D01*
X33866Y-27579D01*
X33888Y-27579D01*
X33922Y-27570D01*
X33944Y-27551D01*
X33956Y-27532D01*
X33967Y-27495D01*
X33967Y-27467D01*
X33956Y-27429D01*
X33944Y-27410D01*
X33922Y-27392D01*
X33888Y-27382D01*
X33866Y-27382D01*
X33832Y-27392D01*
X33821Y-27401D01*
X35262Y-27587D02*
X35262Y-27390D01*
X35127Y-27587D01*
X35127Y-27390D01*
X34880Y-27568D02*
X34891Y-27578D01*
X34925Y-27587D01*
X34947Y-27587D01*
X34981Y-27578D01*
X35003Y-27559D01*
X35015Y-27540D01*
X35026Y-27503D01*
X35026Y-27475D01*
X35015Y-27437D01*
X35003Y-27418D01*
X34981Y-27400D01*
X34947Y-27390D01*
X34925Y-27390D01*
X34891Y-27400D01*
X34880Y-27409D01*
X33535Y-27812D02*
X33535Y-27575D01*
X33535Y-27688D02*
X33423Y-27688D01*
X33423Y-27812D02*
X33423Y-27575D01*
X33338Y-27800D02*
X33310Y-27812D01*
X33263Y-27812D01*
X33245Y-27800D01*
X33235Y-27789D01*
X33226Y-27767D01*
X33226Y-27744D01*
X33235Y-27722D01*
X33245Y-27710D01*
X33263Y-27699D01*
X33301Y-27688D01*
X33320Y-27677D01*
X33329Y-27665D01*
X33338Y-27643D01*
X33338Y-27620D01*
X33329Y-27598D01*
X33320Y-27587D01*
X33301Y-27575D01*
X33254Y-27575D01*
X33226Y-27587D01*
X33104Y-27699D02*
X33104Y-27812D01*
X33170Y-27575D02*
X33104Y-27699D01*
X33038Y-27575D01*
X32973Y-27812D02*
X32973Y-27575D01*
X32860Y-27812D01*
X32860Y-27575D01*
X32654Y-27789D02*
X32664Y-27800D01*
X32692Y-27812D01*
X32710Y-27812D01*
X32739Y-27800D01*
X32757Y-27778D01*
X32767Y-27755D01*
X32776Y-27710D01*
X32776Y-27677D01*
X32767Y-27632D01*
X32757Y-27609D01*
X32739Y-27587D01*
X32710Y-27575D01*
X32692Y-27575D01*
X32664Y-27587D01*
X32654Y-27598D01*
X32422Y-27575D02*
X32356Y-27812D01*
X32290Y-27575D01*
X32234Y-27800D02*
X32206Y-27812D01*
X32159Y-27812D01*
X32140Y-27800D01*
X32131Y-27789D01*
X32122Y-27767D01*
X32122Y-27744D01*
X32131Y-27722D01*
X32140Y-27710D01*
X32159Y-27699D01*
X32197Y-27688D01*
X32215Y-27677D01*
X32225Y-27665D01*
X32234Y-27643D01*
X32234Y-27620D01*
X32225Y-27598D01*
X32215Y-27587D01*
X32197Y-27575D01*
X32150Y-27575D01*
X32122Y-27587D01*
X32000Y-27699D02*
X32000Y-27812D01*
X32065Y-27575D02*
X32000Y-27699D01*
X31934Y-27575D01*
X31869Y-27812D02*
X31869Y-27575D01*
X31756Y-27812D01*
X31756Y-27575D01*
X31550Y-27789D02*
X31559Y-27800D01*
X31587Y-27812D01*
X31606Y-27812D01*
X31634Y-27800D01*
X31653Y-27778D01*
X31662Y-27755D01*
X31672Y-27710D01*
X31672Y-27677D01*
X31662Y-27632D01*
X31653Y-27609D01*
X31634Y-27587D01*
X31606Y-27575D01*
X31587Y-27575D01*
X31559Y-27587D01*
X31550Y-27598D01*
X31085Y-27812D02*
X31085Y-27575D01*
X30838Y-27789D02*
X30849Y-27800D01*
X30883Y-27812D01*
X30905Y-27812D01*
X30939Y-27800D01*
X30961Y-27778D01*
X30973Y-27755D01*
X30984Y-27710D01*
X30984Y-27677D01*
X30973Y-27632D01*
X30961Y-27609D01*
X30939Y-27587D01*
X30905Y-27575D01*
X30883Y-27575D01*
X30849Y-27587D01*
X30838Y-27598D01*
X30736Y-27812D02*
X30736Y-27575D01*
X30646Y-27575D01*
X30624Y-27587D01*
X30613Y-27598D01*
X30601Y-27620D01*
X30601Y-27654D01*
X30613Y-27677D01*
X30624Y-27688D01*
X30646Y-27699D01*
X30736Y-27699D01*
X30179Y-27812D02*
X30179Y-27575D01*
X30089Y-27575D01*
X30067Y-27587D01*
X30056Y-27598D01*
X30044Y-27620D01*
X30044Y-27654D01*
X30056Y-27677D01*
X30067Y-27688D01*
X30089Y-27699D01*
X30179Y-27699D01*
X29865Y-27688D02*
X29831Y-27699D01*
X29820Y-27710D01*
X29808Y-27733D01*
X29808Y-27767D01*
X29820Y-27789D01*
X29831Y-27800D01*
X29853Y-27812D01*
X29943Y-27812D01*
X29943Y-27575D01*
X29865Y-27575D01*
X29842Y-27587D01*
X29831Y-27598D01*
X29820Y-27620D01*
X29820Y-27643D01*
X29831Y-27665D01*
X29842Y-27677D01*
X29865Y-27688D01*
X29943Y-27688D01*
X29139Y-27812D02*
X29218Y-27699D01*
X29274Y-27812D02*
X29274Y-27575D01*
X29184Y-27575D01*
X29161Y-27587D01*
X29150Y-27598D01*
X29139Y-27620D01*
X29139Y-27654D01*
X29150Y-27677D01*
X29161Y-27688D01*
X29184Y-27699D01*
X29274Y-27699D01*
X28959Y-27688D02*
X28925Y-27699D01*
X28914Y-27710D01*
X28903Y-27733D01*
X28903Y-27767D01*
X28914Y-27789D01*
X28925Y-27800D01*
X28948Y-27812D01*
X29038Y-27812D01*
X29038Y-27575D01*
X28959Y-27575D01*
X28937Y-27587D01*
X28925Y-27598D01*
X28914Y-27620D01*
X28914Y-27643D01*
X28925Y-27665D01*
X28937Y-27677D01*
X28959Y-27688D01*
X29038Y-27688D01*
X28368Y-27812D02*
X28368Y-27575D01*
X28278Y-27575D01*
X28256Y-27587D01*
X28245Y-27598D01*
X28233Y-27620D01*
X28233Y-27654D01*
X28245Y-27677D01*
X28256Y-27688D01*
X28278Y-27699D01*
X28368Y-27699D01*
X28020Y-27812D02*
X28132Y-27812D01*
X28132Y-27575D01*
X27941Y-27688D02*
X27862Y-27688D01*
X27829Y-27812D02*
X27941Y-27812D01*
X27941Y-27575D01*
X27829Y-27575D01*
X27727Y-27812D02*
X27727Y-27575D01*
X27671Y-27575D01*
X27637Y-27587D01*
X27615Y-27609D01*
X27604Y-27632D01*
X27592Y-27677D01*
X27592Y-27710D01*
X27604Y-27755D01*
X27615Y-27778D01*
X27637Y-27800D01*
X27671Y-27812D01*
X27727Y-27812D01*
X28425Y-27500D02*
X27547Y-27500D01*
G54D12*
X29370Y-30748D02*
X29173Y-30748D01*
X29370Y-29685D02*
X29370Y-30748D01*
X29173Y-29685D02*
X29370Y-29685D01*
X29370Y-29094D02*
X29173Y-29094D01*
X29370Y-28031D02*
X29370Y-29094D01*
X29173Y-28031D02*
X29370Y-28031D01*
X29763Y-43267D02*
X29763Y-43070D01*
X28582Y-43267D02*
X29763Y-43267D01*
X28582Y-43070D02*
X28582Y-43267D01*
X28307Y-43267D02*
X28307Y-43070D01*
X27165Y-43267D02*
X28307Y-43267D01*
X27165Y-43070D02*
X27165Y-43267D01*
X34842Y-40393D02*
X34842Y-42362D01*
X35826Y-40393D02*
X35826Y-42362D01*
X33858Y-42362D02*
X33858Y-40393D01*
X36850Y-42362D02*
X33858Y-42362D01*
X36850Y-40393D02*
X36850Y-42362D01*
X33858Y-40393D02*
X36850Y-40393D01*
G54D11*
X35961Y-35067D02*
X36017Y-35067D01*
X35995Y-35011D02*
X36017Y-35067D01*
X35995Y-35123D01*
X36062Y-35033D02*
X36017Y-35067D01*
X36062Y-35101D01*
X36074Y-35292D02*
X36074Y-35213D01*
X36197Y-35213D02*
X35961Y-35213D01*
X35961Y-35326D01*
X35961Y-35461D02*
X35961Y-35506D01*
X35973Y-35528D01*
X35995Y-35551D01*
X36040Y-35562D01*
X36119Y-35562D01*
X36164Y-35551D01*
X36186Y-35528D01*
X36197Y-35506D01*
X36197Y-35461D01*
X36186Y-35438D01*
X36164Y-35416D01*
X36119Y-35404D01*
X36040Y-35404D01*
X35995Y-35416D01*
X35973Y-35438D01*
X35961Y-35461D01*
X35961Y-35708D02*
X35961Y-35753D01*
X35973Y-35776D01*
X35995Y-35798D01*
X36040Y-35809D01*
X36119Y-35809D01*
X36164Y-35798D01*
X36186Y-35776D01*
X36197Y-35753D01*
X36197Y-35708D01*
X36186Y-35686D01*
X36164Y-35663D01*
X36119Y-35652D01*
X36040Y-35652D01*
X35995Y-35663D01*
X35973Y-35686D01*
X35961Y-35708D01*
X35961Y-35877D02*
X35961Y-36012D01*
X36197Y-35944D02*
X35961Y-35944D01*
X36197Y-36091D02*
X35961Y-36091D01*
X35961Y-36181D01*
X35973Y-36203D01*
X35984Y-36214D01*
X36006Y-36226D01*
X36040Y-36226D01*
X36062Y-36214D01*
X36074Y-36203D01*
X36085Y-36181D01*
X36085Y-36091D01*
X36197Y-36462D02*
X36085Y-36383D01*
X36197Y-36327D02*
X35961Y-36327D01*
X35961Y-36417D01*
X35973Y-36439D01*
X35984Y-36451D01*
X36006Y-36462D01*
X36040Y-36462D01*
X36062Y-36451D01*
X36074Y-36439D01*
X36085Y-36417D01*
X36085Y-36327D01*
X36197Y-36563D02*
X35961Y-36563D01*
X36197Y-36676D02*
X35961Y-36676D01*
X36197Y-36811D01*
X35961Y-36811D01*
X35961Y-36889D02*
X35961Y-37024D01*
X36197Y-36957D02*
X35961Y-36957D01*
X36074Y-37362D02*
X36074Y-37283D01*
X36197Y-37283D02*
X35961Y-37283D01*
X35961Y-37395D01*
X35961Y-37530D02*
X35961Y-37575D01*
X35973Y-37598D01*
X35995Y-37620D01*
X36040Y-37632D01*
X36119Y-37632D01*
X36164Y-37620D01*
X36186Y-37598D01*
X36197Y-37575D01*
X36197Y-37530D01*
X36186Y-37508D01*
X36164Y-37485D01*
X36119Y-37474D01*
X36040Y-37474D01*
X35995Y-37485D01*
X35973Y-37508D01*
X35961Y-37530D01*
X36197Y-37868D02*
X36085Y-37789D01*
X36197Y-37733D02*
X35961Y-37733D01*
X35961Y-37823D01*
X35973Y-37845D01*
X35984Y-37857D01*
X36006Y-37868D01*
X36040Y-37868D01*
X36062Y-37857D01*
X36074Y-37845D01*
X36085Y-37823D01*
X36085Y-37733D01*
X36566Y-34910D02*
X36577Y-34943D01*
X36577Y-35000D01*
X36566Y-35022D01*
X36555Y-35033D01*
X36532Y-35044D01*
X36510Y-35044D01*
X36487Y-35033D01*
X36476Y-35022D01*
X36465Y-35000D01*
X36454Y-34955D01*
X36442Y-34932D01*
X36431Y-34921D01*
X36409Y-34910D01*
X36386Y-34910D01*
X36364Y-34921D01*
X36352Y-34932D01*
X36341Y-34955D01*
X36341Y-35011D01*
X36352Y-35044D01*
X36341Y-35191D02*
X36341Y-35236D01*
X36352Y-35258D01*
X36375Y-35281D01*
X36420Y-35292D01*
X36499Y-35292D01*
X36544Y-35281D01*
X36566Y-35258D01*
X36577Y-35236D01*
X36577Y-35191D01*
X36566Y-35168D01*
X36544Y-35146D01*
X36499Y-35134D01*
X36420Y-35134D01*
X36375Y-35146D01*
X36352Y-35168D01*
X36341Y-35191D01*
X36577Y-35393D02*
X36341Y-35393D01*
X36555Y-35641D02*
X36566Y-35629D01*
X36577Y-35596D01*
X36577Y-35573D01*
X36566Y-35539D01*
X36544Y-35517D01*
X36521Y-35506D01*
X36476Y-35494D01*
X36442Y-35494D01*
X36397Y-35506D01*
X36375Y-35517D01*
X36352Y-35539D01*
X36341Y-35573D01*
X36341Y-35596D01*
X36352Y-35629D01*
X36364Y-35641D01*
X36487Y-35742D02*
X36487Y-35922D01*
X36442Y-36068D02*
X36431Y-36046D01*
X36420Y-36034D01*
X36397Y-36023D01*
X36386Y-36023D01*
X36364Y-36034D01*
X36352Y-36046D01*
X36341Y-36068D01*
X36341Y-36113D01*
X36352Y-36136D01*
X36364Y-36147D01*
X36386Y-36158D01*
X36397Y-36158D01*
X36420Y-36147D01*
X36431Y-36136D01*
X36442Y-36113D01*
X36442Y-36068D01*
X36454Y-36046D01*
X36465Y-36034D01*
X36487Y-36023D01*
X36532Y-36023D01*
X36555Y-36034D01*
X36566Y-36046D01*
X36577Y-36068D01*
X36577Y-36113D01*
X36566Y-36136D01*
X36555Y-36147D01*
X36532Y-36158D01*
X36487Y-36158D01*
X36465Y-36147D01*
X36454Y-36136D01*
X36442Y-36113D01*
X36566Y-36428D02*
X36577Y-36462D01*
X36577Y-36518D01*
X36566Y-36541D01*
X36555Y-36552D01*
X36532Y-36563D01*
X36510Y-36563D01*
X36487Y-36552D01*
X36476Y-36541D01*
X36465Y-36518D01*
X36454Y-36473D01*
X36442Y-36451D01*
X36431Y-36439D01*
X36409Y-36428D01*
X36386Y-36428D01*
X36364Y-36439D01*
X36352Y-36451D01*
X36341Y-36473D01*
X36341Y-36529D01*
X36352Y-36563D01*
X36577Y-36664D02*
X36341Y-36664D01*
X36341Y-36754D01*
X36352Y-36777D01*
X36364Y-36788D01*
X36386Y-36799D01*
X36420Y-36799D01*
X36442Y-36788D01*
X36454Y-36777D01*
X36465Y-36754D01*
X36465Y-36664D01*
X36577Y-36901D02*
X36341Y-36901D01*
X36454Y-37272D02*
X36454Y-37193D01*
X36577Y-37193D02*
X36341Y-37193D01*
X36341Y-37305D01*
X36577Y-37508D02*
X36577Y-37395D01*
X36341Y-37395D01*
X36510Y-37575D02*
X36510Y-37688D01*
X36577Y-37553D02*
X36341Y-37632D01*
X36577Y-37710D01*
X36566Y-37778D02*
X36577Y-37812D01*
X36577Y-37868D01*
X36566Y-37890D01*
X36555Y-37902D01*
X36532Y-37913D01*
X36510Y-37913D01*
X36487Y-37902D01*
X36476Y-37890D01*
X36465Y-37868D01*
X36454Y-37823D01*
X36442Y-37800D01*
X36431Y-37789D01*
X36409Y-37778D01*
X36386Y-37778D01*
X36364Y-37789D01*
X36352Y-37800D01*
X36341Y-37823D01*
X36341Y-37879D01*
X36352Y-37913D01*
X36577Y-38014D02*
X36341Y-38014D01*
X36454Y-38014D02*
X36454Y-38149D01*
X36577Y-38149D02*
X36341Y-38149D01*
X36721Y-34971D02*
X36777Y-34971D01*
X36755Y-34915D02*
X36777Y-34971D01*
X36755Y-35028D01*
X36822Y-34938D02*
X36777Y-34971D01*
X36822Y-35005D01*
X36957Y-35118D02*
X36721Y-35118D01*
X36721Y-35174D01*
X36732Y-35208D01*
X36755Y-35230D01*
X36777Y-35241D01*
X36822Y-35253D01*
X36856Y-35253D01*
X36901Y-35241D01*
X36924Y-35230D01*
X36946Y-35208D01*
X36957Y-35174D01*
X36957Y-35118D01*
X36721Y-35399D02*
X36721Y-35444D01*
X36732Y-35466D01*
X36755Y-35489D01*
X36800Y-35500D01*
X36879Y-35500D01*
X36924Y-35489D01*
X36946Y-35466D01*
X36957Y-35444D01*
X36957Y-35399D01*
X36946Y-35376D01*
X36924Y-35354D01*
X36879Y-35343D01*
X36800Y-35343D01*
X36755Y-35354D01*
X36732Y-35376D01*
X36721Y-35399D01*
X36957Y-35781D02*
X36721Y-35781D01*
X36957Y-35916D01*
X36721Y-35916D01*
X36721Y-36074D02*
X36721Y-36119D01*
X36732Y-36141D01*
X36755Y-36164D01*
X36800Y-36175D01*
X36879Y-36175D01*
X36924Y-36164D01*
X36946Y-36141D01*
X36957Y-36119D01*
X36957Y-36074D01*
X36946Y-36051D01*
X36924Y-36029D01*
X36879Y-36017D01*
X36800Y-36017D01*
X36755Y-36029D01*
X36732Y-36051D01*
X36721Y-36074D01*
X36721Y-36242D02*
X36721Y-36377D01*
X36957Y-36310D02*
X36721Y-36310D01*
X36935Y-36771D02*
X36946Y-36760D01*
X36957Y-36726D01*
X36957Y-36704D01*
X36946Y-36670D01*
X36924Y-36647D01*
X36901Y-36636D01*
X36856Y-36625D01*
X36822Y-36625D01*
X36777Y-36636D01*
X36755Y-36647D01*
X36732Y-36670D01*
X36721Y-36704D01*
X36721Y-36726D01*
X36732Y-36760D01*
X36744Y-36771D01*
X36721Y-36917D02*
X36721Y-36962D01*
X36732Y-36985D01*
X36755Y-37007D01*
X36800Y-37019D01*
X36879Y-37019D01*
X36924Y-37007D01*
X36946Y-36985D01*
X36957Y-36962D01*
X36957Y-36917D01*
X36946Y-36895D01*
X36924Y-36872D01*
X36879Y-36861D01*
X36800Y-36861D01*
X36755Y-36872D01*
X36732Y-36895D01*
X36721Y-36917D01*
X36957Y-37120D02*
X36721Y-37120D01*
X36957Y-37255D01*
X36721Y-37255D01*
X36957Y-37367D02*
X36721Y-37367D01*
X36957Y-37502D01*
X36721Y-37502D01*
X36834Y-37615D02*
X36834Y-37694D01*
X36957Y-37727D02*
X36957Y-37615D01*
X36721Y-37615D01*
X36721Y-37727D01*
X36935Y-37964D02*
X36946Y-37952D01*
X36957Y-37919D01*
X36957Y-37896D01*
X36946Y-37862D01*
X36924Y-37840D01*
X36901Y-37829D01*
X36856Y-37817D01*
X36822Y-37817D01*
X36777Y-37829D01*
X36755Y-37840D01*
X36732Y-37862D01*
X36721Y-37896D01*
X36721Y-37919D01*
X36732Y-37952D01*
X36744Y-37964D01*
X36721Y-38031D02*
X36721Y-38166D01*
X36957Y-38098D02*
X36721Y-38098D01*
X37214Y-34656D02*
X37214Y-34578D01*
X37337Y-34578D02*
X37101Y-34578D01*
X37101Y-34690D01*
X37337Y-34893D02*
X37337Y-34780D01*
X37101Y-34780D01*
X37270Y-34960D02*
X37270Y-35073D01*
X37337Y-34938D02*
X37101Y-35016D01*
X37337Y-35095D01*
X37326Y-35163D02*
X37337Y-35196D01*
X37337Y-35253D01*
X37326Y-35275D01*
X37315Y-35286D01*
X37292Y-35298D01*
X37270Y-35298D01*
X37247Y-35286D01*
X37236Y-35275D01*
X37225Y-35253D01*
X37214Y-35208D01*
X37202Y-35185D01*
X37191Y-35174D01*
X37169Y-35163D01*
X37146Y-35163D01*
X37124Y-35174D01*
X37112Y-35185D01*
X37101Y-35208D01*
X37101Y-35264D01*
X37112Y-35298D01*
X37337Y-35399D02*
X37101Y-35399D01*
X37214Y-35399D02*
X37214Y-35534D01*
X37337Y-35534D02*
X37101Y-35534D01*
X37101Y-35871D02*
X37101Y-35916D01*
X37112Y-35939D01*
X37135Y-35961D01*
X37180Y-35973D01*
X37258Y-35973D01*
X37303Y-35961D01*
X37326Y-35939D01*
X37337Y-35916D01*
X37337Y-35871D01*
X37326Y-35849D01*
X37303Y-35826D01*
X37258Y-35815D01*
X37180Y-35815D01*
X37135Y-35826D01*
X37112Y-35849D01*
X37101Y-35871D01*
X37337Y-36074D02*
X37101Y-36074D01*
X37337Y-36209D01*
X37101Y-36209D01*
X37214Y-36580D02*
X37225Y-36614D01*
X37236Y-36625D01*
X37258Y-36636D01*
X37292Y-36636D01*
X37315Y-36625D01*
X37326Y-36614D01*
X37337Y-36591D01*
X37337Y-36501D01*
X37101Y-36501D01*
X37101Y-36580D01*
X37112Y-36602D01*
X37124Y-36614D01*
X37146Y-36625D01*
X37169Y-36625D01*
X37191Y-36614D01*
X37202Y-36602D01*
X37214Y-36580D01*
X37214Y-36501D01*
X37101Y-36782D02*
X37101Y-36827D01*
X37112Y-36850D01*
X37135Y-36872D01*
X37180Y-36884D01*
X37258Y-36884D01*
X37303Y-36872D01*
X37326Y-36850D01*
X37337Y-36827D01*
X37337Y-36782D01*
X37326Y-36760D01*
X37303Y-36737D01*
X37258Y-36726D01*
X37180Y-36726D01*
X37135Y-36737D01*
X37112Y-36760D01*
X37101Y-36782D01*
X37101Y-36951D02*
X37101Y-37086D01*
X37337Y-37019D02*
X37101Y-37019D01*
X37337Y-37165D02*
X37101Y-37165D01*
X37214Y-37165D02*
X37214Y-37300D01*
X37337Y-37300D02*
X37101Y-37300D01*
X37326Y-37581D02*
X37337Y-37615D01*
X37337Y-37671D01*
X37326Y-37694D01*
X37315Y-37705D01*
X37292Y-37716D01*
X37270Y-37716D01*
X37247Y-37705D01*
X37236Y-37694D01*
X37225Y-37671D01*
X37214Y-37626D01*
X37202Y-37604D01*
X37191Y-37592D01*
X37169Y-37581D01*
X37146Y-37581D01*
X37124Y-37592D01*
X37112Y-37604D01*
X37101Y-37626D01*
X37101Y-37682D01*
X37112Y-37716D01*
X37337Y-37817D02*
X37101Y-37817D01*
X37337Y-37930D02*
X37101Y-37930D01*
X37101Y-37986D01*
X37112Y-38020D01*
X37135Y-38042D01*
X37157Y-38053D01*
X37202Y-38065D01*
X37236Y-38065D01*
X37281Y-38053D01*
X37303Y-38042D01*
X37326Y-38020D01*
X37337Y-37986D01*
X37337Y-37930D01*
X37214Y-38166D02*
X37214Y-38245D01*
X37337Y-38278D02*
X37337Y-38166D01*
X37101Y-38166D01*
X37101Y-38278D01*
X37326Y-38368D02*
X37337Y-38402D01*
X37337Y-38458D01*
X37326Y-38481D01*
X37315Y-38492D01*
X37292Y-38503D01*
X37270Y-38503D01*
X37247Y-38492D01*
X37236Y-38481D01*
X37225Y-38458D01*
X37214Y-38413D01*
X37202Y-38391D01*
X37191Y-38380D01*
X37169Y-38368D01*
X37146Y-38368D01*
X37124Y-38380D01*
X37112Y-38391D01*
X37101Y-38413D01*
X37101Y-38470D01*
X37112Y-38503D01*
X35489Y-46616D02*
X35354Y-46616D01*
X35421Y-47009D02*
X35421Y-46616D01*
X35230Y-46616D02*
X35185Y-46616D01*
X35163Y-46634D01*
X35140Y-46672D01*
X35129Y-46747D01*
X35129Y-46878D01*
X35140Y-46953D01*
X35163Y-46991D01*
X35185Y-47009D01*
X35230Y-47009D01*
X35253Y-46991D01*
X35275Y-46953D01*
X35286Y-46878D01*
X35286Y-46747D01*
X35275Y-46672D01*
X35253Y-46634D01*
X35230Y-46616D01*
X34859Y-46897D02*
X34746Y-46897D01*
X34881Y-47009D02*
X34803Y-46616D01*
X34724Y-47009D01*
X34645Y-47009D02*
X34645Y-46616D01*
X34589Y-46616D01*
X34555Y-46634D01*
X34533Y-46672D01*
X34521Y-46709D01*
X34510Y-46784D01*
X34510Y-46841D01*
X34521Y-46916D01*
X34533Y-46953D01*
X34555Y-46991D01*
X34589Y-47009D01*
X34645Y-47009D01*
X34274Y-46972D02*
X34285Y-46991D01*
X34319Y-47009D01*
X34341Y-47009D01*
X34375Y-46991D01*
X34398Y-46953D01*
X34409Y-46916D01*
X34420Y-46841D01*
X34420Y-46784D01*
X34409Y-46709D01*
X34398Y-46672D01*
X34375Y-46634D01*
X34341Y-46616D01*
X34319Y-46616D01*
X34285Y-46634D01*
X34274Y-46653D01*
X22452Y-46829D02*
X22424Y-46848D01*
X22381Y-46848D01*
X22339Y-46829D01*
X22311Y-46792D01*
X22297Y-46754D01*
X22283Y-46679D01*
X22283Y-46623D01*
X22297Y-46548D01*
X22311Y-46511D01*
X22339Y-46473D01*
X22381Y-46454D01*
X22410Y-46454D01*
X22452Y-46473D01*
X22466Y-46492D01*
X22466Y-46623D01*
X22410Y-46623D01*
X22592Y-46454D02*
X22592Y-46848D01*
X22761Y-46454D01*
X22761Y-46848D01*
X22902Y-46454D02*
X22902Y-46848D01*
X22972Y-46848D01*
X23014Y-46829D01*
X23042Y-46792D01*
X23056Y-46754D01*
X23070Y-46679D01*
X23070Y-46623D01*
X23056Y-46548D01*
X23042Y-46511D01*
X23014Y-46473D01*
X22972Y-46454D01*
X22902Y-46454D01*
X26760Y-44902D02*
X26788Y-44883D01*
X26830Y-44883D01*
X26872Y-44902D01*
X26901Y-44940D01*
X26915Y-44977D01*
X26929Y-45052D01*
X26929Y-45108D01*
X26915Y-45183D01*
X26901Y-45221D01*
X26872Y-45258D01*
X26830Y-45277D01*
X26802Y-45277D01*
X26760Y-45258D01*
X26746Y-45239D01*
X26746Y-45108D01*
X26802Y-45108D01*
X26619Y-45277D02*
X26619Y-44883D01*
X26451Y-45277D01*
X26451Y-44883D01*
X26310Y-45277D02*
X26310Y-44883D01*
X26240Y-44883D01*
X26197Y-44902D01*
X26169Y-44940D01*
X26155Y-44977D01*
X26141Y-45052D01*
X26141Y-45108D01*
X26155Y-45183D01*
X26169Y-45221D01*
X26197Y-45258D01*
X26240Y-45277D01*
X26310Y-45277D01*
X25095Y-44883D02*
X25236Y-44883D01*
X25250Y-45071D01*
X25236Y-45052D01*
X25208Y-45033D01*
X25137Y-45033D01*
X25109Y-45052D01*
X25095Y-45071D01*
X25081Y-45108D01*
X25081Y-45202D01*
X25095Y-45239D01*
X25109Y-45258D01*
X25137Y-45277D01*
X25208Y-45277D01*
X25236Y-45258D01*
X25250Y-45239D01*
X24997Y-44883D02*
X24898Y-45277D01*
X24800Y-44883D01*
X35086Y-44848D02*
X35086Y-44960D01*
X35198Y-44825D02*
X34805Y-44904D01*
X35198Y-44983D01*
X34805Y-45174D02*
X34805Y-45061D01*
X34992Y-45050D01*
X34973Y-45061D01*
X34955Y-45084D01*
X34955Y-45140D01*
X34973Y-45163D01*
X34992Y-45174D01*
X35029Y-45185D01*
X35123Y-45185D01*
X35161Y-45174D01*
X35179Y-45163D01*
X35198Y-45140D01*
X35198Y-45084D01*
X35179Y-45061D01*
X35161Y-45050D01*
X34062Y-44848D02*
X34062Y-44960D01*
X34175Y-44825D02*
X33781Y-44904D01*
X34175Y-44983D01*
X33912Y-45163D02*
X34175Y-45163D01*
X33762Y-45106D02*
X34043Y-45050D01*
X34043Y-45196D01*
X33117Y-44848D02*
X33117Y-44960D01*
X33230Y-44825D02*
X32836Y-44904D01*
X33230Y-44983D01*
X32836Y-45039D02*
X32836Y-45185D01*
X32986Y-45106D01*
X32986Y-45140D01*
X33005Y-45163D01*
X33023Y-45174D01*
X33061Y-45185D01*
X33155Y-45185D01*
X33192Y-45174D01*
X33211Y-45163D01*
X33230Y-45140D01*
X33230Y-45073D01*
X33211Y-45050D01*
X33192Y-45039D01*
X32094Y-43824D02*
X32094Y-43937D01*
X32206Y-43802D02*
X31812Y-43880D01*
X32206Y-43959D01*
X31850Y-44026D02*
X31831Y-44038D01*
X31812Y-44060D01*
X31812Y-44116D01*
X31831Y-44139D01*
X31850Y-44150D01*
X31887Y-44161D01*
X31925Y-44161D01*
X31981Y-44150D01*
X32206Y-44015D01*
X32206Y-44161D01*
X32169Y-44263D02*
X32187Y-44274D01*
X32206Y-44263D01*
X32187Y-44251D01*
X32169Y-44263D01*
X32206Y-44263D01*
X31962Y-44263D02*
X31981Y-44274D01*
X32000Y-44263D01*
X31981Y-44251D01*
X31962Y-44263D01*
X32000Y-44263D01*
X31812Y-44341D02*
X32206Y-44420D01*
X31812Y-44499D01*
X32169Y-44713D02*
X32187Y-44701D01*
X32206Y-44668D01*
X32206Y-44645D01*
X32187Y-44611D01*
X32150Y-44589D01*
X32112Y-44578D01*
X32037Y-44566D01*
X31981Y-44566D01*
X31906Y-44578D01*
X31869Y-44589D01*
X31831Y-44611D01*
X31812Y-44645D01*
X31812Y-44668D01*
X31831Y-44701D01*
X31850Y-44713D01*
X32169Y-44949D02*
X32187Y-44938D01*
X32206Y-44904D01*
X32206Y-44881D01*
X32187Y-44848D01*
X32150Y-44825D01*
X32112Y-44814D01*
X32037Y-44803D01*
X31981Y-44803D01*
X31906Y-44814D01*
X31869Y-44825D01*
X31831Y-44848D01*
X31812Y-44881D01*
X31812Y-44904D01*
X31831Y-44938D01*
X31850Y-44949D01*
X32206Y-45050D02*
X31812Y-45050D01*
X32094Y-45129D01*
X31812Y-45208D01*
X32206Y-45208D01*
X31149Y-43903D02*
X31149Y-44015D01*
X31261Y-43880D02*
X30868Y-43959D01*
X31261Y-44038D01*
X31261Y-44240D02*
X31261Y-44105D01*
X31261Y-44173D02*
X30868Y-44173D01*
X30924Y-44150D01*
X30961Y-44128D01*
X30980Y-44105D01*
X31224Y-44341D02*
X31242Y-44353D01*
X31261Y-44341D01*
X31242Y-44330D01*
X31224Y-44341D01*
X31261Y-44341D01*
X31017Y-44341D02*
X31036Y-44353D01*
X31055Y-44341D01*
X31036Y-44330D01*
X31017Y-44341D01*
X31055Y-44341D01*
X30868Y-44420D02*
X31261Y-44499D01*
X30868Y-44578D01*
X31224Y-44791D02*
X31242Y-44780D01*
X31261Y-44746D01*
X31261Y-44724D01*
X31242Y-44690D01*
X31205Y-44668D01*
X31167Y-44656D01*
X31092Y-44645D01*
X31036Y-44645D01*
X30961Y-44656D01*
X30924Y-44668D01*
X30886Y-44690D01*
X30868Y-44724D01*
X30868Y-44746D01*
X30886Y-44780D01*
X30905Y-44791D01*
X31224Y-45028D02*
X31242Y-45016D01*
X31261Y-44983D01*
X31261Y-44960D01*
X31242Y-44926D01*
X31205Y-44904D01*
X31167Y-44893D01*
X31092Y-44881D01*
X31036Y-44881D01*
X30961Y-44893D01*
X30924Y-44904D01*
X30886Y-44926D01*
X30868Y-44960D01*
X30868Y-44983D01*
X30886Y-45016D01*
X30905Y-45028D01*
X31055Y-45208D02*
X31055Y-45129D01*
X31261Y-45129D02*
X30868Y-45129D01*
X30868Y-45241D01*
X30046Y-43903D02*
X30046Y-44015D01*
X30159Y-43880D02*
X29765Y-43959D01*
X30159Y-44038D01*
X29765Y-44161D02*
X29765Y-44184D01*
X29784Y-44206D01*
X29803Y-44218D01*
X29840Y-44229D01*
X29915Y-44240D01*
X30009Y-44240D01*
X30084Y-44229D01*
X30121Y-44218D01*
X30140Y-44206D01*
X30159Y-44184D01*
X30159Y-44161D01*
X30140Y-44139D01*
X30121Y-44128D01*
X30084Y-44116D01*
X30009Y-44105D01*
X29915Y-44105D01*
X29840Y-44116D01*
X29803Y-44128D01*
X29784Y-44139D01*
X29765Y-44161D01*
X30121Y-44341D02*
X30140Y-44353D01*
X30159Y-44341D01*
X30140Y-44330D01*
X30121Y-44341D01*
X30159Y-44341D01*
X29915Y-44341D02*
X29934Y-44353D01*
X29953Y-44341D01*
X29934Y-44330D01*
X29915Y-44341D01*
X29953Y-44341D01*
X29765Y-44420D02*
X30159Y-44499D01*
X29765Y-44578D01*
X30121Y-44791D02*
X30140Y-44780D01*
X30159Y-44746D01*
X30159Y-44724D01*
X30140Y-44690D01*
X30103Y-44668D01*
X30065Y-44656D01*
X29990Y-44645D01*
X29934Y-44645D01*
X29859Y-44656D01*
X29821Y-44668D01*
X29784Y-44690D01*
X29765Y-44724D01*
X29765Y-44746D01*
X29784Y-44780D01*
X29803Y-44791D01*
X30121Y-45028D02*
X30140Y-45016D01*
X30159Y-44983D01*
X30159Y-44960D01*
X30140Y-44926D01*
X30103Y-44904D01*
X30065Y-44893D01*
X29990Y-44881D01*
X29934Y-44881D01*
X29859Y-44893D01*
X29821Y-44904D01*
X29784Y-44926D01*
X29765Y-44960D01*
X29765Y-44983D01*
X29784Y-45016D01*
X29803Y-45028D01*
X30159Y-45129D02*
X29765Y-45129D01*
X29765Y-45219D01*
X29784Y-45241D01*
X29803Y-45253D01*
X29840Y-45264D01*
X29896Y-45264D01*
X29934Y-45253D01*
X29953Y-45241D01*
X29971Y-45219D01*
X29971Y-45129D01*
X34490Y-39550D02*
X34490Y-39415D01*
X34490Y-39482D02*
X34096Y-39482D01*
X34152Y-39460D01*
X34190Y-39437D01*
X34208Y-39415D01*
X34452Y-39651D02*
X34471Y-39662D01*
X34490Y-39651D01*
X34471Y-39640D01*
X34452Y-39651D01*
X34490Y-39651D01*
X34265Y-39797D02*
X34246Y-39775D01*
X34227Y-39763D01*
X34190Y-39752D01*
X34171Y-39752D01*
X34133Y-39763D01*
X34115Y-39775D01*
X34096Y-39797D01*
X34096Y-39842D01*
X34115Y-39865D01*
X34133Y-39876D01*
X34171Y-39887D01*
X34190Y-39887D01*
X34227Y-39876D01*
X34246Y-39865D01*
X34265Y-39842D01*
X34265Y-39797D01*
X34283Y-39775D01*
X34302Y-39763D01*
X34340Y-39752D01*
X34415Y-39752D01*
X34452Y-39763D01*
X34471Y-39775D01*
X34490Y-39797D01*
X34490Y-39842D01*
X34471Y-39865D01*
X34452Y-39876D01*
X34415Y-39887D01*
X34340Y-39887D01*
X34302Y-39876D01*
X34283Y-39865D01*
X34265Y-39842D01*
X34096Y-39955D02*
X34490Y-40033D01*
X34096Y-40112D01*
X35157Y-39493D02*
X35138Y-39505D01*
X35119Y-39527D01*
X35119Y-39583D01*
X35138Y-39606D01*
X35157Y-39617D01*
X35194Y-39628D01*
X35232Y-39628D01*
X35288Y-39617D01*
X35513Y-39482D01*
X35513Y-39628D01*
X35476Y-39730D02*
X35494Y-39741D01*
X35513Y-39730D01*
X35494Y-39718D01*
X35476Y-39730D01*
X35513Y-39730D01*
X35119Y-39955D02*
X35119Y-39842D01*
X35307Y-39831D01*
X35288Y-39842D01*
X35269Y-39865D01*
X35269Y-39921D01*
X35288Y-39943D01*
X35307Y-39955D01*
X35344Y-39966D01*
X35438Y-39966D01*
X35476Y-39955D01*
X35494Y-39943D01*
X35513Y-39921D01*
X35513Y-39865D01*
X35494Y-39842D01*
X35476Y-39831D01*
X35119Y-40033D02*
X35513Y-40112D01*
X35119Y-40191D01*
X36143Y-39482D02*
X36143Y-39628D01*
X36293Y-39550D01*
X36293Y-39583D01*
X36312Y-39606D01*
X36331Y-39617D01*
X36368Y-39628D01*
X36462Y-39628D01*
X36499Y-39617D01*
X36518Y-39606D01*
X36537Y-39583D01*
X36537Y-39516D01*
X36518Y-39493D01*
X36499Y-39482D01*
X36499Y-39730D02*
X36518Y-39741D01*
X36537Y-39730D01*
X36518Y-39718D01*
X36499Y-39730D01*
X36537Y-39730D01*
X36143Y-39820D02*
X36143Y-39966D01*
X36293Y-39887D01*
X36293Y-39921D01*
X36312Y-39943D01*
X36331Y-39955D01*
X36368Y-39966D01*
X36462Y-39966D01*
X36499Y-39955D01*
X36518Y-39943D01*
X36537Y-39921D01*
X36537Y-39853D01*
X36518Y-39831D01*
X36499Y-39820D01*
X36143Y-40033D02*
X36537Y-40112D01*
X36143Y-40191D01*
X29214Y-40573D02*
X29608Y-40652D01*
X29214Y-40731D01*
X29570Y-40809D02*
X29589Y-40821D01*
X29608Y-40809D01*
X29589Y-40798D01*
X29570Y-40809D01*
X29608Y-40809D01*
X29608Y-41237D02*
X29420Y-41158D01*
X29608Y-41102D02*
X29214Y-41102D01*
X29214Y-41192D01*
X29233Y-41214D01*
X29251Y-41226D01*
X29289Y-41237D01*
X29345Y-41237D01*
X29383Y-41226D01*
X29401Y-41214D01*
X29420Y-41192D01*
X29420Y-41102D01*
X29401Y-41338D02*
X29401Y-41417D01*
X29608Y-41451D02*
X29608Y-41338D01*
X29214Y-41338D01*
X29214Y-41451D01*
X29233Y-41676D02*
X29214Y-41653D01*
X29214Y-41619D01*
X29233Y-41586D01*
X29270Y-41563D01*
X29308Y-41552D01*
X29383Y-41541D01*
X29439Y-41541D01*
X29514Y-41552D01*
X29551Y-41563D01*
X29589Y-41586D01*
X29608Y-41619D01*
X29608Y-41642D01*
X29589Y-41676D01*
X29570Y-41687D01*
X29439Y-41687D01*
X29439Y-41642D01*
X29570Y-41788D02*
X29589Y-41799D01*
X29608Y-41788D01*
X29589Y-41777D01*
X29570Y-41788D01*
X29608Y-41788D01*
X28269Y-40494D02*
X28663Y-40573D01*
X28269Y-40652D01*
X28625Y-40866D02*
X28644Y-40854D01*
X28663Y-40821D01*
X28663Y-40798D01*
X28644Y-40764D01*
X28607Y-40742D01*
X28569Y-40731D01*
X28494Y-40719D01*
X28438Y-40719D01*
X28363Y-40731D01*
X28325Y-40742D01*
X28288Y-40764D01*
X28269Y-40798D01*
X28269Y-40821D01*
X28288Y-40854D01*
X28307Y-40866D01*
X28625Y-41102D02*
X28644Y-41091D01*
X28663Y-41057D01*
X28663Y-41034D01*
X28644Y-41001D01*
X28607Y-40978D01*
X28569Y-40967D01*
X28494Y-40956D01*
X28438Y-40956D01*
X28363Y-40967D01*
X28325Y-40978D01*
X28288Y-41001D01*
X28269Y-41034D01*
X28269Y-41057D01*
X28288Y-41091D01*
X28307Y-41102D01*
X28457Y-41282D02*
X28457Y-41203D01*
X28663Y-41203D02*
X28269Y-41203D01*
X28269Y-41316D01*
X28663Y-41586D02*
X28269Y-41586D01*
X28663Y-41698D02*
X28269Y-41698D01*
X28663Y-41833D01*
X28269Y-41833D01*
X27245Y-40967D02*
X27639Y-41046D01*
X27245Y-41124D01*
X27602Y-41338D02*
X27620Y-41327D01*
X27639Y-41293D01*
X27639Y-41271D01*
X27620Y-41237D01*
X27583Y-41214D01*
X27545Y-41203D01*
X27470Y-41192D01*
X27414Y-41192D01*
X27339Y-41203D01*
X27302Y-41214D01*
X27264Y-41237D01*
X27245Y-41271D01*
X27245Y-41293D01*
X27264Y-41327D01*
X27283Y-41338D01*
X27602Y-41574D02*
X27620Y-41563D01*
X27639Y-41529D01*
X27639Y-41507D01*
X27620Y-41473D01*
X27583Y-41451D01*
X27545Y-41439D01*
X27470Y-41428D01*
X27414Y-41428D01*
X27339Y-41439D01*
X27302Y-41451D01*
X27264Y-41473D01*
X27245Y-41507D01*
X27245Y-41529D01*
X27264Y-41563D01*
X27283Y-41574D01*
X27639Y-41676D02*
X27245Y-41676D01*
X27527Y-41754D01*
X27245Y-41833D01*
X27639Y-41833D01*
X30099Y-31901D02*
X30080Y-31872D01*
X30080Y-31830D01*
X30099Y-31788D01*
X30136Y-31760D01*
X30174Y-31746D01*
X30249Y-31732D01*
X30305Y-31732D01*
X30380Y-31746D01*
X30418Y-31760D01*
X30455Y-31788D01*
X30474Y-31830D01*
X30474Y-31858D01*
X30455Y-31901D01*
X30436Y-31915D01*
X30305Y-31915D01*
X30305Y-31858D01*
X30474Y-32041D02*
X30080Y-32041D01*
X30474Y-32210D01*
X30080Y-32210D01*
X30474Y-32350D02*
X30080Y-32350D01*
X30080Y-32421D01*
X30099Y-32463D01*
X30136Y-32491D01*
X30174Y-32505D01*
X30249Y-32519D01*
X30305Y-32519D01*
X30380Y-32505D01*
X30418Y-32491D01*
X30455Y-32463D01*
X30474Y-32421D01*
X30474Y-32350D01*
X33308Y-31754D02*
X32915Y-31754D01*
X33196Y-31833D01*
X32915Y-31912D01*
X33308Y-31912D01*
X32915Y-32069D02*
X32915Y-32114D01*
X32934Y-32137D01*
X32971Y-32159D01*
X33046Y-32170D01*
X33177Y-32170D01*
X33252Y-32159D01*
X33290Y-32137D01*
X33308Y-32114D01*
X33308Y-32069D01*
X33290Y-32047D01*
X33252Y-32024D01*
X33177Y-32013D01*
X33046Y-32013D01*
X32971Y-32024D01*
X32934Y-32047D01*
X32915Y-32069D01*
X33290Y-32260D02*
X33308Y-32294D01*
X33308Y-32350D01*
X33290Y-32373D01*
X33271Y-32384D01*
X33233Y-32395D01*
X33196Y-32395D01*
X33158Y-32384D01*
X33140Y-32373D01*
X33121Y-32350D01*
X33102Y-32305D01*
X33083Y-32283D01*
X33065Y-32272D01*
X33027Y-32260D01*
X32990Y-32260D01*
X32952Y-32272D01*
X32934Y-32283D01*
X32915Y-32305D01*
X32915Y-32362D01*
X32934Y-32395D01*
X33308Y-32497D02*
X32915Y-32497D01*
X33271Y-30926D02*
X33290Y-30912D01*
X33308Y-30870D01*
X33308Y-30842D01*
X33290Y-30800D01*
X33252Y-30771D01*
X33215Y-30757D01*
X33140Y-30743D01*
X33083Y-30743D01*
X33008Y-30757D01*
X32971Y-30771D01*
X32934Y-30800D01*
X32915Y-30842D01*
X32915Y-30870D01*
X32934Y-30912D01*
X32952Y-30926D01*
X33308Y-31193D02*
X33308Y-31053D01*
X32915Y-31053D01*
X33308Y-31292D02*
X32915Y-31292D01*
X33308Y-31460D02*
X33083Y-31334D01*
X32915Y-31460D02*
X33140Y-31292D01*
X33308Y-29925D02*
X32915Y-29925D01*
X33308Y-30094D01*
X32915Y-30094D01*
X33271Y-30403D02*
X33290Y-30389D01*
X33308Y-30347D01*
X33308Y-30319D01*
X33290Y-30276D01*
X33252Y-30248D01*
X33215Y-30234D01*
X33140Y-30220D01*
X33083Y-30220D01*
X33008Y-30234D01*
X32971Y-30248D01*
X32934Y-30276D01*
X32915Y-30319D01*
X32915Y-30347D01*
X32934Y-30389D01*
X32952Y-30403D01*
X30474Y-30949D02*
X30080Y-30949D01*
X30474Y-31117D01*
X30080Y-31117D01*
X30436Y-31427D02*
X30455Y-31413D01*
X30474Y-31370D01*
X30474Y-31342D01*
X30455Y-31300D01*
X30418Y-31272D01*
X30380Y-31258D01*
X30305Y-31244D01*
X30249Y-31244D01*
X30174Y-31258D01*
X30136Y-31272D01*
X30099Y-31300D01*
X30080Y-31342D01*
X30080Y-31370D01*
X30099Y-31413D01*
X30118Y-31427D01*
X30474Y-29786D02*
X30080Y-29786D01*
X30361Y-29865D01*
X30080Y-29943D01*
X30474Y-29943D01*
X30474Y-30056D02*
X30080Y-30056D01*
X30455Y-30157D02*
X30474Y-30191D01*
X30474Y-30247D01*
X30455Y-30269D01*
X30436Y-30281D01*
X30399Y-30292D01*
X30361Y-30292D01*
X30324Y-30281D01*
X30305Y-30269D01*
X30286Y-30247D01*
X30268Y-30202D01*
X30249Y-30179D01*
X30230Y-30168D01*
X30193Y-30157D01*
X30155Y-30157D01*
X30118Y-30168D01*
X30099Y-30179D01*
X30080Y-30202D01*
X30080Y-30258D01*
X30099Y-30292D01*
X30080Y-30438D02*
X30080Y-30483D01*
X30099Y-30506D01*
X30136Y-30528D01*
X30211Y-30539D01*
X30343Y-30539D01*
X30418Y-30528D01*
X30455Y-30506D01*
X30474Y-30483D01*
X30474Y-30438D01*
X30455Y-30416D01*
X30418Y-30393D01*
X30343Y-30382D01*
X30211Y-30382D01*
X30136Y-30393D01*
X30099Y-30416D01*
X30080Y-30438D01*
X32915Y-28717D02*
X33308Y-28796D01*
X32915Y-28875D01*
X33271Y-29088D02*
X33290Y-29077D01*
X33308Y-29043D01*
X33308Y-29021D01*
X33290Y-28987D01*
X33252Y-28965D01*
X33215Y-28953D01*
X33140Y-28942D01*
X33083Y-28942D01*
X33008Y-28953D01*
X32971Y-28965D01*
X32934Y-28987D01*
X32915Y-29021D01*
X32915Y-29043D01*
X32934Y-29077D01*
X32952Y-29088D01*
X33271Y-29325D02*
X33290Y-29313D01*
X33308Y-29280D01*
X33308Y-29257D01*
X33290Y-29223D01*
X33252Y-29201D01*
X33215Y-29190D01*
X33140Y-29178D01*
X33083Y-29178D01*
X33008Y-29190D01*
X32971Y-29201D01*
X32934Y-29223D01*
X32915Y-29257D01*
X32915Y-29280D01*
X32934Y-29313D01*
X32952Y-29325D01*
X33102Y-29505D02*
X33102Y-29426D01*
X33308Y-29426D02*
X32915Y-29426D01*
X32915Y-29538D01*
X30436Y-29084D02*
X30455Y-29070D01*
X30474Y-29028D01*
X30474Y-29000D01*
X30455Y-28958D01*
X30418Y-28929D01*
X30380Y-28915D01*
X30305Y-28901D01*
X30249Y-28901D01*
X30174Y-28915D01*
X30136Y-28929D01*
X30099Y-28958D01*
X30080Y-29000D01*
X30080Y-29028D01*
X30099Y-29070D01*
X30118Y-29084D01*
X30455Y-29197D02*
X30474Y-29239D01*
X30474Y-29309D01*
X30455Y-29337D01*
X30436Y-29351D01*
X30399Y-29365D01*
X30361Y-29365D01*
X30324Y-29351D01*
X30305Y-29337D01*
X30286Y-29309D01*
X30268Y-29253D01*
X30249Y-29225D01*
X30230Y-29211D01*
X30193Y-29197D01*
X30155Y-29197D01*
X30118Y-29211D01*
X30099Y-29225D01*
X30080Y-29253D01*
X30080Y-29323D01*
X30099Y-29365D01*
X30004Y-28845D02*
X30004Y-29422D01*
X27882Y-30346D02*
X27784Y-30346D01*
X27741Y-30553D02*
X27882Y-30553D01*
X27882Y-30159D01*
X27741Y-30159D01*
X27643Y-30159D02*
X27446Y-30553D01*
X27446Y-30159D02*
X27643Y-30553D01*
X27376Y-30159D02*
X27207Y-30159D01*
X27291Y-30553D02*
X27291Y-30159D01*
X27109Y-30515D02*
X27095Y-30534D01*
X27109Y-30553D01*
X27123Y-30534D01*
X27109Y-30515D01*
X27109Y-30553D01*
X27882Y-28584D02*
X27882Y-28190D01*
X27741Y-28584D02*
X27741Y-28190D01*
X27573Y-28584D01*
X27573Y-28190D01*
X27474Y-28190D02*
X27305Y-28190D01*
X27390Y-28584D02*
X27390Y-28190D01*
X27207Y-28547D02*
X27193Y-28565D01*
X27207Y-28584D01*
X27221Y-28565D01*
X27207Y-28547D01*
X27207Y-28584D01*
X27882Y-29529D02*
X27882Y-29135D01*
X27573Y-29491D02*
X27587Y-29510D01*
X27629Y-29529D01*
X27657Y-29529D01*
X27699Y-29510D01*
X27727Y-29473D01*
X27741Y-29435D01*
X27755Y-29360D01*
X27755Y-29304D01*
X27741Y-29229D01*
X27727Y-29191D01*
X27699Y-29154D01*
X27657Y-29135D01*
X27629Y-29135D01*
X27587Y-29154D01*
X27573Y-29173D01*
X27446Y-29529D02*
X27446Y-29135D01*
X27334Y-29135D01*
X27305Y-29154D01*
X27291Y-29173D01*
X27277Y-29210D01*
X27277Y-29266D01*
X27291Y-29304D01*
X27305Y-29323D01*
X27334Y-29341D01*
X27446Y-29341D01*
X25731Y-35434D02*
X25731Y-35041D01*
X25483Y-35397D02*
X25494Y-35416D01*
X25528Y-35434D01*
X25551Y-35434D01*
X25584Y-35416D01*
X25607Y-35378D01*
X25618Y-35341D01*
X25629Y-35266D01*
X25629Y-35209D01*
X25618Y-35134D01*
X25607Y-35097D01*
X25584Y-35059D01*
X25551Y-35041D01*
X25528Y-35041D01*
X25494Y-35059D01*
X25483Y-35078D01*
X25382Y-35434D02*
X25382Y-35041D01*
X25292Y-35041D01*
X25269Y-35059D01*
X25258Y-35078D01*
X25247Y-35116D01*
X25247Y-35172D01*
X25258Y-35209D01*
X25269Y-35228D01*
X25292Y-35247D01*
X25382Y-35247D01*
X24966Y-35228D02*
X24887Y-35228D01*
X24853Y-35434D02*
X24966Y-35434D01*
X24966Y-35041D01*
X24853Y-35041D01*
X24775Y-35041D02*
X24617Y-35434D01*
X24617Y-35041D02*
X24775Y-35434D01*
X24561Y-35041D02*
X24426Y-35041D01*
X24493Y-35434D02*
X24493Y-35041D01*
X24347Y-35397D02*
X24336Y-35416D01*
X24347Y-35434D01*
X24358Y-35416D01*
X24347Y-35397D01*
X24347Y-35434D01*
X24688Y-32816D02*
X24707Y-32802D01*
X24726Y-32760D01*
X24726Y-32732D01*
X24707Y-32689D01*
X24670Y-32661D01*
X24632Y-32647D01*
X24557Y-32633D01*
X24501Y-32633D01*
X24426Y-32647D01*
X24388Y-32661D01*
X24351Y-32689D01*
X24332Y-32732D01*
X24332Y-32760D01*
X24351Y-32802D01*
X24370Y-32816D01*
X24726Y-33083D02*
X24726Y-32942D01*
X24332Y-32942D01*
X24726Y-33181D02*
X24332Y-33181D01*
X24726Y-33350D02*
X24501Y-33224D01*
X24332Y-33350D02*
X24557Y-33181D01*
X22127Y-34964D02*
X21734Y-34964D01*
X22127Y-35133D01*
X21734Y-35133D01*
X22090Y-35442D02*
X22109Y-35428D01*
X22127Y-35386D01*
X22127Y-35358D01*
X22109Y-35316D01*
X22071Y-35288D01*
X22034Y-35274D01*
X21959Y-35260D01*
X21902Y-35260D01*
X21827Y-35274D01*
X21790Y-35288D01*
X21752Y-35316D01*
X21734Y-35358D01*
X21734Y-35386D01*
X21752Y-35428D01*
X21771Y-35442D01*
X21734Y-31614D02*
X22127Y-31692D01*
X21734Y-31771D01*
X22090Y-31985D02*
X22109Y-31974D01*
X22127Y-31940D01*
X22127Y-31917D01*
X22109Y-31884D01*
X22071Y-31861D01*
X22034Y-31850D01*
X21959Y-31839D01*
X21902Y-31839D01*
X21827Y-31850D01*
X21790Y-31861D01*
X21752Y-31884D01*
X21734Y-31917D01*
X21734Y-31940D01*
X21752Y-31974D01*
X21771Y-31985D01*
X22090Y-32221D02*
X22109Y-32210D01*
X22127Y-32176D01*
X22127Y-32154D01*
X22109Y-32120D01*
X22071Y-32097D01*
X22034Y-32086D01*
X21959Y-32075D01*
X21902Y-32075D01*
X21827Y-32086D01*
X21790Y-32097D01*
X21752Y-32120D01*
X21734Y-32154D01*
X21734Y-32176D01*
X21752Y-32210D01*
X21771Y-32221D01*
X22127Y-32322D02*
X21734Y-32322D01*
X21734Y-32412D01*
X21752Y-32435D01*
X21771Y-32446D01*
X21809Y-32457D01*
X21865Y-32457D01*
X21902Y-32446D01*
X21921Y-32435D01*
X21940Y-32412D01*
X21940Y-32322D01*
X24351Y-31586D02*
X24332Y-31557D01*
X24332Y-31515D01*
X24351Y-31473D01*
X24388Y-31445D01*
X24426Y-31431D01*
X24501Y-31417D01*
X24557Y-31417D01*
X24632Y-31431D01*
X24670Y-31445D01*
X24707Y-31473D01*
X24726Y-31515D01*
X24726Y-31543D01*
X24707Y-31586D01*
X24688Y-31600D01*
X24557Y-31600D01*
X24557Y-31543D01*
X24726Y-31726D02*
X24332Y-31726D01*
X24726Y-31895D01*
X24332Y-31895D01*
X24726Y-32035D02*
X24332Y-32035D01*
X24332Y-32106D01*
X24351Y-32148D01*
X24388Y-32176D01*
X24426Y-32190D01*
X24501Y-32204D01*
X24557Y-32204D01*
X24632Y-32190D01*
X24670Y-32176D01*
X24707Y-32148D01*
X24726Y-32106D01*
X24726Y-32035D01*
X24726Y-33709D02*
X24332Y-33709D01*
X24613Y-33807D01*
X24332Y-33906D01*
X24726Y-33906D01*
X24332Y-34102D02*
X24332Y-34159D01*
X24351Y-34187D01*
X24388Y-34215D01*
X24463Y-34229D01*
X24595Y-34229D01*
X24670Y-34215D01*
X24707Y-34187D01*
X24726Y-34159D01*
X24726Y-34102D01*
X24707Y-34074D01*
X24670Y-34046D01*
X24595Y-34032D01*
X24463Y-34032D01*
X24388Y-34046D01*
X24351Y-34074D01*
X24332Y-34102D01*
X24707Y-34341D02*
X24726Y-34384D01*
X24726Y-34454D01*
X24707Y-34482D01*
X24688Y-34496D01*
X24651Y-34510D01*
X24613Y-34510D01*
X24576Y-34496D01*
X24557Y-34482D01*
X24538Y-34454D01*
X24520Y-34398D01*
X24501Y-34370D01*
X24482Y-34356D01*
X24445Y-34341D01*
X24407Y-34341D01*
X24370Y-34356D01*
X24351Y-34370D01*
X24332Y-34398D01*
X24332Y-34468D01*
X24351Y-34510D01*
X24726Y-34637D02*
X24332Y-34637D01*
X22127Y-33723D02*
X21734Y-33723D01*
X22015Y-33802D01*
X21734Y-33880D01*
X22127Y-33880D01*
X22127Y-33993D02*
X21734Y-33993D01*
X22109Y-34094D02*
X22127Y-34128D01*
X22127Y-34184D01*
X22109Y-34206D01*
X22090Y-34218D01*
X22052Y-34229D01*
X22015Y-34229D01*
X21977Y-34218D01*
X21959Y-34206D01*
X21940Y-34184D01*
X21921Y-34139D01*
X21902Y-34116D01*
X21884Y-34105D01*
X21846Y-34094D01*
X21809Y-34094D01*
X21771Y-34105D01*
X21752Y-34116D01*
X21734Y-34139D01*
X21734Y-34195D01*
X21752Y-34229D01*
X21734Y-34375D02*
X21734Y-34420D01*
X21752Y-34443D01*
X21790Y-34465D01*
X21865Y-34476D01*
X21996Y-34476D01*
X22071Y-34465D01*
X22109Y-34443D01*
X22127Y-34420D01*
X22127Y-34375D01*
X22109Y-34353D01*
X22071Y-34330D01*
X21996Y-34319D01*
X21865Y-34319D01*
X21790Y-34330D01*
X21752Y-34353D01*
X21734Y-34375D01*
X22169Y-33100D02*
X22187Y-33086D01*
X22206Y-33044D01*
X22206Y-33016D01*
X22187Y-32973D01*
X22150Y-32945D01*
X22112Y-32931D01*
X22037Y-32917D01*
X21981Y-32917D01*
X21906Y-32931D01*
X21869Y-32945D01*
X21831Y-32973D01*
X21812Y-33016D01*
X21812Y-33044D01*
X21831Y-33086D01*
X21850Y-33100D01*
X22187Y-33212D02*
X22206Y-33255D01*
X22206Y-33325D01*
X22187Y-33353D01*
X22169Y-33367D01*
X22131Y-33381D01*
X22094Y-33381D01*
X22056Y-33367D01*
X22037Y-33353D01*
X22019Y-33325D01*
X22000Y-33269D01*
X21981Y-33241D01*
X21962Y-33226D01*
X21925Y-33212D01*
X21887Y-33212D01*
X21850Y-33226D01*
X21831Y-33241D01*
X21812Y-33269D01*
X21812Y-33339D01*
X21831Y-33381D01*
X21737Y-32861D02*
X21737Y-33437D01*
X24647Y-39471D02*
X24253Y-39471D01*
X24535Y-39550D01*
X24253Y-39628D01*
X24647Y-39628D01*
X24253Y-39786D02*
X24253Y-39831D01*
X24272Y-39853D01*
X24310Y-39876D01*
X24385Y-39887D01*
X24516Y-39887D01*
X24591Y-39876D01*
X24628Y-39853D01*
X24647Y-39831D01*
X24647Y-39786D01*
X24628Y-39763D01*
X24591Y-39741D01*
X24516Y-39730D01*
X24385Y-39730D01*
X24310Y-39741D01*
X24272Y-39763D01*
X24253Y-39786D01*
X24628Y-39977D02*
X24647Y-40011D01*
X24647Y-40067D01*
X24628Y-40089D01*
X24610Y-40101D01*
X24572Y-40112D01*
X24535Y-40112D01*
X24497Y-40101D01*
X24478Y-40089D01*
X24460Y-40067D01*
X24441Y-40022D01*
X24422Y-40000D01*
X24403Y-39988D01*
X24366Y-39977D01*
X24328Y-39977D01*
X24291Y-39988D01*
X24272Y-40000D01*
X24253Y-40022D01*
X24253Y-40078D01*
X24272Y-40112D01*
X24647Y-40213D02*
X24253Y-40213D01*
X24610Y-38485D02*
X24628Y-38471D01*
X24647Y-38429D01*
X24647Y-38401D01*
X24628Y-38359D01*
X24591Y-38330D01*
X24553Y-38316D01*
X24478Y-38302D01*
X24422Y-38302D01*
X24347Y-38316D01*
X24310Y-38330D01*
X24272Y-38359D01*
X24253Y-38401D01*
X24253Y-38429D01*
X24272Y-38471D01*
X24291Y-38485D01*
X24647Y-38752D02*
X24647Y-38612D01*
X24253Y-38612D01*
X24647Y-38851D02*
X24253Y-38851D01*
X24647Y-39019D02*
X24422Y-38893D01*
X24253Y-39019D02*
X24478Y-38851D01*
X24647Y-37405D02*
X24253Y-37405D01*
X24647Y-37574D01*
X24253Y-37574D01*
X24610Y-37883D02*
X24628Y-37869D01*
X24647Y-37827D01*
X24647Y-37799D01*
X24628Y-37757D01*
X24591Y-37729D01*
X24553Y-37715D01*
X24478Y-37701D01*
X24422Y-37701D01*
X24347Y-37715D01*
X24310Y-37729D01*
X24272Y-37757D01*
X24253Y-37799D01*
X24253Y-37827D01*
X24272Y-37869D01*
X24291Y-37883D01*
X24253Y-36164D02*
X24647Y-36242D01*
X24253Y-36321D01*
X24610Y-36535D02*
X24628Y-36524D01*
X24647Y-36490D01*
X24647Y-36467D01*
X24628Y-36434D01*
X24591Y-36411D01*
X24553Y-36400D01*
X24478Y-36389D01*
X24422Y-36389D01*
X24347Y-36400D01*
X24310Y-36411D01*
X24272Y-36434D01*
X24253Y-36467D01*
X24253Y-36490D01*
X24272Y-36524D01*
X24291Y-36535D01*
X24610Y-36771D02*
X24628Y-36760D01*
X24647Y-36726D01*
X24647Y-36704D01*
X24628Y-36670D01*
X24591Y-36647D01*
X24553Y-36636D01*
X24478Y-36625D01*
X24422Y-36625D01*
X24347Y-36636D01*
X24310Y-36647D01*
X24272Y-36670D01*
X24253Y-36704D01*
X24253Y-36726D01*
X24272Y-36760D01*
X24291Y-36771D01*
X24647Y-36872D02*
X24253Y-36872D01*
X24535Y-36951D01*
X24253Y-37030D01*
X24647Y-37030D01*
X22169Y-36328D02*
X22187Y-36314D01*
X22206Y-36272D01*
X22206Y-36244D01*
X22187Y-36202D01*
X22150Y-36174D01*
X22112Y-36160D01*
X22037Y-36145D01*
X21981Y-36145D01*
X21906Y-36160D01*
X21869Y-36174D01*
X21831Y-36202D01*
X21812Y-36244D01*
X21812Y-36272D01*
X21831Y-36314D01*
X21850Y-36328D01*
X22187Y-36441D02*
X22206Y-36483D01*
X22206Y-36553D01*
X22187Y-36581D01*
X22169Y-36595D01*
X22131Y-36609D01*
X22094Y-36609D01*
X22056Y-36595D01*
X22037Y-36581D01*
X22019Y-36553D01*
X22000Y-36497D01*
X21981Y-36469D01*
X21962Y-36455D01*
X21925Y-36441D01*
X21887Y-36441D01*
X21850Y-36455D01*
X21831Y-36469D01*
X21812Y-36497D01*
X21812Y-36567D01*
X21831Y-36609D01*
X21737Y-36089D02*
X21737Y-36666D01*
X22127Y-37187D02*
X21734Y-37187D01*
X22015Y-37266D01*
X21734Y-37345D01*
X22127Y-37345D01*
X22127Y-37457D02*
X21734Y-37457D01*
X22109Y-37559D02*
X22127Y-37592D01*
X22127Y-37649D01*
X22109Y-37671D01*
X22090Y-37682D01*
X22052Y-37694D01*
X22015Y-37694D01*
X21977Y-37682D01*
X21959Y-37671D01*
X21940Y-37649D01*
X21921Y-37604D01*
X21902Y-37581D01*
X21884Y-37570D01*
X21846Y-37559D01*
X21809Y-37559D01*
X21771Y-37570D01*
X21752Y-37581D01*
X21734Y-37604D01*
X21734Y-37660D01*
X21752Y-37694D01*
X21734Y-37840D02*
X21734Y-37885D01*
X21752Y-37907D01*
X21790Y-37930D01*
X21865Y-37941D01*
X21996Y-37941D01*
X22071Y-37930D01*
X22109Y-37907D01*
X22127Y-37885D01*
X22127Y-37840D01*
X22109Y-37817D01*
X22071Y-37795D01*
X21996Y-37784D01*
X21865Y-37784D01*
X21790Y-37795D01*
X21752Y-37817D01*
X21734Y-37840D01*
X22127Y-38429D02*
X21734Y-38429D01*
X22127Y-38598D01*
X21734Y-38598D01*
X22090Y-38907D02*
X22109Y-38893D01*
X22127Y-38851D01*
X22127Y-38823D01*
X22109Y-38780D01*
X22071Y-38752D01*
X22034Y-38738D01*
X21959Y-38724D01*
X21902Y-38724D01*
X21827Y-38738D01*
X21790Y-38752D01*
X21752Y-38780D01*
X21734Y-38823D01*
X21734Y-38851D01*
X21752Y-38893D01*
X21771Y-38907D01*
X21752Y-39460D02*
X21734Y-39431D01*
X21734Y-39389D01*
X21752Y-39347D01*
X21790Y-39319D01*
X21827Y-39305D01*
X21902Y-39291D01*
X21959Y-39291D01*
X22034Y-39305D01*
X22071Y-39319D01*
X22109Y-39347D01*
X22127Y-39389D01*
X22127Y-39417D01*
X22109Y-39460D01*
X22090Y-39474D01*
X21959Y-39474D01*
X21959Y-39417D01*
X22127Y-39600D02*
X21734Y-39600D01*
X22127Y-39769D01*
X21734Y-39769D01*
X22127Y-39910D02*
X21734Y-39910D01*
X21734Y-39980D01*
X21752Y-40022D01*
X21790Y-40050D01*
X21827Y-40064D01*
X21902Y-40078D01*
X21959Y-40078D01*
X22034Y-40064D01*
X22071Y-40050D01*
X22109Y-40022D01*
X22127Y-39980D01*
X22127Y-39910D01*
X22127Y-44266D02*
X21734Y-44266D01*
X21734Y-44378D01*
X21752Y-44406D01*
X21771Y-44420D01*
X21809Y-44434D01*
X21865Y-44434D01*
X21902Y-44420D01*
X21921Y-44406D01*
X21940Y-44378D01*
X21940Y-44266D01*
X22127Y-44701D02*
X22127Y-44561D01*
X21734Y-44561D01*
X21977Y-44800D02*
X21977Y-45025D01*
X22127Y-44912D02*
X21827Y-44912D01*
X22127Y-43163D02*
X21734Y-43163D01*
X21734Y-43276D01*
X21752Y-43304D01*
X21771Y-43318D01*
X21809Y-43332D01*
X21865Y-43332D01*
X21902Y-43318D01*
X21921Y-43304D01*
X21940Y-43276D01*
X21940Y-43163D01*
X22127Y-43599D02*
X22127Y-43458D01*
X21734Y-43458D01*
X21977Y-43697D02*
X21977Y-43922D01*
X22127Y-42215D02*
X21734Y-42215D01*
X21734Y-42328D01*
X21752Y-42356D01*
X21771Y-42370D01*
X21809Y-42384D01*
X21865Y-42384D01*
X21902Y-42370D01*
X21921Y-42356D01*
X21940Y-42328D01*
X21940Y-42215D01*
X21921Y-42609D02*
X21940Y-42651D01*
X21959Y-42665D01*
X21996Y-42679D01*
X22052Y-42679D01*
X22090Y-42665D01*
X22109Y-42651D01*
X22127Y-42623D01*
X22127Y-42511D01*
X21734Y-42511D01*
X21734Y-42609D01*
X21752Y-42637D01*
X21771Y-42651D01*
X21809Y-42665D01*
X21846Y-42665D01*
X21884Y-42651D01*
X21902Y-42637D01*
X21921Y-42609D01*
X21921Y-42511D01*
X22127Y-41361D02*
X21940Y-41262D01*
X22127Y-41192D02*
X21734Y-41192D01*
X21734Y-41304D01*
X21752Y-41332D01*
X21771Y-41347D01*
X21809Y-41361D01*
X21865Y-41361D01*
X21902Y-41347D01*
X21921Y-41332D01*
X21940Y-41304D01*
X21940Y-41192D01*
X21921Y-41586D02*
X21940Y-41628D01*
X21959Y-41642D01*
X21996Y-41656D01*
X22052Y-41656D01*
X22090Y-41642D01*
X22109Y-41628D01*
X22127Y-41600D01*
X22127Y-41487D01*
X21734Y-41487D01*
X21734Y-41586D01*
X21752Y-41614D01*
X21771Y-41628D01*
X21809Y-41642D01*
X21846Y-41642D01*
X21884Y-41628D01*
X21902Y-41614D01*
X21921Y-41586D01*
X21921Y-41487D01*
X24692Y-42308D02*
X24692Y-42449D01*
X24805Y-42280D02*
X24411Y-42379D01*
X24805Y-42477D01*
X24411Y-42716D02*
X24411Y-42575D01*
X24598Y-42561D01*
X24580Y-42575D01*
X24561Y-42604D01*
X24561Y-42674D01*
X24580Y-42702D01*
X24598Y-42716D01*
X24636Y-42730D01*
X24730Y-42730D01*
X24767Y-42716D01*
X24786Y-42702D01*
X24805Y-42674D01*
X24805Y-42604D01*
X24786Y-42575D01*
X24767Y-42561D01*
X24692Y-43253D02*
X24692Y-43394D01*
X24805Y-43225D02*
X24411Y-43323D01*
X24805Y-43422D01*
X24542Y-43647D02*
X24805Y-43647D01*
X24392Y-43577D02*
X24673Y-43506D01*
X24673Y-43689D01*
X24692Y-44277D02*
X24692Y-44417D01*
X24805Y-44249D02*
X24411Y-44347D01*
X24805Y-44446D01*
X24411Y-44516D02*
X24411Y-44699D01*
X24561Y-44600D01*
X24561Y-44642D01*
X24580Y-44670D01*
X24598Y-44685D01*
X24636Y-44699D01*
X24730Y-44699D01*
X24767Y-44685D01*
X24786Y-44670D01*
X24805Y-44642D01*
X24805Y-44558D01*
X24786Y-44530D01*
X24767Y-44516D01*
G54D13*
X35018Y-37357D02*
X35018Y-37407D01*
X35018Y-37407D02*
X32918Y-37407D01*
X32918Y-35907D02*
X35018Y-35907D01*
X35018Y-35907D02*
X35018Y-37357D01*
X35018Y-36457D02*
X34818Y-36457D01*
X34818Y-36457D02*
X34818Y-36857D01*
X34818Y-36857D02*
X35018Y-36857D01*
X32918Y-35907D02*
X32918Y-37407D01*
G54D14*
X24539Y-45405D02*
X24539Y-46405D01*
X24539Y-46405D02*
X27539Y-46405D01*
X27539Y-46405D02*
X27539Y-45405D01*
X27539Y-45405D02*
X24539Y-45405D01*
X25539Y-46405D02*
X25539Y-45405D01*
G54D12*
X31562Y-27326D02*
X27562Y-27326D01*
X31562Y-26326D02*
X27562Y-26326D01*
X31562Y-27326D02*
X35562Y-27326D01*
X31562Y-26326D02*
X35562Y-26326D01*
X35562Y-26326D02*
X35562Y-27326D01*
X27562Y-27326D02*
X27562Y-26326D01*
X33531Y-46409D02*
X35531Y-46409D01*
X35531Y-46409D02*
X35531Y-45409D01*
X35531Y-45409D02*
X33531Y-45409D01*
X33531Y-45409D02*
X29531Y-45409D01*
X33531Y-46409D02*
X29531Y-46409D01*
X29531Y-46409D02*
X29531Y-45409D01*
X35531Y-45409D02*
X35531Y-46409D01*
G54D15*
G36*
X29243Y-38000D02*
X29297Y-38014D01*
X29310Y-38034D01*
X29340Y-38052D01*
X29418Y-38064D01*
X29504Y-38067D01*
X29654Y-38081D01*
X29750Y-38124D01*
X29799Y-38204D01*
X29810Y-38295D01*
X29800Y-38371D01*
X29765Y-38399D01*
X29743Y-38400D01*
X29690Y-38380D01*
X29676Y-38321D01*
X29660Y-38255D01*
X29606Y-38218D01*
X29502Y-38202D01*
X29440Y-38200D01*
X29356Y-38205D01*
X29319Y-38227D01*
X29310Y-38282D01*
X29310Y-38300D01*
X29299Y-38374D01*
X29260Y-38399D01*
X29243Y-38400D01*
X29194Y-38385D01*
X29177Y-38326D01*
X29176Y-38300D01*
X29167Y-38229D01*
X29129Y-38203D01*
X29096Y-38200D01*
X29038Y-38189D01*
X29030Y-38146D01*
X29033Y-38134D01*
X29074Y-38079D01*
X29113Y-38067D01*
X29165Y-38052D01*
X29176Y-38034D01*
X29204Y-38007D01*
X29243Y-38000D01*
X29243Y-38000D01*
X29243Y-38000D01*
G37*
G36*
X29499Y-37434D02*
X29644Y-37460D01*
X29747Y-37533D01*
X29769Y-37579D01*
X29476Y-37579D01*
X29386Y-37605D01*
X29334Y-37671D01*
X29326Y-37717D01*
X29343Y-37796D01*
X29406Y-37838D01*
X29413Y-37840D01*
X29521Y-37854D01*
X29612Y-37825D01*
X29667Y-37762D01*
X29676Y-37717D01*
X29654Y-37641D01*
X29588Y-37599D01*
X29476Y-37579D01*
X29769Y-37579D01*
X29802Y-37647D01*
X29810Y-37717D01*
X29782Y-37844D01*
X29728Y-37919D01*
X29619Y-37985D01*
X29486Y-38005D01*
X29354Y-37980D01*
X29258Y-37919D01*
X29186Y-37809D01*
X29172Y-37693D01*
X29208Y-37585D01*
X29289Y-37498D01*
X29408Y-37444D01*
X29499Y-37434D01*
X29499Y-37434D01*
X29499Y-37434D01*
G37*
G36*
X29494Y-36820D02*
X29616Y-36842D01*
X29716Y-36903D01*
X29766Y-36969D01*
X29471Y-36969D01*
X29383Y-36989D01*
X29344Y-37015D01*
X29309Y-37096D01*
X29328Y-37170D01*
X29388Y-37226D01*
X29477Y-37252D01*
X29581Y-37238D01*
X29588Y-37236D01*
X29657Y-37180D01*
X29678Y-37098D01*
X29645Y-37017D01*
X29636Y-37007D01*
X29567Y-36975D01*
X29471Y-36969D01*
X29766Y-36969D01*
X29785Y-36993D01*
X29815Y-37100D01*
X29798Y-37214D01*
X29728Y-37319D01*
X29650Y-37375D01*
X29552Y-37398D01*
X29493Y-37400D01*
X29348Y-37376D01*
X29242Y-37307D01*
X29184Y-37200D01*
X29176Y-37133D01*
X29199Y-36995D01*
X29272Y-36898D01*
X29360Y-36848D01*
X29494Y-36820D01*
X29494Y-36820D01*
X29494Y-36820D01*
G37*
G36*
X29810Y-36234D02*
X29810Y-36367D01*
X29493Y-36367D01*
X29388Y-36369D01*
X29333Y-36380D01*
X29313Y-36409D01*
X29310Y-36460D01*
X29331Y-36564D01*
X29398Y-36620D01*
X29493Y-36634D01*
X29602Y-36614D01*
X29661Y-36550D01*
X29676Y-36460D01*
X29673Y-36407D01*
X29651Y-36379D01*
X29594Y-36369D01*
X29493Y-36367D01*
X29810Y-36367D01*
X29810Y-36419D01*
X29804Y-36538D01*
X29781Y-36617D01*
X29733Y-36680D01*
X29728Y-36685D01*
X29618Y-36752D01*
X29485Y-36772D01*
X29352Y-36745D01*
X29255Y-36682D01*
X29194Y-36600D01*
X29180Y-36509D01*
X29183Y-36482D01*
X29188Y-36407D01*
X29167Y-36375D01*
X29103Y-36367D01*
X29069Y-36367D01*
X28985Y-36361D01*
X28949Y-36336D01*
X28943Y-36300D01*
X28947Y-36273D01*
X28965Y-36255D01*
X29008Y-36243D01*
X29087Y-36237D01*
X29212Y-36234D01*
X29376Y-36234D01*
X29810Y-36234D01*
X29810Y-36234D01*
X29810Y-36234D01*
G37*
G36*
X29546Y-35588D02*
X29673Y-35628D01*
X29744Y-35692D01*
X29789Y-35786D01*
X29809Y-35904D01*
X29800Y-36013D01*
X29781Y-36060D01*
X29732Y-36087D01*
X29701Y-36082D01*
X29666Y-36048D01*
X29663Y-35975D01*
X29666Y-35948D01*
X29665Y-35847D01*
X29633Y-35769D01*
X29578Y-35734D01*
X29572Y-35734D01*
X29416Y-35734D01*
X29361Y-35762D01*
X29320Y-35830D01*
X29310Y-35884D01*
X29330Y-35962D01*
X29378Y-36020D01*
X29416Y-36034D01*
X29432Y-36004D01*
X29442Y-35929D01*
X29443Y-35884D01*
X29438Y-35794D01*
X29424Y-35741D01*
X29416Y-35734D01*
X29572Y-35734D01*
X29557Y-35764D01*
X29547Y-35844D01*
X29543Y-35950D01*
X29543Y-36167D01*
X29441Y-36167D01*
X29326Y-36137D01*
X29234Y-36058D01*
X29182Y-35946D01*
X29176Y-35893D01*
X29204Y-35755D01*
X29285Y-35655D01*
X29390Y-35606D01*
X29546Y-35588D01*
X29546Y-35588D01*
X29546Y-35588D01*
G37*
G36*
X29496Y-35200D02*
X29641Y-35201D01*
X29733Y-35205D01*
X29784Y-35216D01*
X29805Y-35237D01*
X29809Y-35271D01*
X29810Y-35282D01*
X29806Y-35325D01*
X29785Y-35350D01*
X29732Y-35364D01*
X29634Y-35371D01*
X29568Y-35374D01*
X29443Y-35380D01*
X29370Y-35390D01*
X29333Y-35411D01*
X29316Y-35449D01*
X29309Y-35483D01*
X29279Y-35561D01*
X29236Y-35594D01*
X29205Y-35591D01*
X29188Y-35556D01*
X29181Y-35477D01*
X29181Y-35403D01*
X29182Y-35200D01*
X29496Y-35200D01*
X29496Y-35200D01*
X29496Y-35200D01*
G37*
G36*
X29567Y-34544D02*
X29592Y-34548D01*
X29707Y-34599D01*
X29782Y-34689D01*
X29782Y-34692D01*
X29462Y-34692D01*
X29372Y-34723D01*
X29318Y-34781D01*
X29311Y-34856D01*
X29344Y-34919D01*
X29410Y-34955D01*
X29505Y-34966D01*
X29596Y-34951D01*
X29638Y-34926D01*
X29673Y-34851D01*
X29659Y-34770D01*
X29604Y-34710D01*
X29576Y-34699D01*
X29462Y-34692D01*
X29782Y-34692D01*
X29811Y-34804D01*
X29789Y-34926D01*
X29731Y-35021D01*
X29669Y-35079D01*
X29595Y-35106D01*
X29493Y-35112D01*
X29384Y-35104D01*
X29312Y-35075D01*
X29254Y-35021D01*
X29185Y-34901D01*
X29175Y-34784D01*
X29216Y-34678D01*
X29300Y-34596D01*
X29419Y-34548D01*
X29567Y-34544D01*
X29567Y-34544D01*
X29567Y-34544D01*
G37*
G36*
X29475Y-34000D02*
X29601Y-34021D01*
X29709Y-34074D01*
X29778Y-34148D01*
X29788Y-34174D01*
X29807Y-34300D01*
X29799Y-34412D01*
X29779Y-34464D01*
X29732Y-34497D01*
X29685Y-34481D01*
X29663Y-34429D01*
X29666Y-34403D01*
X29672Y-34317D01*
X29663Y-34251D01*
X29638Y-34195D01*
X29588Y-34171D01*
X29513Y-34167D01*
X29394Y-34186D01*
X29329Y-34245D01*
X29314Y-34345D01*
X29317Y-34370D01*
X29312Y-34450D01*
X29281Y-34495D01*
X29236Y-34494D01*
X29207Y-34464D01*
X29173Y-34355D01*
X29191Y-34237D01*
X29249Y-34127D01*
X29339Y-34043D01*
X29449Y-34002D01*
X29475Y-34000D01*
X29475Y-34000D01*
X29475Y-34000D01*
G37*
G36*
X27788Y-34735D02*
X27953Y-34754D01*
X28066Y-34799D01*
X28182Y-34906D01*
X28252Y-35046D01*
X28271Y-35204D01*
X28242Y-35339D01*
X27499Y-35339D01*
X27476Y-35351D01*
X27431Y-35403D01*
X27377Y-35499D01*
X27324Y-35619D01*
X27280Y-35741D01*
X27255Y-35847D01*
X27254Y-35850D01*
X27252Y-35991D01*
X27282Y-36112D01*
X27339Y-36195D01*
X27380Y-36218D01*
X27457Y-36226D01*
X27551Y-36200D01*
X27677Y-36136D01*
X27760Y-36086D01*
X27856Y-36024D01*
X27934Y-35976D01*
X27966Y-35956D01*
X27963Y-35966D01*
X27920Y-36014D01*
X27847Y-36091D01*
X27808Y-36130D01*
X27717Y-36225D01*
X27648Y-36303D01*
X27612Y-36352D01*
X27610Y-36360D01*
X27633Y-36419D01*
X27689Y-36489D01*
X27755Y-36547D01*
X27804Y-36567D01*
X27849Y-36544D01*
X27924Y-36480D01*
X28019Y-36387D01*
X28082Y-36319D01*
X28191Y-36201D01*
X28264Y-36134D01*
X28310Y-36117D01*
X28334Y-36150D01*
X28342Y-36230D01*
X28343Y-36277D01*
X28351Y-36343D01*
X28375Y-36346D01*
X28412Y-36290D01*
X28456Y-36183D01*
X28489Y-36067D01*
X28505Y-35954D01*
X28503Y-35865D01*
X28483Y-35822D01*
X28451Y-35837D01*
X28390Y-35894D01*
X28312Y-35981D01*
X28297Y-35999D01*
X28192Y-36120D01*
X28079Y-36245D01*
X27992Y-36335D01*
X27907Y-36413D01*
X27853Y-36449D01*
X27815Y-36448D01*
X27794Y-36435D01*
X27756Y-36390D01*
X27751Y-36338D01*
X27785Y-36269D01*
X27862Y-36173D01*
X27948Y-36081D01*
X28037Y-35984D01*
X28102Y-35906D01*
X28134Y-35857D01*
X28135Y-35848D01*
X28098Y-35851D01*
X28014Y-35875D01*
X27900Y-35914D01*
X27855Y-35932D01*
X27661Y-35999D01*
X27516Y-36029D01*
X27415Y-36024D01*
X27352Y-35981D01*
X27341Y-35964D01*
X27319Y-35859D01*
X27339Y-35720D01*
X27399Y-35561D01*
X27429Y-35505D01*
X27483Y-35405D01*
X27505Y-35353D01*
X27499Y-35339D01*
X28242Y-35339D01*
X28238Y-35363D01*
X28177Y-35473D01*
X28132Y-35540D01*
X28114Y-35580D01*
X28115Y-35584D01*
X28151Y-35581D01*
X28230Y-35560D01*
X28330Y-35528D01*
X28433Y-35491D01*
X28519Y-35457D01*
X28567Y-35432D01*
X28571Y-35427D01*
X28609Y-35400D01*
X28668Y-35419D01*
X28724Y-35475D01*
X28777Y-35610D01*
X28791Y-35782D01*
X28765Y-35970D01*
X28758Y-36000D01*
X28653Y-36266D01*
X28491Y-36514D01*
X28268Y-36747D01*
X28082Y-36899D01*
X27858Y-37065D01*
X27815Y-37341D01*
X27784Y-37511D01*
X27752Y-37619D01*
X27712Y-37672D01*
X27661Y-37676D01*
X27593Y-37636D01*
X27570Y-37617D01*
X27387Y-37423D01*
X27256Y-37194D01*
X27229Y-37121D01*
X27187Y-37030D01*
X27114Y-36904D01*
X27020Y-36760D01*
X26920Y-36621D01*
X26808Y-36464D01*
X26698Y-36294D01*
X26597Y-36124D01*
X26511Y-35966D01*
X26448Y-35832D01*
X26414Y-35734D01*
X26410Y-35704D01*
X26426Y-35700D01*
X26470Y-35741D01*
X26514Y-35795D01*
X26585Y-35885D01*
X26625Y-35918D01*
X26633Y-35895D01*
X26610Y-35820D01*
X26588Y-35733D01*
X26578Y-35637D01*
X26580Y-35553D01*
X26596Y-35505D01*
X26605Y-35500D01*
X26663Y-35529D01*
X26742Y-35609D01*
X26836Y-35730D01*
X26937Y-35882D01*
X27040Y-36055D01*
X27139Y-36240D01*
X27226Y-36427D01*
X27259Y-36505D01*
X27333Y-36663D01*
X27411Y-36779D01*
X27486Y-36848D01*
X27552Y-36868D01*
X27603Y-36835D01*
X27633Y-36746D01*
X27636Y-36712D01*
X27638Y-36641D01*
X27625Y-36586D01*
X27587Y-36531D01*
X27515Y-36459D01*
X27443Y-36396D01*
X27286Y-36249D01*
X27177Y-36125D01*
X27110Y-36011D01*
X27076Y-35896D01*
X27069Y-35783D01*
X27102Y-35580D01*
X27189Y-35381D01*
X27320Y-35202D01*
X27484Y-35059D01*
X27589Y-35000D01*
X27719Y-34940D01*
X27550Y-34945D01*
X27418Y-34941D01*
X27345Y-34918D01*
X27332Y-34882D01*
X27382Y-34835D01*
X27445Y-34802D01*
X27611Y-34751D01*
X27788Y-34735D01*
X27788Y-34735D01*
X27788Y-34735D01*
G37*
G54D14*
X25228Y-46957D02*
X25228Y-46557D01*
X25075Y-46557D01*
X25037Y-46576D01*
X25018Y-46595D01*
X24999Y-46633D01*
X24999Y-46690D01*
X25018Y-46728D01*
X25037Y-46747D01*
X25075Y-46766D01*
X25228Y-46766D01*
X24656Y-46557D02*
X24733Y-46557D01*
X24771Y-46576D01*
X24790Y-46595D01*
X24828Y-46652D01*
X24847Y-46728D01*
X24847Y-46880D01*
X24828Y-46919D01*
X24809Y-46938D01*
X24771Y-46957D01*
X24694Y-46957D01*
X24656Y-46938D01*
X24637Y-46919D01*
X24618Y-46880D01*
X24618Y-46785D01*
X24637Y-46747D01*
X24656Y-46728D01*
X24694Y-46709D01*
X24771Y-46709D01*
X24809Y-46728D01*
X24828Y-46747D01*
X24847Y-46785D01*
G54D16*
X36118Y-26598D02*
X35718Y-26598D01*
X35718Y-26750D01*
X35737Y-26788D01*
X35756Y-26807D01*
X35794Y-26827D01*
X35851Y-26827D01*
X35890Y-26807D01*
X35909Y-26788D01*
X35928Y-26750D01*
X35928Y-26598D01*
X35718Y-26960D02*
X35718Y-27227D01*
X36118Y-27055D01*
X29327Y-45850D02*
X28927Y-45850D01*
X28927Y-46002D01*
X28946Y-46040D01*
X28965Y-46059D01*
X29003Y-46079D01*
X29060Y-46079D01*
X29098Y-46059D01*
X29117Y-46040D01*
X29136Y-46002D01*
X29136Y-45850D01*
X29327Y-46269D02*
X29327Y-46345D01*
X29308Y-46383D01*
X29289Y-46402D01*
X29232Y-46440D01*
X29155Y-46459D01*
X29003Y-46459D01*
X28965Y-46440D01*
X28946Y-46421D01*
X28927Y-46383D01*
X28927Y-46307D01*
X28946Y-46269D01*
X28965Y-46250D01*
X29003Y-46231D01*
X29098Y-46231D01*
X29136Y-46250D01*
X29155Y-46269D01*
X29174Y-46307D01*
X29174Y-46383D01*
X29155Y-46421D01*
X29136Y-46440D01*
X29098Y-46459D01*
M02*
