G04 (created by PCBNEW (2013-07-07 BZR 4022)-stable) date 16/09/2013 17:45:25*
%MOIN*%
G04 Gerber Fmt 3.4, Leading zero omitted, Abs format*
%FSLAX34Y34*%
G01*
G70*
G90*
G04 APERTURE LIST*
%ADD10C,0.00590551*%
%ADD11C,0.008*%
%ADD12C,0.0026*%
%ADD13C,0.006*%
%ADD14C,0.015*%
%ADD15C,0.01*%
%ADD16C,0.012*%
%ADD17C,0.005*%
%ADD18C,0.0047*%
%ADD19C,0.0031*%
%ADD20C,0.015748*%
%ADD21C,0.0035*%
%ADD22C,0.00393701*%
%ADD23C,0.0045*%
%ADD24C,0.00295276*%
%ADD25C,0.0039*%
G04 APERTURE END LIST*
G54D10*
G54D11*
X38013Y-27248D02*
X38013Y-26608D01*
X37403Y-27248D02*
X37403Y-26618D01*
X37403Y-26618D02*
X37403Y-26613D01*
G54D12*
X38018Y-27253D02*
X38018Y-27013D01*
X38018Y-27131D02*
X37398Y-27131D01*
X37398Y-27253D02*
X37398Y-27013D01*
X38018Y-27154D02*
X37398Y-27154D01*
G54D11*
X37512Y-26717D02*
X37708Y-27109D01*
X37708Y-27109D02*
X37904Y-26717D01*
X37904Y-26717D02*
X37512Y-26717D01*
X37029Y-27248D02*
X37029Y-26608D01*
X36419Y-27248D02*
X36419Y-26618D01*
X36419Y-26618D02*
X36419Y-26613D01*
G54D12*
X37034Y-27253D02*
X37034Y-27013D01*
X37034Y-27131D02*
X36414Y-27131D01*
X36414Y-27253D02*
X36414Y-27013D01*
X37034Y-27154D02*
X36414Y-27154D01*
G54D11*
X36528Y-26717D02*
X36724Y-27109D01*
X36724Y-27109D02*
X36920Y-26717D01*
X36920Y-26717D02*
X36528Y-26717D01*
G54D13*
X24212Y-45007D02*
X23212Y-45007D01*
X23212Y-45007D02*
X23212Y-42007D01*
X23212Y-42007D02*
X24212Y-42007D01*
X24212Y-42007D02*
X24212Y-45007D01*
X23212Y-44007D02*
X24212Y-44007D01*
G54D14*
X38653Y-23606D02*
X38653Y-35732D01*
X38653Y-35732D02*
X40149Y-35732D01*
X40149Y-35732D02*
X40149Y-23606D01*
X40149Y-23606D02*
X38653Y-23606D01*
X38653Y-37188D02*
X38653Y-49314D01*
X38653Y-49314D02*
X40149Y-49314D01*
X40149Y-49314D02*
X40149Y-37188D01*
X40149Y-37188D02*
X38653Y-37188D01*
G54D15*
X22248Y-30979D02*
X23248Y-30979D01*
G54D13*
X23132Y-29898D02*
G75*
G03X22748Y-29759I-384J-460D01*
G74*
G01*
X22748Y-29760D02*
G75*
G03X22350Y-29911I0J-599D01*
G74*
G01*
X22748Y-30959D02*
G75*
G03X23138Y-30814I0J599D01*
G74*
G01*
X22363Y-30820D02*
G75*
G03X22748Y-30959I384J460D01*
G74*
G01*
X23097Y-30847D02*
G75*
G03X23348Y-30359I-349J487D01*
G74*
G01*
X23348Y-30359D02*
G75*
G03X23108Y-29880I-600J0D01*
G74*
G01*
X22148Y-30359D02*
G75*
G03X22379Y-30832I599J0D01*
G74*
G01*
X22379Y-29886D02*
G75*
G03X22148Y-30359I368J-473D01*
G74*
G01*
X22998Y-30359D02*
G75*
G03X22748Y-30109I-250J0D01*
G74*
G01*
X23148Y-30359D02*
G75*
G03X22748Y-29959I-400J0D01*
G74*
G01*
X22498Y-30359D02*
G75*
G03X22748Y-30609I250J0D01*
G74*
G01*
X22348Y-30359D02*
G75*
G03X22748Y-30759I400J0D01*
G74*
G01*
G54D15*
X23261Y-30973D02*
G75*
G03X23548Y-30359I-513J613D01*
G74*
G01*
X23547Y-30359D02*
G75*
G03X23124Y-29655I-799J0D01*
G74*
G01*
X21949Y-30361D02*
G75*
G03X22232Y-30970I798J1D01*
G74*
G01*
X22350Y-29665D02*
G75*
G03X21948Y-30359I397J-694D01*
G74*
G01*
X23127Y-29655D02*
G75*
G03X22748Y-29559I-379J-704D01*
G74*
G01*
X22748Y-29560D02*
G75*
G03X22329Y-29678I0J-799D01*
G74*
G01*
G54D11*
X33846Y-40381D02*
X36846Y-40381D01*
X36846Y-42381D02*
X33846Y-42381D01*
X33846Y-42381D02*
X33846Y-40381D01*
X36846Y-40381D02*
X36846Y-42381D01*
G54D15*
X23208Y-40996D02*
X23208Y-44996D01*
X22208Y-40996D02*
X22208Y-44996D01*
X22208Y-44996D02*
X23208Y-44996D01*
X23208Y-40996D02*
X22208Y-40996D01*
G54D16*
X32566Y-28653D02*
X32566Y-32653D01*
X32566Y-32653D02*
X30566Y-32653D01*
X30566Y-32653D02*
X30566Y-28653D01*
X30566Y-28653D02*
X32566Y-28653D01*
X24220Y-31685D02*
X24220Y-35685D01*
X24220Y-35685D02*
X22220Y-35685D01*
X22220Y-35685D02*
X22220Y-31685D01*
X22220Y-31685D02*
X24220Y-31685D01*
X24220Y-36133D02*
X24220Y-40133D01*
X24220Y-40133D02*
X22220Y-40133D01*
X22220Y-40133D02*
X22220Y-36133D01*
X22220Y-36133D02*
X24220Y-36133D01*
G54D17*
X27655Y-45079D02*
X27655Y-44179D01*
X27655Y-44179D02*
X28155Y-44179D01*
X28155Y-44179D02*
X28155Y-45079D01*
X28155Y-45079D02*
X27655Y-45079D01*
X28994Y-45079D02*
X28994Y-44179D01*
X28994Y-44179D02*
X29494Y-44179D01*
X29494Y-44179D02*
X29494Y-45079D01*
X29494Y-45079D02*
X28994Y-45079D01*
X34336Y-44179D02*
X34336Y-45079D01*
X34336Y-45079D02*
X33836Y-45079D01*
X33836Y-45079D02*
X33836Y-44179D01*
X33836Y-44179D02*
X34336Y-44179D01*
X32958Y-44179D02*
X32958Y-45079D01*
X32958Y-45079D02*
X32458Y-45079D01*
X32458Y-45079D02*
X32458Y-44179D01*
X32458Y-44179D02*
X32958Y-44179D01*
X32250Y-44179D02*
X32250Y-45079D01*
X32250Y-45079D02*
X31750Y-45079D01*
X31750Y-45079D02*
X31750Y-44179D01*
X31750Y-44179D02*
X32250Y-44179D01*
X30372Y-45079D02*
X30372Y-44179D01*
X30372Y-44179D02*
X30872Y-44179D01*
X30872Y-44179D02*
X30872Y-45079D01*
X30872Y-45079D02*
X30372Y-45079D01*
X31080Y-45079D02*
X31080Y-44179D01*
X31080Y-44179D02*
X31580Y-44179D01*
X31580Y-44179D02*
X31580Y-45079D01*
X31580Y-45079D02*
X31080Y-45079D01*
X34505Y-45079D02*
X34505Y-44179D01*
X34505Y-44179D02*
X35005Y-44179D01*
X35005Y-44179D02*
X35005Y-45079D01*
X35005Y-45079D02*
X34505Y-45079D01*
X23282Y-28533D02*
X24182Y-28533D01*
X24182Y-28533D02*
X24182Y-29033D01*
X24182Y-29033D02*
X23282Y-29033D01*
X23282Y-29033D02*
X23282Y-28533D01*
X38158Y-30706D02*
X37258Y-30706D01*
X37258Y-30706D02*
X37258Y-30206D01*
X37258Y-30206D02*
X38158Y-30206D01*
X38158Y-30206D02*
X38158Y-30706D01*
X36777Y-35321D02*
X36777Y-36221D01*
X36777Y-36221D02*
X36277Y-36221D01*
X36277Y-36221D02*
X36277Y-35321D01*
X36277Y-35321D02*
X36777Y-35321D01*
X30861Y-36801D02*
X31761Y-36801D01*
X31761Y-36801D02*
X31761Y-37301D01*
X31761Y-37301D02*
X30861Y-37301D01*
X30861Y-37301D02*
X30861Y-36801D01*
X30202Y-44179D02*
X30202Y-45079D01*
X30202Y-45079D02*
X29702Y-45079D01*
X29702Y-45079D02*
X29702Y-44179D01*
X29702Y-44179D02*
X30202Y-44179D01*
X36777Y-37487D02*
X36777Y-38387D01*
X36777Y-38387D02*
X36277Y-38387D01*
X36277Y-38387D02*
X36277Y-37487D01*
X36277Y-37487D02*
X36777Y-37487D01*
X30861Y-35816D02*
X31761Y-35816D01*
X31761Y-35816D02*
X31761Y-36316D01*
X31761Y-36316D02*
X30861Y-36316D01*
X30861Y-36316D02*
X30861Y-35816D01*
X36777Y-36404D02*
X36777Y-37304D01*
X36777Y-37304D02*
X36277Y-37304D01*
X36277Y-37304D02*
X36277Y-36404D01*
X36277Y-36404D02*
X36777Y-36404D01*
X30861Y-34734D02*
X31761Y-34734D01*
X31761Y-34734D02*
X31761Y-35234D01*
X31761Y-35234D02*
X30861Y-35234D01*
X30861Y-35234D02*
X30861Y-34734D01*
X25973Y-39446D02*
X25073Y-39446D01*
X25073Y-39446D02*
X25073Y-38946D01*
X25073Y-38946D02*
X25973Y-38946D01*
X25973Y-38946D02*
X25973Y-39446D01*
X25973Y-38659D02*
X25073Y-38659D01*
X25073Y-38659D02*
X25073Y-38159D01*
X25073Y-38159D02*
X25973Y-38159D01*
X25973Y-38159D02*
X25973Y-38659D01*
X25973Y-40234D02*
X25073Y-40234D01*
X25073Y-40234D02*
X25073Y-39734D01*
X25073Y-39734D02*
X25973Y-39734D01*
X25973Y-39734D02*
X25973Y-40234D01*
X25953Y-33580D02*
X25053Y-33580D01*
X25053Y-33580D02*
X25053Y-33080D01*
X25053Y-33080D02*
X25953Y-33080D01*
X25953Y-33080D02*
X25953Y-33580D01*
X25953Y-34289D02*
X25053Y-34289D01*
X25053Y-34289D02*
X25053Y-33789D01*
X25053Y-33789D02*
X25953Y-33789D01*
X25953Y-33789D02*
X25953Y-34289D01*
X27486Y-44179D02*
X27486Y-45079D01*
X27486Y-45079D02*
X26986Y-45079D01*
X26986Y-45079D02*
X26986Y-44179D01*
X26986Y-44179D02*
X27486Y-44179D01*
X33912Y-39458D02*
X34812Y-39458D01*
X34812Y-39458D02*
X34812Y-39958D01*
X34812Y-39958D02*
X33912Y-39958D01*
X33912Y-39958D02*
X33912Y-39458D01*
X28864Y-44179D02*
X28864Y-45079D01*
X28864Y-45079D02*
X28364Y-45079D01*
X28364Y-45079D02*
X28364Y-44179D01*
X28364Y-44179D02*
X28864Y-44179D01*
X33355Y-42872D02*
X32455Y-42872D01*
X32455Y-42872D02*
X32455Y-42372D01*
X32455Y-42372D02*
X33355Y-42372D01*
X33355Y-42372D02*
X33355Y-42872D01*
X25678Y-29013D02*
X24778Y-29013D01*
X24778Y-29013D02*
X24778Y-28513D01*
X24778Y-28513D02*
X25678Y-28513D01*
X25678Y-28513D02*
X25678Y-29013D01*
X24561Y-30797D02*
X25461Y-30797D01*
X25461Y-30797D02*
X25461Y-31297D01*
X25461Y-31297D02*
X24561Y-31297D01*
X24561Y-31297D02*
X24561Y-30797D01*
X36077Y-39458D02*
X36977Y-39458D01*
X36977Y-39458D02*
X36977Y-39958D01*
X36977Y-39958D02*
X36077Y-39958D01*
X36077Y-39958D02*
X36077Y-39458D01*
X25953Y-34998D02*
X25053Y-34998D01*
X25053Y-34998D02*
X25053Y-34498D01*
X25053Y-34498D02*
X25953Y-34498D01*
X25953Y-34498D02*
X25953Y-34998D01*
X34994Y-39458D02*
X35894Y-39458D01*
X35894Y-39458D02*
X35894Y-39958D01*
X35894Y-39958D02*
X34994Y-39958D01*
X34994Y-39958D02*
X34994Y-39458D01*
G54D18*
X26803Y-41027D02*
X26528Y-41027D01*
X27197Y-41027D02*
X27472Y-41027D01*
X26803Y-41539D02*
X26528Y-41539D01*
X27472Y-41539D02*
X27197Y-41539D01*
X26528Y-41533D02*
X26528Y-41033D01*
X27472Y-41033D02*
X27472Y-41533D01*
X31114Y-37779D02*
X30839Y-37779D01*
X31508Y-37779D02*
X31783Y-37779D01*
X31114Y-38291D02*
X30839Y-38291D01*
X31783Y-38291D02*
X31508Y-38291D01*
X30839Y-38285D02*
X30839Y-37785D01*
X31783Y-37785D02*
X31783Y-38285D01*
X26803Y-35515D02*
X26528Y-35515D01*
X27197Y-35515D02*
X27472Y-35515D01*
X26803Y-36027D02*
X26528Y-36027D01*
X27472Y-36027D02*
X27197Y-36027D01*
X26528Y-36021D02*
X26528Y-35521D01*
X27472Y-35521D02*
X27472Y-36021D01*
X31862Y-42878D02*
X32137Y-42878D01*
X31468Y-42878D02*
X31193Y-42878D01*
X31862Y-42366D02*
X32137Y-42366D01*
X31193Y-42366D02*
X31468Y-42366D01*
X32137Y-42372D02*
X32137Y-42872D01*
X31193Y-42872D02*
X31193Y-42372D01*
G54D11*
X26966Y-36803D02*
X28866Y-36803D01*
X28866Y-36803D02*
X28866Y-40803D01*
X28866Y-40803D02*
X26966Y-40803D01*
X26966Y-40803D02*
X26966Y-36803D01*
X27666Y-40803D02*
X27666Y-40553D01*
X27666Y-40553D02*
X28166Y-40553D01*
X28166Y-40553D02*
X28166Y-40803D01*
X26966Y-31291D02*
X28866Y-31291D01*
X28866Y-31291D02*
X28866Y-35291D01*
X28866Y-35291D02*
X26966Y-35291D01*
X26966Y-35291D02*
X26966Y-31291D01*
X27666Y-35291D02*
X27666Y-35041D01*
X27666Y-35041D02*
X28166Y-35041D01*
X28166Y-35041D02*
X28166Y-35291D01*
G54D17*
X31059Y-39635D02*
X33059Y-39635D01*
X33059Y-39635D02*
X33059Y-41435D01*
X33059Y-41435D02*
X31059Y-41435D01*
X31059Y-41435D02*
X31059Y-39635D01*
X31059Y-40235D02*
X31259Y-40235D01*
X31259Y-40235D02*
X31259Y-40735D01*
X31259Y-40735D02*
X31059Y-40735D01*
G54D19*
X24591Y-29984D02*
G75*
G03X24591Y-29984I-62J0D01*
G74*
G01*
X25492Y-29646D02*
X25492Y-30046D01*
X24467Y-29646D02*
X24467Y-30046D01*
X25492Y-30046D02*
X24467Y-30046D01*
X24467Y-29646D02*
X25492Y-29646D01*
X26491Y-29383D02*
G75*
G03X26491Y-29383I-62J0D01*
G74*
G01*
X26766Y-30346D02*
X26366Y-30346D01*
X26766Y-29321D02*
X26366Y-29321D01*
X26366Y-30346D02*
X26366Y-29321D01*
X26766Y-29321D02*
X26766Y-30346D01*
G54D13*
X26956Y-42964D02*
X26956Y-41964D01*
X26956Y-41964D02*
X29956Y-41964D01*
X29956Y-41964D02*
X29956Y-42964D01*
X29956Y-42964D02*
X26956Y-42964D01*
X27956Y-41964D02*
X27956Y-42964D01*
X29055Y-30874D02*
X28055Y-30874D01*
X28055Y-30874D02*
X28055Y-27874D01*
X28055Y-27874D02*
X29055Y-27874D01*
X29055Y-27874D02*
X29055Y-30874D01*
X28055Y-29874D02*
X29055Y-29874D01*
X23248Y-45389D02*
X23248Y-46389D01*
X22248Y-46389D02*
X22248Y-45389D01*
X23248Y-46389D02*
X22248Y-46389D01*
X22248Y-45389D02*
X23248Y-45389D01*
G54D17*
X38158Y-29919D02*
X37258Y-29919D01*
X37258Y-29919D02*
X37258Y-29419D01*
X37258Y-29419D02*
X38158Y-29419D01*
X38158Y-29419D02*
X38158Y-29919D01*
X25880Y-28513D02*
X26780Y-28513D01*
X26780Y-28513D02*
X26780Y-29013D01*
X26780Y-29013D02*
X25880Y-29013D01*
X25880Y-29013D02*
X25880Y-28513D01*
X33127Y-45079D02*
X33127Y-44179D01*
X33127Y-44179D02*
X33627Y-44179D01*
X33627Y-44179D02*
X33627Y-45079D01*
X33627Y-45079D02*
X33127Y-45079D01*
X25953Y-32872D02*
X25053Y-32872D01*
X25053Y-32872D02*
X25053Y-32372D01*
X25053Y-32372D02*
X25953Y-32372D01*
X25953Y-32372D02*
X25953Y-32872D01*
X25973Y-37970D02*
X25073Y-37970D01*
X25073Y-37970D02*
X25073Y-37470D01*
X25073Y-37470D02*
X25973Y-37470D01*
X25973Y-37470D02*
X25973Y-37970D01*
G54D15*
X33468Y-38559D02*
X33468Y-38059D01*
X33468Y-38059D02*
X34468Y-38059D01*
X34468Y-38059D02*
X34468Y-38559D01*
X32968Y-38559D02*
X32968Y-34559D01*
X32968Y-34559D02*
X34968Y-34559D01*
X34968Y-34559D02*
X34968Y-38559D01*
X34968Y-38559D02*
X32968Y-38559D01*
G54D20*
X33612Y-28669D02*
X36112Y-28669D01*
X36112Y-30669D02*
X33612Y-30669D01*
G54D14*
X33612Y-30669D02*
X33612Y-28669D01*
X36112Y-28669D02*
X36112Y-30669D01*
X36112Y-29919D02*
X35612Y-29919D01*
X35612Y-29919D02*
X35612Y-29419D01*
X35612Y-29419D02*
X36112Y-29419D01*
G54D21*
X37592Y-25473D02*
X37592Y-25315D01*
X37629Y-25315D01*
X37652Y-25323D01*
X37667Y-25338D01*
X37674Y-25353D01*
X37682Y-25383D01*
X37682Y-25405D01*
X37674Y-25435D01*
X37667Y-25450D01*
X37652Y-25465D01*
X37629Y-25473D01*
X37592Y-25473D01*
X37742Y-25330D02*
X37749Y-25323D01*
X37764Y-25315D01*
X37802Y-25315D01*
X37817Y-25323D01*
X37824Y-25330D01*
X37832Y-25345D01*
X37832Y-25360D01*
X37824Y-25383D01*
X37734Y-25473D01*
X37832Y-25473D01*
X37589Y-25575D02*
X37514Y-25575D01*
X37507Y-25650D01*
X37514Y-25643D01*
X37529Y-25635D01*
X37567Y-25635D01*
X37582Y-25643D01*
X37589Y-25650D01*
X37597Y-25665D01*
X37597Y-25703D01*
X37589Y-25718D01*
X37582Y-25725D01*
X37567Y-25733D01*
X37529Y-25733D01*
X37514Y-25725D01*
X37507Y-25718D01*
X37664Y-25718D02*
X37672Y-25725D01*
X37664Y-25733D01*
X37657Y-25725D01*
X37664Y-25718D01*
X37664Y-25733D01*
X37747Y-25733D02*
X37777Y-25733D01*
X37792Y-25725D01*
X37799Y-25718D01*
X37814Y-25695D01*
X37822Y-25665D01*
X37822Y-25605D01*
X37814Y-25590D01*
X37807Y-25583D01*
X37792Y-25575D01*
X37762Y-25575D01*
X37747Y-25583D01*
X37739Y-25590D01*
X37732Y-25605D01*
X37732Y-25643D01*
X37739Y-25658D01*
X37747Y-25665D01*
X37762Y-25673D01*
X37792Y-25673D01*
X37807Y-25665D01*
X37814Y-25658D01*
X37822Y-25643D01*
X37867Y-25575D02*
X37919Y-25733D01*
X37972Y-25575D01*
X36584Y-25457D02*
X36584Y-25299D01*
X36622Y-25299D01*
X36644Y-25307D01*
X36659Y-25322D01*
X36667Y-25337D01*
X36674Y-25367D01*
X36674Y-25389D01*
X36667Y-25419D01*
X36659Y-25434D01*
X36644Y-25449D01*
X36622Y-25457D01*
X36584Y-25457D01*
X36727Y-25299D02*
X36824Y-25299D01*
X36772Y-25359D01*
X36794Y-25359D01*
X36809Y-25367D01*
X36817Y-25374D01*
X36824Y-25389D01*
X36824Y-25427D01*
X36817Y-25442D01*
X36809Y-25449D01*
X36794Y-25457D01*
X36749Y-25457D01*
X36734Y-25449D01*
X36727Y-25442D01*
X36570Y-25563D02*
X36495Y-25563D01*
X36487Y-25638D01*
X36495Y-25631D01*
X36510Y-25623D01*
X36547Y-25623D01*
X36562Y-25631D01*
X36570Y-25638D01*
X36577Y-25653D01*
X36577Y-25691D01*
X36570Y-25706D01*
X36562Y-25713D01*
X36547Y-25721D01*
X36510Y-25721D01*
X36495Y-25713D01*
X36487Y-25706D01*
X36645Y-25706D02*
X36652Y-25713D01*
X36645Y-25721D01*
X36637Y-25713D01*
X36645Y-25706D01*
X36645Y-25721D01*
X36727Y-25721D02*
X36757Y-25721D01*
X36772Y-25713D01*
X36780Y-25706D01*
X36795Y-25683D01*
X36802Y-25653D01*
X36802Y-25593D01*
X36795Y-25578D01*
X36787Y-25571D01*
X36772Y-25563D01*
X36742Y-25563D01*
X36727Y-25571D01*
X36720Y-25578D01*
X36712Y-25593D01*
X36712Y-25631D01*
X36720Y-25646D01*
X36727Y-25653D01*
X36742Y-25661D01*
X36772Y-25661D01*
X36787Y-25653D01*
X36795Y-25646D01*
X36802Y-25631D01*
X36847Y-25563D02*
X36900Y-25721D01*
X36952Y-25563D01*
G54D13*
X23476Y-41839D02*
X23476Y-41439D01*
X23628Y-41439D01*
X23666Y-41458D01*
X23685Y-41477D01*
X23704Y-41515D01*
X23704Y-41572D01*
X23685Y-41610D01*
X23666Y-41629D01*
X23628Y-41648D01*
X23476Y-41648D01*
X23933Y-41610D02*
X23895Y-41591D01*
X23876Y-41572D01*
X23857Y-41534D01*
X23857Y-41515D01*
X23876Y-41477D01*
X23895Y-41458D01*
X23933Y-41439D01*
X24009Y-41439D01*
X24047Y-41458D01*
X24066Y-41477D01*
X24085Y-41515D01*
X24085Y-41534D01*
X24066Y-41572D01*
X24047Y-41591D01*
X24009Y-41610D01*
X23933Y-41610D01*
X23895Y-41629D01*
X23876Y-41648D01*
X23857Y-41686D01*
X23857Y-41762D01*
X23876Y-41800D01*
X23895Y-41820D01*
X23933Y-41839D01*
X24009Y-41839D01*
X24047Y-41820D01*
X24066Y-41800D01*
X24085Y-41762D01*
X24085Y-41686D01*
X24066Y-41648D01*
X24047Y-41629D01*
X24009Y-41610D01*
X24626Y-44403D02*
X24626Y-44212D01*
X24740Y-44441D02*
X24340Y-44307D01*
X24740Y-44174D01*
X24340Y-44079D02*
X24340Y-43831D01*
X24493Y-43965D01*
X24493Y-43907D01*
X24512Y-43869D01*
X24531Y-43850D01*
X24569Y-43831D01*
X24664Y-43831D01*
X24702Y-43850D01*
X24721Y-43869D01*
X24740Y-43907D01*
X24740Y-44022D01*
X24721Y-44060D01*
X24702Y-44079D01*
X24588Y-43660D02*
X24588Y-43355D01*
X24626Y-43184D02*
X24626Y-42993D01*
X24740Y-43222D02*
X24340Y-43088D01*
X24740Y-42955D01*
X24340Y-42631D02*
X24340Y-42822D01*
X24531Y-42841D01*
X24512Y-42822D01*
X24493Y-42784D01*
X24493Y-42688D01*
X24512Y-42650D01*
X24531Y-42631D01*
X24569Y-42612D01*
X24664Y-42612D01*
X24702Y-42631D01*
X24721Y-42650D01*
X24740Y-42688D01*
X24740Y-42784D01*
X24721Y-42822D01*
X24702Y-42841D01*
G54D16*
X39191Y-22796D02*
X39591Y-23396D01*
X39591Y-22796D02*
X39191Y-23396D01*
X39791Y-22853D02*
X39820Y-22824D01*
X39877Y-22796D01*
X40020Y-22796D01*
X40077Y-22824D01*
X40105Y-22853D01*
X40134Y-22910D01*
X40134Y-22967D01*
X40105Y-23053D01*
X39762Y-23396D01*
X40134Y-23396D01*
X37548Y-34602D02*
X38148Y-34402D01*
X37548Y-34202D01*
X37576Y-33688D02*
X37548Y-33745D01*
X37548Y-33831D01*
X37576Y-33916D01*
X37634Y-33974D01*
X37691Y-34002D01*
X37805Y-34031D01*
X37891Y-34031D01*
X38005Y-34002D01*
X38062Y-33974D01*
X38119Y-33916D01*
X38148Y-33831D01*
X38148Y-33774D01*
X38119Y-33688D01*
X38091Y-33659D01*
X37891Y-33659D01*
X37891Y-33774D01*
X37976Y-33431D02*
X37976Y-33145D01*
X38148Y-33488D02*
X37548Y-33288D01*
X38148Y-33088D01*
X38205Y-33031D02*
X38205Y-32574D01*
X37548Y-32316D02*
X37548Y-32202D01*
X37576Y-32145D01*
X37634Y-32088D01*
X37748Y-32059D01*
X37948Y-32059D01*
X38062Y-32088D01*
X38119Y-32145D01*
X38148Y-32202D01*
X38148Y-32316D01*
X38119Y-32374D01*
X38062Y-32431D01*
X37948Y-32459D01*
X37748Y-32459D01*
X37634Y-32431D01*
X37576Y-32374D01*
X37548Y-32316D01*
X37548Y-31802D02*
X38034Y-31802D01*
X38091Y-31774D01*
X38119Y-31745D01*
X38148Y-31688D01*
X38148Y-31574D01*
X38119Y-31516D01*
X38091Y-31488D01*
X38034Y-31459D01*
X37548Y-31459D01*
X37548Y-31259D02*
X37548Y-30916D01*
X38148Y-31088D02*
X37548Y-31088D01*
X39191Y-36418D02*
X39591Y-37018D01*
X39591Y-36418D02*
X39191Y-37018D01*
X40134Y-37018D02*
X39791Y-37018D01*
X39962Y-37018D02*
X39962Y-36418D01*
X39905Y-36504D01*
X39848Y-36561D01*
X39791Y-36589D01*
X37312Y-46801D02*
X37912Y-46601D01*
X37312Y-46401D01*
X37340Y-45886D02*
X37312Y-45943D01*
X37312Y-46029D01*
X37340Y-46115D01*
X37397Y-46172D01*
X37455Y-46201D01*
X37569Y-46229D01*
X37655Y-46229D01*
X37769Y-46201D01*
X37826Y-46172D01*
X37883Y-46115D01*
X37912Y-46029D01*
X37912Y-45972D01*
X37883Y-45886D01*
X37855Y-45858D01*
X37655Y-45858D01*
X37655Y-45972D01*
X37740Y-45629D02*
X37740Y-45343D01*
X37912Y-45686D02*
X37312Y-45486D01*
X37912Y-45286D01*
X37969Y-45229D02*
X37969Y-44772D01*
X37912Y-44629D02*
X37312Y-44629D01*
X37912Y-44343D02*
X37312Y-44343D01*
X37912Y-44001D01*
X37312Y-44001D01*
G54D21*
X23971Y-31111D02*
X23671Y-31111D01*
X23671Y-31039D01*
X23686Y-30996D01*
X23714Y-30968D01*
X23743Y-30954D01*
X23800Y-30939D01*
X23843Y-30939D01*
X23900Y-30954D01*
X23928Y-30968D01*
X23957Y-30996D01*
X23971Y-31039D01*
X23971Y-31111D01*
X23971Y-30654D02*
X23971Y-30825D01*
X23971Y-30739D02*
X23671Y-30739D01*
X23714Y-30768D01*
X23743Y-30796D01*
X23757Y-30825D01*
X21924Y-29629D02*
X21624Y-29629D01*
X21896Y-29382D02*
X21910Y-29393D01*
X21924Y-29427D01*
X21924Y-29449D01*
X21910Y-29483D01*
X21881Y-29506D01*
X21853Y-29517D01*
X21796Y-29528D01*
X21753Y-29528D01*
X21696Y-29517D01*
X21667Y-29506D01*
X21638Y-29483D01*
X21624Y-29449D01*
X21624Y-29427D01*
X21638Y-29393D01*
X21653Y-29382D01*
X21924Y-29281D02*
X21624Y-29281D01*
X21624Y-29191D01*
X21638Y-29168D01*
X21653Y-29157D01*
X21681Y-29146D01*
X21724Y-29146D01*
X21753Y-29157D01*
X21767Y-29168D01*
X21781Y-29191D01*
X21781Y-29281D01*
G54D11*
X34036Y-42557D02*
X34036Y-42842D01*
X34017Y-42900D01*
X33979Y-42938D01*
X33922Y-42957D01*
X33884Y-42957D01*
X34227Y-42957D02*
X34227Y-42557D01*
X34379Y-42557D01*
X34417Y-42576D01*
X34436Y-42595D01*
X34455Y-42633D01*
X34455Y-42690D01*
X34436Y-42728D01*
X34417Y-42747D01*
X34379Y-42766D01*
X34227Y-42766D01*
X34589Y-42557D02*
X34836Y-42557D01*
X34703Y-42709D01*
X34760Y-42709D01*
X34798Y-42728D01*
X34817Y-42747D01*
X34836Y-42785D01*
X34836Y-42880D01*
X34817Y-42919D01*
X34798Y-42938D01*
X34760Y-42957D01*
X34646Y-42957D01*
X34608Y-42938D01*
X34589Y-42919D01*
X37476Y-42252D02*
X37286Y-42385D01*
X37476Y-42480D02*
X37076Y-42480D01*
X37076Y-42328D01*
X37095Y-42290D01*
X37114Y-42271D01*
X37153Y-42252D01*
X37210Y-42252D01*
X37248Y-42271D01*
X37267Y-42290D01*
X37286Y-42328D01*
X37286Y-42480D01*
X37267Y-42080D02*
X37267Y-41947D01*
X37476Y-41890D02*
X37476Y-42080D01*
X37076Y-42080D01*
X37076Y-41890D01*
X37095Y-41509D02*
X37076Y-41547D01*
X37076Y-41604D01*
X37095Y-41661D01*
X37134Y-41699D01*
X37172Y-41719D01*
X37248Y-41738D01*
X37305Y-41738D01*
X37381Y-41719D01*
X37419Y-41699D01*
X37457Y-41661D01*
X37476Y-41604D01*
X37476Y-41566D01*
X37457Y-41509D01*
X37438Y-41490D01*
X37305Y-41490D01*
X37305Y-41566D01*
X37076Y-41071D02*
X37476Y-40938D01*
X37076Y-40804D01*
X37076Y-40595D02*
X37076Y-40519D01*
X37095Y-40480D01*
X37134Y-40442D01*
X37210Y-40423D01*
X37343Y-40423D01*
X37419Y-40442D01*
X37457Y-40480D01*
X37476Y-40519D01*
X37476Y-40595D01*
X37457Y-40633D01*
X37419Y-40671D01*
X37343Y-40690D01*
X37210Y-40690D01*
X37134Y-40671D01*
X37095Y-40633D01*
X37076Y-40595D01*
X37476Y-40061D02*
X37476Y-40252D01*
X37076Y-40252D01*
X37438Y-39928D02*
X37457Y-39909D01*
X37476Y-39928D01*
X37457Y-39947D01*
X37438Y-39928D01*
X37476Y-39928D01*
X22393Y-40815D02*
X22393Y-40415D01*
X22546Y-40415D01*
X22584Y-40434D01*
X22603Y-40453D01*
X22622Y-40491D01*
X22622Y-40548D01*
X22603Y-40586D01*
X22584Y-40605D01*
X22546Y-40624D01*
X22393Y-40624D01*
X22984Y-40415D02*
X22793Y-40415D01*
X22774Y-40605D01*
X22793Y-40586D01*
X22831Y-40567D01*
X22927Y-40567D01*
X22965Y-40586D01*
X22984Y-40605D01*
X23003Y-40644D01*
X23003Y-40739D01*
X22984Y-40777D01*
X22965Y-40796D01*
X22927Y-40815D01*
X22831Y-40815D01*
X22793Y-40796D01*
X22774Y-40777D01*
G54D22*
X22091Y-44943D02*
X21691Y-44943D01*
X21691Y-44831D01*
X21710Y-44803D01*
X21729Y-44789D01*
X21767Y-44775D01*
X21824Y-44775D01*
X21862Y-44789D01*
X21881Y-44803D01*
X21900Y-44831D01*
X21900Y-44943D01*
X22091Y-44507D02*
X22091Y-44648D01*
X21691Y-44648D01*
X21881Y-44409D02*
X21881Y-44311D01*
X22091Y-44268D02*
X22091Y-44409D01*
X21691Y-44409D01*
X21691Y-44268D01*
X22091Y-44142D02*
X21691Y-44142D01*
X21691Y-44071D01*
X21710Y-44029D01*
X21748Y-44001D01*
X21786Y-43987D01*
X21862Y-43973D01*
X21919Y-43973D01*
X21995Y-43987D01*
X22033Y-44001D01*
X22071Y-44029D01*
X22091Y-44071D01*
X22091Y-44142D01*
X21671Y-43636D02*
X22186Y-43889D01*
X22091Y-43537D02*
X21691Y-43537D01*
X21691Y-43425D01*
X21710Y-43397D01*
X21729Y-43383D01*
X21767Y-43368D01*
X21824Y-43368D01*
X21862Y-43383D01*
X21881Y-43397D01*
X21900Y-43425D01*
X21900Y-43537D01*
X21881Y-43143D02*
X21900Y-43101D01*
X21919Y-43087D01*
X21957Y-43073D01*
X22014Y-43073D01*
X22052Y-43087D01*
X22071Y-43101D01*
X22091Y-43129D01*
X22091Y-43242D01*
X21691Y-43242D01*
X21691Y-43143D01*
X21710Y-43115D01*
X21729Y-43101D01*
X21767Y-43087D01*
X21805Y-43087D01*
X21843Y-43101D01*
X21862Y-43115D01*
X21881Y-43143D01*
X21881Y-43242D01*
X21691Y-42989D02*
X21691Y-42820D01*
X22091Y-42904D02*
X21691Y-42904D01*
X22091Y-42722D02*
X21691Y-42722D01*
X22091Y-42553D01*
X21691Y-42553D01*
X21671Y-42201D02*
X22186Y-42455D01*
X22091Y-41934D02*
X21900Y-42033D01*
X22091Y-42103D02*
X21691Y-42103D01*
X21691Y-41991D01*
X21710Y-41962D01*
X21729Y-41948D01*
X21767Y-41934D01*
X21824Y-41934D01*
X21862Y-41948D01*
X21881Y-41962D01*
X21900Y-41991D01*
X21900Y-42103D01*
X21881Y-41709D02*
X21900Y-41667D01*
X21919Y-41653D01*
X21957Y-41639D01*
X22014Y-41639D01*
X22052Y-41653D01*
X22071Y-41667D01*
X22091Y-41695D01*
X22091Y-41808D01*
X21691Y-41808D01*
X21691Y-41709D01*
X21710Y-41681D01*
X21729Y-41667D01*
X21767Y-41653D01*
X21805Y-41653D01*
X21843Y-41667D01*
X21862Y-41681D01*
X21881Y-41709D01*
X21881Y-41808D01*
X21691Y-41555D02*
X21691Y-41386D01*
X22091Y-41470D02*
X21691Y-41470D01*
X22091Y-41287D02*
X21691Y-41287D01*
X22091Y-41119D01*
X21691Y-41119D01*
G54D11*
X30582Y-28531D02*
X30582Y-28131D01*
X30735Y-28131D01*
X30773Y-28151D01*
X30792Y-28170D01*
X30811Y-28208D01*
X30811Y-28265D01*
X30792Y-28303D01*
X30773Y-28322D01*
X30735Y-28341D01*
X30582Y-28341D01*
X31154Y-28265D02*
X31154Y-28531D01*
X31058Y-28112D02*
X30963Y-28398D01*
X31211Y-28398D01*
X30327Y-31741D02*
X30346Y-31684D01*
X30346Y-31588D01*
X30327Y-31550D01*
X30308Y-31531D01*
X30270Y-31512D01*
X30232Y-31512D01*
X30194Y-31531D01*
X30175Y-31550D01*
X30156Y-31588D01*
X30137Y-31665D01*
X30118Y-31703D01*
X30099Y-31722D01*
X30061Y-31741D01*
X30023Y-31741D01*
X29985Y-31722D01*
X29965Y-31703D01*
X29946Y-31665D01*
X29946Y-31569D01*
X29965Y-31512D01*
X30346Y-31341D02*
X29946Y-31341D01*
X29946Y-31188D01*
X29965Y-31150D01*
X29985Y-31131D01*
X30023Y-31112D01*
X30080Y-31112D01*
X30118Y-31131D01*
X30137Y-31150D01*
X30156Y-31188D01*
X30156Y-31341D01*
X30346Y-30941D02*
X29946Y-30941D01*
X30346Y-30446D02*
X29946Y-30446D01*
X29946Y-30350D01*
X29965Y-30293D01*
X30004Y-30255D01*
X30042Y-30236D01*
X30118Y-30217D01*
X30175Y-30217D01*
X30251Y-30236D01*
X30289Y-30255D01*
X30327Y-30293D01*
X30346Y-30350D01*
X30346Y-30446D01*
X30137Y-30046D02*
X30137Y-29912D01*
X30346Y-29855D02*
X30346Y-30046D01*
X29946Y-30046D01*
X29946Y-29855D01*
X30137Y-29550D02*
X30156Y-29493D01*
X30175Y-29474D01*
X30213Y-29455D01*
X30270Y-29455D01*
X30308Y-29474D01*
X30327Y-29493D01*
X30346Y-29531D01*
X30346Y-29684D01*
X29946Y-29684D01*
X29946Y-29550D01*
X29965Y-29512D01*
X29985Y-29493D01*
X30023Y-29474D01*
X30061Y-29474D01*
X30099Y-29493D01*
X30118Y-29512D01*
X30137Y-29550D01*
X30137Y-29684D01*
X29946Y-29284D02*
X30270Y-29284D01*
X30308Y-29265D01*
X30327Y-29246D01*
X30346Y-29208D01*
X30346Y-29131D01*
X30327Y-29093D01*
X30308Y-29074D01*
X30270Y-29055D01*
X29946Y-29055D01*
X29965Y-28655D02*
X29946Y-28693D01*
X29946Y-28750D01*
X29965Y-28808D01*
X30004Y-28846D01*
X30042Y-28865D01*
X30118Y-28884D01*
X30175Y-28884D01*
X30251Y-28865D01*
X30289Y-28846D01*
X30327Y-28808D01*
X30346Y-28750D01*
X30346Y-28712D01*
X30327Y-28655D01*
X30308Y-28636D01*
X30175Y-28636D01*
X30175Y-28712D01*
X24839Y-32366D02*
X24439Y-32366D01*
X24439Y-32213D01*
X24458Y-32175D01*
X24477Y-32156D01*
X24515Y-32137D01*
X24572Y-32137D01*
X24610Y-32156D01*
X24629Y-32175D01*
X24648Y-32213D01*
X24648Y-32366D01*
X24439Y-32004D02*
X24439Y-31756D01*
X24591Y-31889D01*
X24591Y-31832D01*
X24610Y-31794D01*
X24629Y-31775D01*
X24667Y-31756D01*
X24762Y-31756D01*
X24800Y-31775D01*
X24820Y-31794D01*
X24839Y-31832D01*
X24839Y-31947D01*
X24820Y-31985D01*
X24800Y-32004D01*
X22130Y-34501D02*
X21730Y-34501D01*
X21730Y-34349D01*
X21749Y-34311D01*
X21768Y-34292D01*
X21806Y-34273D01*
X21863Y-34273D01*
X21901Y-34292D01*
X21920Y-34311D01*
X21939Y-34349D01*
X21939Y-34501D01*
X22130Y-33873D02*
X21939Y-34006D01*
X22130Y-34101D02*
X21730Y-34101D01*
X21730Y-33949D01*
X21749Y-33911D01*
X21768Y-33892D01*
X21806Y-33873D01*
X21863Y-33873D01*
X21901Y-33892D01*
X21920Y-33911D01*
X21939Y-33949D01*
X21939Y-34101D01*
X21730Y-33625D02*
X21730Y-33549D01*
X21749Y-33511D01*
X21787Y-33473D01*
X21863Y-33454D01*
X21997Y-33454D01*
X22073Y-33473D01*
X22111Y-33511D01*
X22130Y-33549D01*
X22130Y-33625D01*
X22111Y-33663D01*
X22073Y-33701D01*
X21997Y-33721D01*
X21863Y-33721D01*
X21787Y-33701D01*
X21749Y-33663D01*
X21730Y-33625D01*
X21749Y-33073D02*
X21730Y-33111D01*
X21730Y-33168D01*
X21749Y-33225D01*
X21787Y-33263D01*
X21825Y-33282D01*
X21901Y-33301D01*
X21958Y-33301D01*
X22035Y-33282D01*
X22073Y-33263D01*
X22111Y-33225D01*
X22130Y-33168D01*
X22130Y-33130D01*
X22111Y-33073D01*
X22092Y-33054D01*
X21958Y-33054D01*
X21958Y-33130D01*
X22111Y-32597D02*
X22130Y-32540D01*
X22130Y-32444D01*
X22111Y-32406D01*
X22092Y-32387D01*
X22054Y-32368D01*
X22016Y-32368D01*
X21978Y-32387D01*
X21958Y-32406D01*
X21939Y-32444D01*
X21920Y-32521D01*
X21901Y-32559D01*
X21882Y-32578D01*
X21844Y-32597D01*
X21806Y-32597D01*
X21768Y-32578D01*
X21749Y-32559D01*
X21730Y-32521D01*
X21730Y-32425D01*
X21749Y-32368D01*
X22130Y-32197D02*
X21730Y-32197D01*
X21730Y-32044D01*
X21749Y-32006D01*
X21768Y-31987D01*
X21806Y-31968D01*
X21863Y-31968D01*
X21901Y-31987D01*
X21920Y-32006D01*
X21939Y-32044D01*
X21939Y-32197D01*
X22130Y-31797D02*
X21730Y-31797D01*
X24878Y-36657D02*
X24478Y-36657D01*
X24478Y-36505D01*
X24497Y-36466D01*
X24516Y-36447D01*
X24554Y-36428D01*
X24611Y-36428D01*
X24649Y-36447D01*
X24668Y-36466D01*
X24687Y-36505D01*
X24687Y-36657D01*
X24878Y-36047D02*
X24878Y-36276D01*
X24878Y-36162D02*
X24478Y-36162D01*
X24535Y-36200D01*
X24573Y-36238D01*
X24592Y-36276D01*
X22051Y-38651D02*
X21651Y-38651D01*
X21937Y-38518D01*
X21651Y-38385D01*
X22051Y-38385D01*
X21842Y-38061D02*
X21861Y-38004D01*
X21880Y-37985D01*
X21918Y-37966D01*
X21975Y-37966D01*
X22013Y-37985D01*
X22032Y-38004D01*
X22051Y-38042D01*
X22051Y-38194D01*
X21651Y-38194D01*
X21651Y-38061D01*
X21670Y-38023D01*
X21689Y-38004D01*
X21727Y-37985D01*
X21765Y-37985D01*
X21804Y-38004D01*
X21823Y-38023D01*
X21842Y-38061D01*
X21842Y-38194D01*
X22051Y-37794D02*
X21651Y-37794D01*
X21651Y-37699D01*
X21670Y-37642D01*
X21708Y-37604D01*
X21746Y-37585D01*
X21823Y-37566D01*
X21880Y-37566D01*
X21956Y-37585D01*
X21994Y-37604D01*
X22032Y-37642D01*
X22051Y-37699D01*
X22051Y-37794D01*
X22032Y-37108D02*
X22051Y-37051D01*
X22051Y-36956D01*
X22032Y-36918D01*
X22013Y-36899D01*
X21975Y-36880D01*
X21937Y-36880D01*
X21899Y-36899D01*
X21880Y-36918D01*
X21861Y-36956D01*
X21842Y-37032D01*
X21823Y-37070D01*
X21804Y-37089D01*
X21765Y-37108D01*
X21727Y-37108D01*
X21689Y-37089D01*
X21670Y-37070D01*
X21651Y-37032D01*
X21651Y-36937D01*
X21670Y-36880D01*
X22051Y-36708D02*
X21651Y-36708D01*
X21651Y-36556D01*
X21670Y-36518D01*
X21689Y-36499D01*
X21727Y-36480D01*
X21785Y-36480D01*
X21823Y-36499D01*
X21842Y-36518D01*
X21861Y-36556D01*
X21861Y-36708D01*
X22051Y-36308D02*
X21651Y-36308D01*
G54D23*
X27809Y-44041D02*
X27749Y-43946D01*
X27706Y-44041D02*
X27706Y-43841D01*
X27775Y-43841D01*
X27792Y-43851D01*
X27800Y-43860D01*
X27809Y-43879D01*
X27809Y-43908D01*
X27800Y-43927D01*
X27792Y-43936D01*
X27775Y-43946D01*
X27706Y-43946D01*
X27869Y-43841D02*
X27980Y-43841D01*
X27920Y-43917D01*
X27946Y-43917D01*
X27963Y-43927D01*
X27972Y-43936D01*
X27980Y-43955D01*
X27980Y-44003D01*
X27972Y-44022D01*
X27963Y-44032D01*
X27946Y-44041D01*
X27895Y-44041D01*
X27878Y-44032D01*
X27869Y-44022D01*
X28135Y-43841D02*
X28100Y-43841D01*
X28083Y-43851D01*
X28075Y-43860D01*
X28058Y-43889D01*
X28049Y-43927D01*
X28049Y-44003D01*
X28058Y-44022D01*
X28066Y-44032D01*
X28083Y-44041D01*
X28118Y-44041D01*
X28135Y-44032D01*
X28143Y-44022D01*
X28152Y-44003D01*
X28152Y-43955D01*
X28143Y-43936D01*
X28135Y-43927D01*
X28118Y-43917D01*
X28083Y-43917D01*
X28066Y-43927D01*
X28058Y-43936D01*
X28049Y-43955D01*
G54D24*
X27756Y-44577D02*
X27756Y-44710D01*
X27728Y-44501D02*
X27700Y-44644D01*
X27773Y-44644D01*
X27807Y-44510D02*
X27885Y-44510D01*
X27835Y-44710D01*
X27953Y-44510D02*
X27964Y-44510D01*
X27975Y-44520D01*
X27981Y-44529D01*
X27987Y-44548D01*
X27992Y-44587D01*
X27992Y-44634D01*
X27987Y-44672D01*
X27981Y-44691D01*
X27975Y-44701D01*
X27964Y-44710D01*
X27953Y-44710D01*
X27942Y-44701D01*
X27936Y-44691D01*
X27930Y-44672D01*
X27925Y-44634D01*
X27925Y-44587D01*
X27930Y-44548D01*
X27936Y-44529D01*
X27942Y-44520D01*
X27953Y-44510D01*
X28110Y-44710D02*
X28071Y-44615D01*
X28043Y-44710D02*
X28043Y-44510D01*
X28088Y-44510D01*
X28099Y-44520D01*
X28105Y-44529D01*
X28110Y-44548D01*
X28110Y-44577D01*
X28105Y-44596D01*
X28099Y-44606D01*
X28088Y-44615D01*
X28043Y-44615D01*
G54D23*
X29128Y-44041D02*
X29068Y-43946D01*
X29025Y-44041D02*
X29025Y-43841D01*
X29094Y-43841D01*
X29111Y-43851D01*
X29119Y-43860D01*
X29128Y-43879D01*
X29128Y-43908D01*
X29119Y-43927D01*
X29111Y-43936D01*
X29094Y-43946D01*
X29025Y-43946D01*
X29188Y-43841D02*
X29299Y-43841D01*
X29239Y-43917D01*
X29265Y-43917D01*
X29282Y-43927D01*
X29291Y-43936D01*
X29299Y-43955D01*
X29299Y-44003D01*
X29291Y-44022D01*
X29282Y-44032D01*
X29265Y-44041D01*
X29214Y-44041D01*
X29196Y-44032D01*
X29188Y-44022D01*
X29462Y-43841D02*
X29376Y-43841D01*
X29368Y-43936D01*
X29376Y-43927D01*
X29394Y-43917D01*
X29436Y-43917D01*
X29454Y-43927D01*
X29462Y-43936D01*
X29471Y-43955D01*
X29471Y-44003D01*
X29462Y-44022D01*
X29454Y-44032D01*
X29436Y-44041D01*
X29394Y-44041D01*
X29376Y-44032D01*
X29368Y-44022D01*
G54D24*
X29095Y-44577D02*
X29095Y-44710D01*
X29066Y-44501D02*
X29038Y-44644D01*
X29111Y-44644D01*
X29145Y-44510D02*
X29224Y-44510D01*
X29173Y-44710D01*
X29291Y-44510D02*
X29303Y-44510D01*
X29314Y-44520D01*
X29320Y-44529D01*
X29325Y-44548D01*
X29331Y-44587D01*
X29331Y-44634D01*
X29325Y-44672D01*
X29320Y-44691D01*
X29314Y-44701D01*
X29303Y-44710D01*
X29291Y-44710D01*
X29280Y-44701D01*
X29275Y-44691D01*
X29269Y-44672D01*
X29263Y-44634D01*
X29263Y-44587D01*
X29269Y-44548D01*
X29275Y-44529D01*
X29280Y-44520D01*
X29291Y-44510D01*
X29449Y-44710D02*
X29410Y-44615D01*
X29381Y-44710D02*
X29381Y-44510D01*
X29426Y-44510D01*
X29438Y-44520D01*
X29443Y-44529D01*
X29449Y-44548D01*
X29449Y-44577D01*
X29443Y-44596D01*
X29438Y-44606D01*
X29426Y-44615D01*
X29381Y-44615D01*
G54D23*
X34036Y-44041D02*
X33976Y-43946D01*
X33934Y-44041D02*
X33934Y-43841D01*
X34002Y-43841D01*
X34019Y-43851D01*
X34028Y-43860D01*
X34036Y-43879D01*
X34036Y-43908D01*
X34028Y-43927D01*
X34019Y-43936D01*
X34002Y-43946D01*
X33934Y-43946D01*
X34096Y-43841D02*
X34208Y-43841D01*
X34148Y-43917D01*
X34174Y-43917D01*
X34191Y-43927D01*
X34199Y-43936D01*
X34208Y-43955D01*
X34208Y-44003D01*
X34199Y-44022D01*
X34191Y-44032D01*
X34174Y-44041D01*
X34122Y-44041D01*
X34105Y-44032D01*
X34096Y-44022D01*
G54D22*
X33977Y-44710D02*
X33887Y-44710D01*
X33932Y-44710D02*
X33932Y-44510D01*
X33917Y-44539D01*
X33902Y-44558D01*
X33887Y-44568D01*
X34075Y-44510D02*
X34090Y-44510D01*
X34105Y-44520D01*
X34112Y-44529D01*
X34120Y-44548D01*
X34127Y-44587D01*
X34127Y-44634D01*
X34120Y-44672D01*
X34112Y-44691D01*
X34105Y-44701D01*
X34090Y-44710D01*
X34075Y-44710D01*
X34060Y-44701D01*
X34052Y-44691D01*
X34045Y-44672D01*
X34037Y-44634D01*
X34037Y-44587D01*
X34045Y-44548D01*
X34052Y-44529D01*
X34060Y-44520D01*
X34075Y-44510D01*
X34195Y-44710D02*
X34195Y-44510D01*
X34285Y-44710D02*
X34217Y-44596D01*
X34285Y-44510D02*
X34195Y-44625D01*
G54D23*
X32573Y-44041D02*
X32513Y-43946D01*
X32470Y-44041D02*
X32470Y-43841D01*
X32538Y-43841D01*
X32556Y-43851D01*
X32564Y-43860D01*
X32573Y-43879D01*
X32573Y-43908D01*
X32564Y-43927D01*
X32556Y-43936D01*
X32538Y-43946D01*
X32470Y-43946D01*
X32641Y-43860D02*
X32650Y-43851D01*
X32667Y-43841D01*
X32710Y-43841D01*
X32727Y-43851D01*
X32736Y-43860D01*
X32744Y-43879D01*
X32744Y-43898D01*
X32736Y-43927D01*
X32633Y-44041D01*
X32744Y-44041D01*
X32898Y-43841D02*
X32864Y-43841D01*
X32847Y-43851D01*
X32838Y-43860D01*
X32821Y-43889D01*
X32813Y-43927D01*
X32813Y-44003D01*
X32821Y-44022D01*
X32830Y-44032D01*
X32847Y-44041D01*
X32881Y-44041D01*
X32898Y-44032D01*
X32907Y-44022D01*
X32916Y-44003D01*
X32916Y-43955D01*
X32907Y-43936D01*
X32898Y-43927D01*
X32881Y-43917D01*
X32847Y-43917D01*
X32830Y-43927D01*
X32821Y-43936D01*
X32813Y-43955D01*
G54D22*
X32599Y-44710D02*
X32509Y-44710D01*
X32554Y-44710D02*
X32554Y-44510D01*
X32539Y-44539D01*
X32524Y-44558D01*
X32509Y-44568D01*
X32697Y-44510D02*
X32712Y-44510D01*
X32727Y-44520D01*
X32734Y-44529D01*
X32742Y-44548D01*
X32749Y-44587D01*
X32749Y-44634D01*
X32742Y-44672D01*
X32734Y-44691D01*
X32727Y-44701D01*
X32712Y-44710D01*
X32697Y-44710D01*
X32682Y-44701D01*
X32674Y-44691D01*
X32667Y-44672D01*
X32659Y-44634D01*
X32659Y-44587D01*
X32667Y-44548D01*
X32674Y-44529D01*
X32682Y-44520D01*
X32697Y-44510D01*
X32817Y-44710D02*
X32817Y-44510D01*
X32907Y-44710D02*
X32839Y-44596D01*
X32907Y-44510D02*
X32817Y-44625D01*
G54D23*
X31884Y-44041D02*
X31824Y-43946D01*
X31781Y-44041D02*
X31781Y-43841D01*
X31850Y-43841D01*
X31867Y-43851D01*
X31875Y-43860D01*
X31884Y-43879D01*
X31884Y-43908D01*
X31875Y-43927D01*
X31867Y-43936D01*
X31850Y-43946D01*
X31781Y-43946D01*
X31952Y-43860D02*
X31961Y-43851D01*
X31978Y-43841D01*
X32021Y-43841D01*
X32038Y-43851D01*
X32047Y-43860D01*
X32055Y-43879D01*
X32055Y-43898D01*
X32047Y-43927D01*
X31944Y-44041D01*
X32055Y-44041D01*
X32115Y-43841D02*
X32235Y-43841D01*
X32158Y-44041D01*
G54D22*
X31891Y-44710D02*
X31801Y-44710D01*
X31846Y-44710D02*
X31846Y-44510D01*
X31831Y-44539D01*
X31816Y-44558D01*
X31801Y-44568D01*
X31988Y-44510D02*
X32003Y-44510D01*
X32018Y-44520D01*
X32026Y-44529D01*
X32033Y-44548D01*
X32041Y-44587D01*
X32041Y-44634D01*
X32033Y-44672D01*
X32026Y-44691D01*
X32018Y-44701D01*
X32003Y-44710D01*
X31988Y-44710D01*
X31973Y-44701D01*
X31966Y-44691D01*
X31958Y-44672D01*
X31951Y-44634D01*
X31951Y-44587D01*
X31958Y-44548D01*
X31966Y-44529D01*
X31973Y-44520D01*
X31988Y-44510D01*
X32108Y-44710D02*
X32108Y-44510D01*
X32198Y-44710D02*
X32131Y-44596D01*
X32198Y-44510D02*
X32108Y-44625D01*
G54D23*
X30506Y-44041D02*
X30446Y-43946D01*
X30403Y-44041D02*
X30403Y-43841D01*
X30472Y-43841D01*
X30489Y-43851D01*
X30497Y-43860D01*
X30506Y-43879D01*
X30506Y-43908D01*
X30497Y-43927D01*
X30489Y-43936D01*
X30472Y-43946D01*
X30403Y-43946D01*
X30566Y-43841D02*
X30677Y-43841D01*
X30617Y-43917D01*
X30643Y-43917D01*
X30660Y-43927D01*
X30669Y-43936D01*
X30677Y-43955D01*
X30677Y-44003D01*
X30669Y-44022D01*
X30660Y-44032D01*
X30643Y-44041D01*
X30592Y-44041D01*
X30574Y-44032D01*
X30566Y-44022D01*
X30832Y-43908D02*
X30832Y-44041D01*
X30789Y-43832D02*
X30746Y-43974D01*
X30857Y-43974D01*
G54D24*
X30473Y-44577D02*
X30473Y-44710D01*
X30444Y-44501D02*
X30416Y-44644D01*
X30489Y-44644D01*
X30523Y-44510D02*
X30602Y-44510D01*
X30551Y-44710D01*
X30669Y-44510D02*
X30681Y-44510D01*
X30692Y-44520D01*
X30697Y-44529D01*
X30703Y-44548D01*
X30709Y-44587D01*
X30709Y-44634D01*
X30703Y-44672D01*
X30697Y-44691D01*
X30692Y-44701D01*
X30681Y-44710D01*
X30669Y-44710D01*
X30658Y-44701D01*
X30652Y-44691D01*
X30647Y-44672D01*
X30641Y-44634D01*
X30641Y-44587D01*
X30647Y-44548D01*
X30652Y-44529D01*
X30658Y-44520D01*
X30669Y-44510D01*
X30827Y-44710D02*
X30787Y-44615D01*
X30759Y-44710D02*
X30759Y-44510D01*
X30804Y-44510D01*
X30816Y-44520D01*
X30821Y-44529D01*
X30827Y-44548D01*
X30827Y-44577D01*
X30821Y-44596D01*
X30816Y-44606D01*
X30804Y-44615D01*
X30759Y-44615D01*
G54D23*
X31175Y-44041D02*
X31115Y-43946D01*
X31072Y-44041D02*
X31072Y-43841D01*
X31141Y-43841D01*
X31158Y-43851D01*
X31167Y-43860D01*
X31175Y-43879D01*
X31175Y-43908D01*
X31167Y-43927D01*
X31158Y-43936D01*
X31141Y-43946D01*
X31072Y-43946D01*
X31235Y-43841D02*
X31347Y-43841D01*
X31287Y-43917D01*
X31312Y-43917D01*
X31329Y-43927D01*
X31338Y-43936D01*
X31347Y-43955D01*
X31347Y-44003D01*
X31338Y-44022D01*
X31329Y-44032D01*
X31312Y-44041D01*
X31261Y-44041D01*
X31244Y-44032D01*
X31235Y-44022D01*
X31407Y-43841D02*
X31518Y-43841D01*
X31458Y-43917D01*
X31484Y-43917D01*
X31501Y-43927D01*
X31509Y-43936D01*
X31518Y-43955D01*
X31518Y-44003D01*
X31509Y-44022D01*
X31501Y-44032D01*
X31484Y-44041D01*
X31432Y-44041D01*
X31415Y-44032D01*
X31407Y-44022D01*
G54D24*
X31181Y-44577D02*
X31181Y-44710D01*
X31153Y-44501D02*
X31125Y-44644D01*
X31198Y-44644D01*
X31232Y-44510D02*
X31311Y-44510D01*
X31260Y-44710D01*
X31378Y-44510D02*
X31389Y-44510D01*
X31401Y-44520D01*
X31406Y-44529D01*
X31412Y-44548D01*
X31417Y-44587D01*
X31417Y-44634D01*
X31412Y-44672D01*
X31406Y-44691D01*
X31401Y-44701D01*
X31389Y-44710D01*
X31378Y-44710D01*
X31367Y-44701D01*
X31361Y-44691D01*
X31356Y-44672D01*
X31350Y-44634D01*
X31350Y-44587D01*
X31356Y-44548D01*
X31361Y-44529D01*
X31367Y-44520D01*
X31378Y-44510D01*
X31535Y-44710D02*
X31496Y-44615D01*
X31468Y-44710D02*
X31468Y-44510D01*
X31513Y-44510D01*
X31524Y-44520D01*
X31530Y-44529D01*
X31535Y-44548D01*
X31535Y-44577D01*
X31530Y-44596D01*
X31524Y-44606D01*
X31513Y-44615D01*
X31468Y-44615D01*
G54D23*
X34640Y-44041D02*
X34580Y-43946D01*
X34537Y-44041D02*
X34537Y-43841D01*
X34605Y-43841D01*
X34623Y-43851D01*
X34631Y-43860D01*
X34640Y-43879D01*
X34640Y-43908D01*
X34631Y-43927D01*
X34623Y-43936D01*
X34605Y-43946D01*
X34537Y-43946D01*
X34700Y-43841D02*
X34811Y-43841D01*
X34751Y-43917D01*
X34777Y-43917D01*
X34794Y-43927D01*
X34803Y-43936D01*
X34811Y-43955D01*
X34811Y-44003D01*
X34803Y-44022D01*
X34794Y-44032D01*
X34777Y-44041D01*
X34725Y-44041D01*
X34708Y-44032D01*
X34700Y-44022D01*
X34983Y-44041D02*
X34880Y-44041D01*
X34931Y-44041D02*
X34931Y-43841D01*
X34914Y-43870D01*
X34897Y-43889D01*
X34880Y-43898D01*
G54D24*
X34606Y-44577D02*
X34606Y-44710D01*
X34578Y-44501D02*
X34550Y-44644D01*
X34623Y-44644D01*
X34657Y-44510D02*
X34736Y-44510D01*
X34685Y-44710D01*
X34803Y-44510D02*
X34814Y-44510D01*
X34826Y-44520D01*
X34831Y-44529D01*
X34837Y-44548D01*
X34843Y-44587D01*
X34843Y-44634D01*
X34837Y-44672D01*
X34831Y-44691D01*
X34826Y-44701D01*
X34814Y-44710D01*
X34803Y-44710D01*
X34792Y-44701D01*
X34786Y-44691D01*
X34781Y-44672D01*
X34775Y-44634D01*
X34775Y-44587D01*
X34781Y-44548D01*
X34786Y-44529D01*
X34792Y-44520D01*
X34803Y-44510D01*
X34961Y-44710D02*
X34921Y-44615D01*
X34893Y-44710D02*
X34893Y-44510D01*
X34938Y-44510D01*
X34949Y-44520D01*
X34955Y-44529D01*
X34961Y-44548D01*
X34961Y-44577D01*
X34955Y-44596D01*
X34949Y-44606D01*
X34938Y-44615D01*
X34893Y-44615D01*
G54D23*
X22985Y-28403D02*
X22925Y-28308D01*
X22882Y-28403D02*
X22882Y-28203D01*
X22951Y-28203D01*
X22968Y-28213D01*
X22977Y-28222D01*
X22985Y-28241D01*
X22985Y-28270D01*
X22977Y-28289D01*
X22968Y-28299D01*
X22951Y-28308D01*
X22882Y-28308D01*
X23140Y-28270D02*
X23140Y-28403D01*
X23097Y-28194D02*
X23054Y-28337D01*
X23165Y-28337D01*
G54D24*
X23679Y-28932D02*
X23813Y-28932D01*
X23603Y-28960D02*
X23746Y-28988D01*
X23746Y-28915D01*
X23613Y-28881D02*
X23613Y-28803D01*
X23813Y-28853D01*
X23613Y-28735D02*
X23613Y-28724D01*
X23622Y-28713D01*
X23632Y-28707D01*
X23651Y-28701D01*
X23689Y-28696D01*
X23737Y-28696D01*
X23775Y-28701D01*
X23794Y-28707D01*
X23803Y-28713D01*
X23813Y-28724D01*
X23813Y-28735D01*
X23803Y-28746D01*
X23794Y-28752D01*
X23775Y-28758D01*
X23737Y-28763D01*
X23689Y-28763D01*
X23651Y-28758D01*
X23632Y-28752D01*
X23622Y-28746D01*
X23613Y-28735D01*
X23813Y-28578D02*
X23717Y-28617D01*
X23813Y-28645D02*
X23613Y-28645D01*
X23613Y-28600D01*
X23622Y-28589D01*
X23632Y-28583D01*
X23651Y-28578D01*
X23679Y-28578D01*
X23698Y-28583D01*
X23708Y-28589D01*
X23717Y-28600D01*
X23717Y-28645D01*
G54D23*
X37202Y-30494D02*
X37107Y-30554D01*
X37202Y-30597D02*
X37002Y-30597D01*
X37002Y-30528D01*
X37012Y-30511D01*
X37022Y-30503D01*
X37041Y-30494D01*
X37069Y-30494D01*
X37088Y-30503D01*
X37098Y-30511D01*
X37107Y-30528D01*
X37107Y-30597D01*
X37002Y-30340D02*
X37002Y-30374D01*
X37012Y-30391D01*
X37022Y-30400D01*
X37050Y-30417D01*
X37088Y-30425D01*
X37164Y-30425D01*
X37183Y-30417D01*
X37193Y-30408D01*
X37202Y-30391D01*
X37202Y-30357D01*
X37193Y-30340D01*
X37183Y-30331D01*
X37164Y-30323D01*
X37117Y-30323D01*
X37098Y-30331D01*
X37088Y-30340D01*
X37079Y-30357D01*
X37079Y-30391D01*
X37088Y-30408D01*
X37098Y-30417D01*
X37117Y-30425D01*
G54D24*
X37656Y-30605D02*
X37789Y-30605D01*
X37580Y-30633D02*
X37722Y-30661D01*
X37722Y-30588D01*
X37589Y-30555D02*
X37589Y-30476D01*
X37789Y-30526D01*
X37589Y-30408D02*
X37589Y-30397D01*
X37599Y-30386D01*
X37608Y-30380D01*
X37627Y-30375D01*
X37665Y-30369D01*
X37713Y-30369D01*
X37751Y-30375D01*
X37770Y-30380D01*
X37780Y-30386D01*
X37789Y-30397D01*
X37789Y-30408D01*
X37780Y-30420D01*
X37770Y-30425D01*
X37751Y-30431D01*
X37713Y-30437D01*
X37665Y-30437D01*
X37627Y-30431D01*
X37608Y-30425D01*
X37599Y-30420D01*
X37589Y-30408D01*
X37789Y-30251D02*
X37694Y-30290D01*
X37789Y-30318D02*
X37589Y-30318D01*
X37589Y-30273D01*
X37599Y-30262D01*
X37608Y-30257D01*
X37627Y-30251D01*
X37656Y-30251D01*
X37675Y-30257D01*
X37684Y-30262D01*
X37694Y-30273D01*
X37694Y-30318D01*
G54D23*
X37017Y-35553D02*
X36957Y-35458D01*
X36914Y-35553D02*
X36914Y-35353D01*
X36982Y-35353D01*
X37000Y-35362D01*
X37008Y-35372D01*
X37017Y-35391D01*
X37017Y-35420D01*
X37008Y-35439D01*
X37000Y-35448D01*
X36982Y-35458D01*
X36914Y-35458D01*
X37188Y-35553D02*
X37085Y-35553D01*
X37137Y-35553D02*
X37137Y-35353D01*
X37120Y-35381D01*
X37102Y-35401D01*
X37085Y-35410D01*
G54D22*
X36418Y-35852D02*
X36328Y-35852D01*
X36373Y-35852D02*
X36373Y-35652D01*
X36358Y-35681D01*
X36343Y-35700D01*
X36328Y-35709D01*
X36516Y-35652D02*
X36531Y-35652D01*
X36546Y-35662D01*
X36553Y-35671D01*
X36561Y-35690D01*
X36568Y-35728D01*
X36568Y-35776D01*
X36561Y-35814D01*
X36553Y-35833D01*
X36546Y-35843D01*
X36531Y-35852D01*
X36516Y-35852D01*
X36501Y-35843D01*
X36493Y-35833D01*
X36486Y-35814D01*
X36478Y-35776D01*
X36478Y-35728D01*
X36486Y-35690D01*
X36493Y-35671D01*
X36501Y-35662D01*
X36516Y-35652D01*
X36636Y-35852D02*
X36636Y-35652D01*
X36726Y-35852D02*
X36658Y-35738D01*
X36726Y-35652D02*
X36636Y-35766D01*
G54D23*
X30914Y-36655D02*
X30854Y-36560D01*
X30812Y-36655D02*
X30812Y-36455D01*
X30880Y-36455D01*
X30897Y-36465D01*
X30906Y-36474D01*
X30914Y-36493D01*
X30914Y-36522D01*
X30906Y-36541D01*
X30897Y-36550D01*
X30880Y-36560D01*
X30812Y-36560D01*
X30983Y-36474D02*
X30992Y-36465D01*
X31009Y-36455D01*
X31052Y-36455D01*
X31069Y-36465D01*
X31077Y-36474D01*
X31086Y-36493D01*
X31086Y-36512D01*
X31077Y-36541D01*
X30974Y-36655D01*
X31086Y-36655D01*
G54D22*
X31391Y-37159D02*
X31391Y-37249D01*
X31391Y-37204D02*
X31191Y-37204D01*
X31220Y-37219D01*
X31239Y-37234D01*
X31249Y-37249D01*
X31191Y-37062D02*
X31191Y-37047D01*
X31201Y-37032D01*
X31211Y-37024D01*
X31230Y-37017D01*
X31268Y-37009D01*
X31315Y-37009D01*
X31353Y-37017D01*
X31372Y-37024D01*
X31382Y-37032D01*
X31391Y-37047D01*
X31391Y-37062D01*
X31382Y-37077D01*
X31372Y-37084D01*
X31353Y-37092D01*
X31315Y-37099D01*
X31268Y-37099D01*
X31230Y-37092D01*
X31211Y-37084D01*
X31201Y-37077D01*
X31191Y-37062D01*
X31391Y-36942D02*
X31191Y-36942D01*
X31391Y-36852D02*
X31277Y-36919D01*
X31191Y-36852D02*
X31306Y-36942D01*
G54D23*
X29856Y-44041D02*
X29796Y-43946D01*
X29753Y-44041D02*
X29753Y-43841D01*
X29822Y-43841D01*
X29839Y-43851D01*
X29848Y-43860D01*
X29856Y-43879D01*
X29856Y-43908D01*
X29848Y-43927D01*
X29839Y-43936D01*
X29822Y-43946D01*
X29753Y-43946D01*
X29925Y-43860D02*
X29933Y-43851D01*
X29951Y-43841D01*
X29993Y-43841D01*
X30011Y-43851D01*
X30019Y-43860D01*
X30028Y-43879D01*
X30028Y-43898D01*
X30019Y-43927D01*
X29916Y-44041D01*
X30028Y-44041D01*
X30131Y-43927D02*
X30113Y-43917D01*
X30105Y-43908D01*
X30096Y-43889D01*
X30096Y-43879D01*
X30105Y-43860D01*
X30113Y-43851D01*
X30131Y-43841D01*
X30165Y-43841D01*
X30182Y-43851D01*
X30191Y-43860D01*
X30199Y-43879D01*
X30199Y-43889D01*
X30191Y-43908D01*
X30182Y-43917D01*
X30165Y-43927D01*
X30131Y-43927D01*
X30113Y-43936D01*
X30105Y-43946D01*
X30096Y-43965D01*
X30096Y-44003D01*
X30105Y-44022D01*
X30113Y-44032D01*
X30131Y-44041D01*
X30165Y-44041D01*
X30182Y-44032D01*
X30191Y-44022D01*
X30199Y-44003D01*
X30199Y-43965D01*
X30191Y-43946D01*
X30182Y-43936D01*
X30165Y-43927D01*
G54D22*
X29844Y-44710D02*
X29754Y-44710D01*
X29799Y-44710D02*
X29799Y-44510D01*
X29784Y-44539D01*
X29769Y-44558D01*
X29754Y-44568D01*
X29941Y-44510D02*
X29956Y-44510D01*
X29971Y-44520D01*
X29979Y-44529D01*
X29986Y-44548D01*
X29994Y-44587D01*
X29994Y-44634D01*
X29986Y-44672D01*
X29979Y-44691D01*
X29971Y-44701D01*
X29956Y-44710D01*
X29941Y-44710D01*
X29926Y-44701D01*
X29919Y-44691D01*
X29911Y-44672D01*
X29904Y-44634D01*
X29904Y-44587D01*
X29911Y-44548D01*
X29919Y-44529D01*
X29926Y-44520D01*
X29941Y-44510D01*
X30061Y-44710D02*
X30061Y-44510D01*
X30151Y-44710D02*
X30083Y-44596D01*
X30151Y-44510D02*
X30061Y-44625D01*
G54D23*
X37010Y-37679D02*
X36950Y-37584D01*
X36907Y-37679D02*
X36907Y-37479D01*
X36975Y-37479D01*
X36993Y-37488D01*
X37001Y-37498D01*
X37010Y-37517D01*
X37010Y-37546D01*
X37001Y-37565D01*
X36993Y-37574D01*
X36975Y-37584D01*
X36907Y-37584D01*
X37078Y-37498D02*
X37087Y-37488D01*
X37104Y-37479D01*
X37147Y-37479D01*
X37164Y-37488D01*
X37173Y-37498D01*
X37181Y-37517D01*
X37181Y-37536D01*
X37173Y-37565D01*
X37070Y-37679D01*
X37181Y-37679D01*
X37344Y-37479D02*
X37258Y-37479D01*
X37250Y-37574D01*
X37258Y-37565D01*
X37275Y-37555D01*
X37318Y-37555D01*
X37335Y-37565D01*
X37344Y-37574D01*
X37353Y-37593D01*
X37353Y-37641D01*
X37344Y-37660D01*
X37335Y-37669D01*
X37318Y-37679D01*
X37275Y-37679D01*
X37258Y-37669D01*
X37250Y-37660D01*
G54D22*
X36321Y-37817D02*
X36418Y-37817D01*
X36366Y-37894D01*
X36388Y-37894D01*
X36403Y-37903D01*
X36411Y-37913D01*
X36418Y-37932D01*
X36418Y-37979D01*
X36411Y-37998D01*
X36403Y-38008D01*
X36388Y-38017D01*
X36343Y-38017D01*
X36328Y-38008D01*
X36321Y-37998D01*
X36471Y-37817D02*
X36568Y-37817D01*
X36516Y-37894D01*
X36538Y-37894D01*
X36553Y-37903D01*
X36561Y-37913D01*
X36568Y-37932D01*
X36568Y-37979D01*
X36561Y-37998D01*
X36553Y-38008D01*
X36538Y-38017D01*
X36493Y-38017D01*
X36478Y-38008D01*
X36471Y-37998D01*
X36726Y-38017D02*
X36673Y-37922D01*
X36636Y-38017D02*
X36636Y-37817D01*
X36696Y-37817D01*
X36711Y-37827D01*
X36718Y-37837D01*
X36726Y-37856D01*
X36726Y-37884D01*
X36718Y-37903D01*
X36711Y-37913D01*
X36696Y-37922D01*
X36636Y-37922D01*
G54D23*
X30907Y-35671D02*
X30847Y-35576D01*
X30805Y-35671D02*
X30805Y-35471D01*
X30873Y-35471D01*
X30890Y-35481D01*
X30899Y-35490D01*
X30907Y-35509D01*
X30907Y-35538D01*
X30899Y-35557D01*
X30890Y-35566D01*
X30873Y-35576D01*
X30805Y-35576D01*
X30976Y-35490D02*
X30985Y-35481D01*
X31002Y-35471D01*
X31045Y-35471D01*
X31062Y-35481D01*
X31070Y-35490D01*
X31079Y-35509D01*
X31079Y-35528D01*
X31070Y-35557D01*
X30967Y-35671D01*
X31079Y-35671D01*
X31233Y-35538D02*
X31233Y-35671D01*
X31190Y-35461D02*
X31147Y-35604D01*
X31259Y-35604D01*
G54D24*
X31191Y-36273D02*
X31191Y-36175D01*
X31268Y-36228D01*
X31268Y-36205D01*
X31277Y-36190D01*
X31287Y-36183D01*
X31306Y-36175D01*
X31353Y-36175D01*
X31372Y-36183D01*
X31382Y-36190D01*
X31391Y-36205D01*
X31391Y-36250D01*
X31382Y-36265D01*
X31372Y-36273D01*
X31191Y-36123D02*
X31191Y-36025D01*
X31268Y-36078D01*
X31268Y-36055D01*
X31277Y-36040D01*
X31287Y-36033D01*
X31306Y-36025D01*
X31353Y-36025D01*
X31372Y-36033D01*
X31382Y-36040D01*
X31391Y-36055D01*
X31391Y-36100D01*
X31382Y-36115D01*
X31372Y-36123D01*
X31391Y-35868D02*
X31296Y-35920D01*
X31391Y-35958D02*
X31191Y-35958D01*
X31191Y-35898D01*
X31201Y-35883D01*
X31211Y-35875D01*
X31230Y-35868D01*
X31258Y-35868D01*
X31277Y-35875D01*
X31287Y-35883D01*
X31296Y-35898D01*
X31296Y-35958D01*
G54D23*
X37010Y-36655D02*
X36950Y-36560D01*
X36907Y-36655D02*
X36907Y-36455D01*
X36975Y-36455D01*
X36993Y-36465D01*
X37001Y-36474D01*
X37010Y-36493D01*
X37010Y-36522D01*
X37001Y-36541D01*
X36993Y-36550D01*
X36975Y-36560D01*
X36907Y-36560D01*
X37078Y-36474D02*
X37087Y-36465D01*
X37104Y-36455D01*
X37147Y-36455D01*
X37164Y-36465D01*
X37173Y-36474D01*
X37181Y-36493D01*
X37181Y-36512D01*
X37173Y-36541D01*
X37070Y-36655D01*
X37181Y-36655D01*
X37241Y-36455D02*
X37353Y-36455D01*
X37293Y-36531D01*
X37318Y-36531D01*
X37335Y-36541D01*
X37344Y-36550D01*
X37353Y-36570D01*
X37353Y-36617D01*
X37344Y-36636D01*
X37335Y-36646D01*
X37318Y-36655D01*
X37267Y-36655D01*
X37250Y-36646D01*
X37241Y-36636D01*
G54D22*
X36321Y-36735D02*
X36418Y-36735D01*
X36366Y-36811D01*
X36388Y-36811D01*
X36403Y-36820D01*
X36411Y-36830D01*
X36418Y-36849D01*
X36418Y-36897D01*
X36411Y-36916D01*
X36403Y-36925D01*
X36388Y-36935D01*
X36343Y-36935D01*
X36328Y-36925D01*
X36321Y-36916D01*
X36471Y-36735D02*
X36568Y-36735D01*
X36516Y-36811D01*
X36538Y-36811D01*
X36553Y-36820D01*
X36561Y-36830D01*
X36568Y-36849D01*
X36568Y-36897D01*
X36561Y-36916D01*
X36553Y-36925D01*
X36538Y-36935D01*
X36493Y-36935D01*
X36478Y-36925D01*
X36471Y-36916D01*
X36726Y-36935D02*
X36673Y-36840D01*
X36636Y-36935D02*
X36636Y-36735D01*
X36696Y-36735D01*
X36711Y-36744D01*
X36718Y-36754D01*
X36726Y-36773D01*
X36726Y-36801D01*
X36718Y-36820D01*
X36711Y-36830D01*
X36696Y-36840D01*
X36636Y-36840D01*
G54D23*
X30907Y-34569D02*
X30847Y-34473D01*
X30805Y-34569D02*
X30805Y-34369D01*
X30873Y-34369D01*
X30890Y-34378D01*
X30899Y-34388D01*
X30907Y-34407D01*
X30907Y-34435D01*
X30899Y-34454D01*
X30890Y-34464D01*
X30873Y-34473D01*
X30805Y-34473D01*
X30976Y-34388D02*
X30985Y-34378D01*
X31002Y-34369D01*
X31045Y-34369D01*
X31062Y-34378D01*
X31070Y-34388D01*
X31079Y-34407D01*
X31079Y-34426D01*
X31070Y-34454D01*
X30967Y-34569D01*
X31079Y-34569D01*
X31147Y-34388D02*
X31156Y-34378D01*
X31173Y-34369D01*
X31216Y-34369D01*
X31233Y-34378D01*
X31242Y-34388D01*
X31250Y-34407D01*
X31250Y-34426D01*
X31242Y-34454D01*
X31139Y-34569D01*
X31250Y-34569D01*
G54D24*
X31191Y-35190D02*
X31191Y-35092D01*
X31268Y-35145D01*
X31268Y-35122D01*
X31277Y-35107D01*
X31287Y-35100D01*
X31306Y-35092D01*
X31353Y-35092D01*
X31372Y-35100D01*
X31382Y-35107D01*
X31391Y-35122D01*
X31391Y-35167D01*
X31382Y-35182D01*
X31372Y-35190D01*
X31191Y-35040D02*
X31191Y-34943D01*
X31268Y-34995D01*
X31268Y-34973D01*
X31277Y-34958D01*
X31287Y-34950D01*
X31306Y-34943D01*
X31353Y-34943D01*
X31372Y-34950D01*
X31382Y-34958D01*
X31391Y-34973D01*
X31391Y-35017D01*
X31382Y-35032D01*
X31372Y-35040D01*
X31391Y-34785D02*
X31296Y-34838D01*
X31391Y-34875D02*
X31191Y-34875D01*
X31191Y-34815D01*
X31201Y-34800D01*
X31211Y-34793D01*
X31230Y-34785D01*
X31258Y-34785D01*
X31277Y-34793D01*
X31287Y-34800D01*
X31296Y-34815D01*
X31296Y-34875D01*
G54D23*
X26293Y-39312D02*
X26198Y-39372D01*
X26293Y-39415D02*
X26093Y-39415D01*
X26093Y-39346D01*
X26103Y-39329D01*
X26112Y-39321D01*
X26131Y-39312D01*
X26160Y-39312D01*
X26179Y-39321D01*
X26188Y-39329D01*
X26198Y-39346D01*
X26198Y-39415D01*
X26293Y-39141D02*
X26293Y-39243D01*
X26293Y-39192D02*
X26093Y-39192D01*
X26122Y-39209D01*
X26141Y-39226D01*
X26150Y-39243D01*
X26093Y-38986D02*
X26093Y-39021D01*
X26103Y-39038D01*
X26112Y-39046D01*
X26141Y-39063D01*
X26179Y-39072D01*
X26255Y-39072D01*
X26274Y-39063D01*
X26284Y-39055D01*
X26293Y-39038D01*
X26293Y-39003D01*
X26284Y-38986D01*
X26274Y-38978D01*
X26255Y-38969D01*
X26207Y-38969D01*
X26188Y-38978D01*
X26179Y-38986D01*
X26169Y-39003D01*
X26169Y-39038D01*
X26179Y-39055D01*
X26188Y-39063D01*
X26207Y-39072D01*
G54D24*
X25604Y-39334D02*
X25604Y-39402D01*
X25604Y-39368D02*
X25404Y-39368D01*
X25433Y-39379D01*
X25452Y-39390D01*
X25461Y-39402D01*
X25404Y-39261D02*
X25404Y-39250D01*
X25414Y-39239D01*
X25423Y-39233D01*
X25442Y-39227D01*
X25480Y-39222D01*
X25528Y-39222D01*
X25566Y-39227D01*
X25585Y-39233D01*
X25595Y-39239D01*
X25604Y-39250D01*
X25604Y-39261D01*
X25595Y-39272D01*
X25585Y-39278D01*
X25566Y-39284D01*
X25528Y-39289D01*
X25480Y-39289D01*
X25442Y-39284D01*
X25423Y-39278D01*
X25414Y-39272D01*
X25404Y-39261D01*
X25404Y-39149D02*
X25404Y-39137D01*
X25414Y-39126D01*
X25423Y-39120D01*
X25442Y-39115D01*
X25480Y-39109D01*
X25528Y-39109D01*
X25566Y-39115D01*
X25585Y-39120D01*
X25595Y-39126D01*
X25604Y-39137D01*
X25604Y-39149D01*
X25595Y-39160D01*
X25585Y-39165D01*
X25566Y-39171D01*
X25528Y-39177D01*
X25480Y-39177D01*
X25442Y-39171D01*
X25423Y-39165D01*
X25414Y-39160D01*
X25404Y-39149D01*
X25604Y-38991D02*
X25509Y-39030D01*
X25604Y-39059D02*
X25404Y-39059D01*
X25404Y-39014D01*
X25414Y-39002D01*
X25423Y-38997D01*
X25442Y-38991D01*
X25471Y-38991D01*
X25490Y-38997D01*
X25499Y-39002D01*
X25509Y-39014D01*
X25509Y-39059D01*
G54D23*
X26293Y-38525D02*
X26198Y-38585D01*
X26293Y-38628D02*
X26093Y-38628D01*
X26093Y-38559D01*
X26103Y-38542D01*
X26112Y-38533D01*
X26131Y-38525D01*
X26160Y-38525D01*
X26179Y-38533D01*
X26188Y-38542D01*
X26198Y-38559D01*
X26198Y-38628D01*
X26293Y-38353D02*
X26293Y-38456D01*
X26293Y-38405D02*
X26093Y-38405D01*
X26122Y-38422D01*
X26141Y-38439D01*
X26150Y-38456D01*
X26179Y-38250D02*
X26169Y-38268D01*
X26160Y-38276D01*
X26141Y-38285D01*
X26131Y-38285D01*
X26112Y-38276D01*
X26103Y-38268D01*
X26093Y-38250D01*
X26093Y-38216D01*
X26103Y-38199D01*
X26112Y-38190D01*
X26131Y-38182D01*
X26141Y-38182D01*
X26160Y-38190D01*
X26169Y-38199D01*
X26179Y-38216D01*
X26179Y-38250D01*
X26188Y-38268D01*
X26198Y-38276D01*
X26217Y-38285D01*
X26255Y-38285D01*
X26274Y-38276D01*
X26284Y-38268D01*
X26293Y-38250D01*
X26293Y-38216D01*
X26284Y-38199D01*
X26274Y-38190D01*
X26255Y-38182D01*
X26217Y-38182D01*
X26198Y-38190D01*
X26188Y-38199D01*
X26179Y-38216D01*
G54D24*
X25604Y-38547D02*
X25604Y-38614D01*
X25604Y-38580D02*
X25404Y-38580D01*
X25433Y-38592D01*
X25452Y-38603D01*
X25461Y-38614D01*
X25404Y-38474D02*
X25404Y-38462D01*
X25414Y-38451D01*
X25423Y-38446D01*
X25442Y-38440D01*
X25480Y-38434D01*
X25528Y-38434D01*
X25566Y-38440D01*
X25585Y-38446D01*
X25595Y-38451D01*
X25604Y-38462D01*
X25604Y-38474D01*
X25595Y-38485D01*
X25585Y-38491D01*
X25566Y-38496D01*
X25528Y-38502D01*
X25480Y-38502D01*
X25442Y-38496D01*
X25423Y-38491D01*
X25414Y-38485D01*
X25404Y-38474D01*
X25404Y-38361D02*
X25404Y-38350D01*
X25414Y-38339D01*
X25423Y-38333D01*
X25442Y-38327D01*
X25480Y-38322D01*
X25528Y-38322D01*
X25566Y-38327D01*
X25585Y-38333D01*
X25595Y-38339D01*
X25604Y-38350D01*
X25604Y-38361D01*
X25595Y-38372D01*
X25585Y-38378D01*
X25566Y-38384D01*
X25528Y-38389D01*
X25480Y-38389D01*
X25442Y-38384D01*
X25423Y-38378D01*
X25414Y-38372D01*
X25404Y-38361D01*
X25604Y-38204D02*
X25509Y-38243D01*
X25604Y-38271D02*
X25404Y-38271D01*
X25404Y-38226D01*
X25414Y-38215D01*
X25423Y-38209D01*
X25442Y-38204D01*
X25471Y-38204D01*
X25490Y-38209D01*
X25499Y-38215D01*
X25509Y-38226D01*
X25509Y-38271D01*
G54D23*
X26293Y-40060D02*
X26198Y-40120D01*
X26293Y-40163D02*
X26093Y-40163D01*
X26093Y-40094D01*
X26103Y-40077D01*
X26112Y-40069D01*
X26131Y-40060D01*
X26160Y-40060D01*
X26179Y-40069D01*
X26188Y-40077D01*
X26198Y-40094D01*
X26198Y-40163D01*
X26293Y-39889D02*
X26293Y-39992D01*
X26293Y-39940D02*
X26093Y-39940D01*
X26122Y-39957D01*
X26141Y-39974D01*
X26150Y-39992D01*
X26160Y-39734D02*
X26293Y-39734D01*
X26084Y-39777D02*
X26226Y-39820D01*
X26226Y-39709D01*
G54D24*
X25604Y-40122D02*
X25604Y-40189D01*
X25604Y-40155D02*
X25404Y-40155D01*
X25433Y-40167D01*
X25452Y-40178D01*
X25461Y-40189D01*
X25404Y-40048D02*
X25404Y-40037D01*
X25414Y-40026D01*
X25423Y-40020D01*
X25442Y-40015D01*
X25480Y-40009D01*
X25528Y-40009D01*
X25566Y-40015D01*
X25585Y-40020D01*
X25595Y-40026D01*
X25604Y-40037D01*
X25604Y-40048D01*
X25595Y-40060D01*
X25585Y-40065D01*
X25566Y-40071D01*
X25528Y-40077D01*
X25480Y-40077D01*
X25442Y-40071D01*
X25423Y-40065D01*
X25414Y-40060D01*
X25404Y-40048D01*
X25404Y-39936D02*
X25404Y-39925D01*
X25414Y-39913D01*
X25423Y-39908D01*
X25442Y-39902D01*
X25480Y-39897D01*
X25528Y-39897D01*
X25566Y-39902D01*
X25585Y-39908D01*
X25595Y-39913D01*
X25604Y-39925D01*
X25604Y-39936D01*
X25595Y-39947D01*
X25585Y-39953D01*
X25566Y-39958D01*
X25528Y-39964D01*
X25480Y-39964D01*
X25442Y-39958D01*
X25423Y-39953D01*
X25414Y-39947D01*
X25404Y-39936D01*
X25604Y-39778D02*
X25509Y-39818D01*
X25604Y-39846D02*
X25404Y-39846D01*
X25404Y-39801D01*
X25414Y-39790D01*
X25423Y-39784D01*
X25442Y-39778D01*
X25471Y-39778D01*
X25490Y-39784D01*
X25499Y-39790D01*
X25509Y-39801D01*
X25509Y-39846D01*
G54D23*
X26293Y-33485D02*
X26198Y-33545D01*
X26293Y-33588D02*
X26093Y-33588D01*
X26093Y-33520D01*
X26103Y-33502D01*
X26112Y-33494D01*
X26131Y-33485D01*
X26160Y-33485D01*
X26179Y-33494D01*
X26188Y-33502D01*
X26198Y-33520D01*
X26198Y-33588D01*
X26293Y-33314D02*
X26293Y-33417D01*
X26293Y-33365D02*
X26093Y-33365D01*
X26122Y-33382D01*
X26141Y-33400D01*
X26150Y-33417D01*
X26293Y-33228D02*
X26293Y-33194D01*
X26284Y-33177D01*
X26274Y-33168D01*
X26245Y-33151D01*
X26207Y-33142D01*
X26131Y-33142D01*
X26112Y-33151D01*
X26103Y-33160D01*
X26093Y-33177D01*
X26093Y-33211D01*
X26103Y-33228D01*
X26112Y-33237D01*
X26131Y-33245D01*
X26179Y-33245D01*
X26198Y-33237D01*
X26207Y-33228D01*
X26217Y-33211D01*
X26217Y-33177D01*
X26207Y-33160D01*
X26198Y-33151D01*
X26179Y-33142D01*
G54D24*
X25584Y-33468D02*
X25584Y-33535D01*
X25584Y-33502D02*
X25384Y-33502D01*
X25413Y-33513D01*
X25432Y-33524D01*
X25442Y-33535D01*
X25384Y-33395D02*
X25384Y-33384D01*
X25394Y-33372D01*
X25403Y-33367D01*
X25422Y-33361D01*
X25461Y-33356D01*
X25508Y-33356D01*
X25546Y-33361D01*
X25565Y-33367D01*
X25575Y-33372D01*
X25584Y-33384D01*
X25584Y-33395D01*
X25575Y-33406D01*
X25565Y-33412D01*
X25546Y-33417D01*
X25508Y-33423D01*
X25461Y-33423D01*
X25422Y-33417D01*
X25403Y-33412D01*
X25394Y-33406D01*
X25384Y-33395D01*
X25384Y-33282D02*
X25384Y-33271D01*
X25394Y-33260D01*
X25403Y-33254D01*
X25422Y-33249D01*
X25461Y-33243D01*
X25508Y-33243D01*
X25546Y-33249D01*
X25565Y-33254D01*
X25575Y-33260D01*
X25584Y-33271D01*
X25584Y-33282D01*
X25575Y-33294D01*
X25565Y-33299D01*
X25546Y-33305D01*
X25508Y-33311D01*
X25461Y-33311D01*
X25422Y-33305D01*
X25403Y-33299D01*
X25394Y-33294D01*
X25384Y-33282D01*
X25584Y-33125D02*
X25489Y-33164D01*
X25584Y-33192D02*
X25384Y-33192D01*
X25384Y-33147D01*
X25394Y-33136D01*
X25403Y-33131D01*
X25422Y-33125D01*
X25451Y-33125D01*
X25470Y-33131D01*
X25480Y-33136D01*
X25489Y-33147D01*
X25489Y-33192D01*
G54D23*
X26293Y-34194D02*
X26198Y-34254D01*
X26293Y-34297D02*
X26093Y-34297D01*
X26093Y-34228D01*
X26103Y-34211D01*
X26112Y-34203D01*
X26131Y-34194D01*
X26160Y-34194D01*
X26179Y-34203D01*
X26188Y-34211D01*
X26198Y-34228D01*
X26198Y-34297D01*
X26293Y-34023D02*
X26293Y-34125D01*
X26293Y-34074D02*
X26093Y-34074D01*
X26122Y-34091D01*
X26141Y-34108D01*
X26150Y-34125D01*
X26093Y-33963D02*
X26093Y-33843D01*
X26293Y-33920D01*
G54D24*
X25584Y-34177D02*
X25584Y-34244D01*
X25584Y-34210D02*
X25384Y-34210D01*
X25413Y-34222D01*
X25432Y-34233D01*
X25442Y-34244D01*
X25384Y-34104D02*
X25384Y-34092D01*
X25394Y-34081D01*
X25403Y-34075D01*
X25422Y-34070D01*
X25461Y-34064D01*
X25508Y-34064D01*
X25546Y-34070D01*
X25565Y-34075D01*
X25575Y-34081D01*
X25584Y-34092D01*
X25584Y-34104D01*
X25575Y-34115D01*
X25565Y-34120D01*
X25546Y-34126D01*
X25508Y-34132D01*
X25461Y-34132D01*
X25422Y-34126D01*
X25403Y-34120D01*
X25394Y-34115D01*
X25384Y-34104D01*
X25384Y-33991D02*
X25384Y-33980D01*
X25394Y-33969D01*
X25403Y-33963D01*
X25422Y-33957D01*
X25461Y-33952D01*
X25508Y-33952D01*
X25546Y-33957D01*
X25565Y-33963D01*
X25575Y-33969D01*
X25584Y-33980D01*
X25584Y-33991D01*
X25575Y-34002D01*
X25565Y-34008D01*
X25546Y-34014D01*
X25508Y-34019D01*
X25461Y-34019D01*
X25422Y-34014D01*
X25403Y-34008D01*
X25394Y-34002D01*
X25384Y-33991D01*
X25584Y-33834D02*
X25489Y-33873D01*
X25584Y-33901D02*
X25384Y-33901D01*
X25384Y-33856D01*
X25394Y-33845D01*
X25403Y-33839D01*
X25422Y-33834D01*
X25451Y-33834D01*
X25470Y-33839D01*
X25480Y-33845D01*
X25489Y-33856D01*
X25489Y-33901D01*
G54D23*
X27120Y-44041D02*
X27060Y-43946D01*
X27017Y-44041D02*
X27017Y-43841D01*
X27086Y-43841D01*
X27103Y-43851D01*
X27111Y-43860D01*
X27120Y-43879D01*
X27120Y-43908D01*
X27111Y-43927D01*
X27103Y-43936D01*
X27086Y-43946D01*
X27017Y-43946D01*
X27180Y-43841D02*
X27291Y-43841D01*
X27231Y-43917D01*
X27257Y-43917D01*
X27274Y-43927D01*
X27283Y-43936D01*
X27291Y-43955D01*
X27291Y-44003D01*
X27283Y-44022D01*
X27274Y-44032D01*
X27257Y-44041D01*
X27206Y-44041D01*
X27189Y-44032D01*
X27180Y-44022D01*
X27403Y-43841D02*
X27420Y-43841D01*
X27437Y-43851D01*
X27446Y-43860D01*
X27454Y-43879D01*
X27463Y-43917D01*
X27463Y-43965D01*
X27454Y-44003D01*
X27446Y-44022D01*
X27437Y-44032D01*
X27420Y-44041D01*
X27403Y-44041D01*
X27386Y-44032D01*
X27377Y-44022D01*
X27369Y-44003D01*
X27360Y-43965D01*
X27360Y-43917D01*
X27369Y-43879D01*
X27377Y-43860D01*
X27386Y-43851D01*
X27403Y-43841D01*
G54D22*
X27127Y-44710D02*
X27037Y-44710D01*
X27082Y-44710D02*
X27082Y-44510D01*
X27067Y-44539D01*
X27052Y-44558D01*
X27037Y-44568D01*
X27224Y-44510D02*
X27239Y-44510D01*
X27254Y-44520D01*
X27262Y-44529D01*
X27269Y-44548D01*
X27277Y-44587D01*
X27277Y-44634D01*
X27269Y-44672D01*
X27262Y-44691D01*
X27254Y-44701D01*
X27239Y-44710D01*
X27224Y-44710D01*
X27209Y-44701D01*
X27202Y-44691D01*
X27194Y-44672D01*
X27187Y-44634D01*
X27187Y-44587D01*
X27194Y-44548D01*
X27202Y-44529D01*
X27209Y-44520D01*
X27224Y-44510D01*
X27344Y-44710D02*
X27344Y-44510D01*
X27434Y-44710D02*
X27367Y-44596D01*
X27434Y-44510D02*
X27344Y-44625D01*
G54D23*
X34214Y-39332D02*
X34154Y-39237D01*
X34112Y-39332D02*
X34112Y-39132D01*
X34180Y-39132D01*
X34197Y-39142D01*
X34206Y-39151D01*
X34214Y-39171D01*
X34214Y-39199D01*
X34206Y-39218D01*
X34197Y-39228D01*
X34180Y-39237D01*
X34112Y-39237D01*
X34386Y-39332D02*
X34283Y-39332D01*
X34334Y-39332D02*
X34334Y-39132D01*
X34317Y-39161D01*
X34300Y-39180D01*
X34283Y-39190D01*
X34446Y-39132D02*
X34557Y-39132D01*
X34497Y-39209D01*
X34523Y-39209D01*
X34540Y-39218D01*
X34549Y-39228D01*
X34557Y-39247D01*
X34557Y-39294D01*
X34549Y-39313D01*
X34540Y-39323D01*
X34523Y-39332D01*
X34472Y-39332D01*
X34454Y-39323D01*
X34446Y-39313D01*
G54D24*
X34262Y-39913D02*
X34252Y-39908D01*
X34243Y-39897D01*
X34243Y-39868D01*
X34252Y-39857D01*
X34262Y-39852D01*
X34281Y-39846D01*
X34300Y-39846D01*
X34328Y-39852D01*
X34443Y-39919D01*
X34443Y-39846D01*
X34443Y-39733D02*
X34443Y-39801D01*
X34443Y-39767D02*
X34243Y-39767D01*
X34271Y-39778D01*
X34290Y-39790D01*
X34300Y-39801D01*
X34243Y-39660D02*
X34243Y-39649D01*
X34252Y-39638D01*
X34262Y-39632D01*
X34281Y-39627D01*
X34319Y-39621D01*
X34366Y-39621D01*
X34405Y-39627D01*
X34424Y-39632D01*
X34433Y-39638D01*
X34443Y-39649D01*
X34443Y-39660D01*
X34433Y-39672D01*
X34424Y-39677D01*
X34405Y-39683D01*
X34366Y-39688D01*
X34319Y-39688D01*
X34281Y-39683D01*
X34262Y-39677D01*
X34252Y-39672D01*
X34243Y-39660D01*
X34443Y-39503D02*
X34347Y-39542D01*
X34443Y-39570D02*
X34243Y-39570D01*
X34243Y-39525D01*
X34252Y-39514D01*
X34262Y-39508D01*
X34281Y-39503D01*
X34309Y-39503D01*
X34328Y-39508D01*
X34338Y-39514D01*
X34347Y-39525D01*
X34347Y-39570D01*
G54D23*
X28498Y-44041D02*
X28438Y-43946D01*
X28395Y-44041D02*
X28395Y-43841D01*
X28464Y-43841D01*
X28481Y-43851D01*
X28489Y-43860D01*
X28498Y-43879D01*
X28498Y-43908D01*
X28489Y-43927D01*
X28481Y-43936D01*
X28464Y-43946D01*
X28395Y-43946D01*
X28567Y-43860D02*
X28575Y-43851D01*
X28592Y-43841D01*
X28635Y-43841D01*
X28652Y-43851D01*
X28661Y-43860D01*
X28669Y-43879D01*
X28669Y-43898D01*
X28661Y-43927D01*
X28558Y-44041D01*
X28669Y-44041D01*
X28755Y-44041D02*
X28789Y-44041D01*
X28807Y-44032D01*
X28815Y-44022D01*
X28832Y-43993D01*
X28841Y-43955D01*
X28841Y-43879D01*
X28832Y-43860D01*
X28824Y-43851D01*
X28807Y-43841D01*
X28772Y-43841D01*
X28755Y-43851D01*
X28747Y-43860D01*
X28738Y-43879D01*
X28738Y-43927D01*
X28747Y-43946D01*
X28755Y-43955D01*
X28772Y-43965D01*
X28807Y-43965D01*
X28824Y-43955D01*
X28832Y-43946D01*
X28841Y-43927D01*
G54D22*
X28505Y-44710D02*
X28415Y-44710D01*
X28460Y-44710D02*
X28460Y-44510D01*
X28445Y-44539D01*
X28430Y-44558D01*
X28415Y-44568D01*
X28602Y-44510D02*
X28617Y-44510D01*
X28632Y-44520D01*
X28640Y-44529D01*
X28647Y-44548D01*
X28655Y-44587D01*
X28655Y-44634D01*
X28647Y-44672D01*
X28640Y-44691D01*
X28632Y-44701D01*
X28617Y-44710D01*
X28602Y-44710D01*
X28587Y-44701D01*
X28580Y-44691D01*
X28572Y-44672D01*
X28565Y-44634D01*
X28565Y-44587D01*
X28572Y-44548D01*
X28580Y-44529D01*
X28587Y-44520D01*
X28602Y-44510D01*
X28722Y-44710D02*
X28722Y-44510D01*
X28812Y-44710D02*
X28745Y-44596D01*
X28812Y-44510D02*
X28722Y-44625D01*
G54D23*
X33249Y-43234D02*
X33189Y-43139D01*
X33146Y-43234D02*
X33146Y-43034D01*
X33215Y-43034D01*
X33232Y-43044D01*
X33240Y-43053D01*
X33249Y-43072D01*
X33249Y-43101D01*
X33240Y-43120D01*
X33232Y-43129D01*
X33215Y-43139D01*
X33146Y-43139D01*
X33335Y-43234D02*
X33369Y-43234D01*
X33386Y-43224D01*
X33395Y-43215D01*
X33412Y-43186D01*
X33420Y-43148D01*
X33420Y-43072D01*
X33412Y-43053D01*
X33403Y-43044D01*
X33386Y-43034D01*
X33352Y-43034D01*
X33335Y-43044D01*
X33326Y-43053D01*
X33318Y-43072D01*
X33318Y-43120D01*
X33326Y-43139D01*
X33335Y-43148D01*
X33352Y-43158D01*
X33386Y-43158D01*
X33403Y-43148D01*
X33412Y-43139D01*
X33420Y-43120D01*
G54D24*
X32853Y-42771D02*
X32986Y-42771D01*
X32776Y-42799D02*
X32919Y-42827D01*
X32919Y-42754D01*
X32786Y-42720D02*
X32786Y-42641D01*
X32986Y-42692D01*
X32786Y-42574D02*
X32786Y-42562D01*
X32795Y-42551D01*
X32805Y-42546D01*
X32824Y-42540D01*
X32862Y-42534D01*
X32910Y-42534D01*
X32948Y-42540D01*
X32967Y-42546D01*
X32976Y-42551D01*
X32986Y-42562D01*
X32986Y-42574D01*
X32976Y-42585D01*
X32967Y-42591D01*
X32948Y-42596D01*
X32910Y-42602D01*
X32862Y-42602D01*
X32824Y-42596D01*
X32805Y-42591D01*
X32795Y-42585D01*
X32786Y-42574D01*
X32986Y-42416D02*
X32891Y-42456D01*
X32986Y-42484D02*
X32786Y-42484D01*
X32786Y-42439D01*
X32795Y-42428D01*
X32805Y-42422D01*
X32824Y-42416D01*
X32853Y-42416D01*
X32872Y-42422D01*
X32881Y-42428D01*
X32891Y-42439D01*
X32891Y-42484D01*
G54D23*
X25198Y-28372D02*
X25138Y-28277D01*
X25095Y-28372D02*
X25095Y-28172D01*
X25164Y-28172D01*
X25181Y-28181D01*
X25189Y-28191D01*
X25198Y-28210D01*
X25198Y-28238D01*
X25189Y-28258D01*
X25181Y-28267D01*
X25164Y-28277D01*
X25095Y-28277D01*
X25258Y-28172D02*
X25378Y-28172D01*
X25301Y-28372D01*
G54D22*
X25309Y-28872D02*
X25309Y-28962D01*
X25309Y-28917D02*
X25109Y-28917D01*
X25137Y-28932D01*
X25156Y-28947D01*
X25166Y-28962D01*
X25109Y-28775D02*
X25109Y-28760D01*
X25118Y-28745D01*
X25128Y-28737D01*
X25147Y-28730D01*
X25185Y-28722D01*
X25233Y-28722D01*
X25271Y-28730D01*
X25290Y-28737D01*
X25299Y-28745D01*
X25309Y-28760D01*
X25309Y-28775D01*
X25299Y-28790D01*
X25290Y-28797D01*
X25271Y-28805D01*
X25233Y-28812D01*
X25185Y-28812D01*
X25147Y-28805D01*
X25128Y-28797D01*
X25118Y-28790D01*
X25109Y-28775D01*
X25309Y-28655D02*
X25109Y-28655D01*
X25309Y-28565D02*
X25195Y-28632D01*
X25109Y-28565D02*
X25223Y-28655D01*
G54D23*
X24896Y-31600D02*
X24836Y-31505D01*
X24793Y-31600D02*
X24793Y-31400D01*
X24861Y-31400D01*
X24878Y-31410D01*
X24887Y-31419D01*
X24896Y-31438D01*
X24896Y-31467D01*
X24887Y-31486D01*
X24878Y-31495D01*
X24861Y-31505D01*
X24793Y-31505D01*
X25067Y-31600D02*
X24964Y-31600D01*
X25016Y-31600D02*
X25016Y-31400D01*
X24998Y-31429D01*
X24981Y-31448D01*
X24964Y-31457D01*
X25178Y-31400D02*
X25196Y-31400D01*
X25213Y-31410D01*
X25221Y-31419D01*
X25230Y-31438D01*
X25238Y-31476D01*
X25238Y-31524D01*
X25230Y-31562D01*
X25221Y-31581D01*
X25213Y-31591D01*
X25196Y-31600D01*
X25178Y-31600D01*
X25161Y-31591D01*
X25153Y-31581D01*
X25144Y-31562D01*
X25136Y-31524D01*
X25136Y-31476D01*
X25144Y-31438D01*
X25153Y-31419D01*
X25161Y-31410D01*
X25178Y-31400D01*
G54D22*
X25092Y-31155D02*
X25092Y-31245D01*
X25092Y-31200D02*
X24892Y-31200D01*
X24921Y-31215D01*
X24940Y-31230D01*
X24949Y-31245D01*
X24892Y-31058D02*
X24892Y-31043D01*
X24902Y-31028D01*
X24911Y-31020D01*
X24930Y-31013D01*
X24968Y-31005D01*
X25016Y-31005D01*
X25054Y-31013D01*
X25073Y-31020D01*
X25083Y-31028D01*
X25092Y-31043D01*
X25092Y-31058D01*
X25083Y-31073D01*
X25073Y-31080D01*
X25054Y-31088D01*
X25016Y-31095D01*
X24968Y-31095D01*
X24930Y-31088D01*
X24911Y-31080D01*
X24902Y-31073D01*
X24892Y-31058D01*
X25092Y-30938D02*
X24892Y-30938D01*
X25092Y-30848D02*
X24978Y-30916D01*
X24892Y-30848D02*
X25007Y-30938D01*
G54D23*
X36380Y-39332D02*
X36320Y-39237D01*
X36277Y-39332D02*
X36277Y-39132D01*
X36346Y-39132D01*
X36363Y-39142D01*
X36371Y-39151D01*
X36380Y-39171D01*
X36380Y-39199D01*
X36371Y-39218D01*
X36363Y-39228D01*
X36346Y-39237D01*
X36277Y-39237D01*
X36551Y-39332D02*
X36448Y-39332D01*
X36500Y-39332D02*
X36500Y-39132D01*
X36483Y-39161D01*
X36466Y-39180D01*
X36448Y-39190D01*
X36723Y-39332D02*
X36620Y-39332D01*
X36671Y-39332D02*
X36671Y-39132D01*
X36654Y-39161D01*
X36637Y-39180D01*
X36620Y-39190D01*
G54D24*
X36408Y-39919D02*
X36408Y-39840D01*
X36608Y-39891D01*
X36408Y-39745D02*
X36408Y-39767D01*
X36418Y-39778D01*
X36427Y-39784D01*
X36456Y-39795D01*
X36494Y-39801D01*
X36570Y-39801D01*
X36589Y-39795D01*
X36598Y-39790D01*
X36608Y-39778D01*
X36608Y-39756D01*
X36598Y-39745D01*
X36589Y-39739D01*
X36570Y-39733D01*
X36522Y-39733D01*
X36503Y-39739D01*
X36494Y-39745D01*
X36484Y-39756D01*
X36484Y-39778D01*
X36494Y-39790D01*
X36503Y-39795D01*
X36522Y-39801D01*
X36494Y-39666D02*
X36484Y-39677D01*
X36475Y-39683D01*
X36456Y-39688D01*
X36446Y-39688D01*
X36427Y-39683D01*
X36418Y-39677D01*
X36408Y-39666D01*
X36408Y-39643D01*
X36418Y-39632D01*
X36427Y-39627D01*
X36446Y-39621D01*
X36456Y-39621D01*
X36475Y-39627D01*
X36484Y-39632D01*
X36494Y-39643D01*
X36494Y-39666D01*
X36503Y-39677D01*
X36513Y-39683D01*
X36532Y-39688D01*
X36570Y-39688D01*
X36589Y-39683D01*
X36598Y-39677D01*
X36608Y-39666D01*
X36608Y-39643D01*
X36598Y-39632D01*
X36589Y-39627D01*
X36570Y-39621D01*
X36532Y-39621D01*
X36513Y-39627D01*
X36503Y-39632D01*
X36494Y-39643D01*
X36608Y-39503D02*
X36513Y-39542D01*
X36608Y-39570D02*
X36408Y-39570D01*
X36408Y-39525D01*
X36418Y-39514D01*
X36427Y-39508D01*
X36446Y-39503D01*
X36475Y-39503D01*
X36494Y-39508D01*
X36503Y-39514D01*
X36513Y-39525D01*
X36513Y-39570D01*
G54D23*
X26293Y-34863D02*
X26198Y-34923D01*
X26293Y-34966D02*
X26093Y-34966D01*
X26093Y-34898D01*
X26103Y-34880D01*
X26112Y-34872D01*
X26131Y-34863D01*
X26160Y-34863D01*
X26179Y-34872D01*
X26188Y-34880D01*
X26198Y-34898D01*
X26198Y-34966D01*
X26293Y-34692D02*
X26293Y-34795D01*
X26293Y-34743D02*
X26093Y-34743D01*
X26122Y-34760D01*
X26141Y-34778D01*
X26150Y-34795D01*
X26093Y-34529D02*
X26093Y-34615D01*
X26188Y-34623D01*
X26179Y-34615D01*
X26169Y-34598D01*
X26169Y-34555D01*
X26179Y-34538D01*
X26188Y-34529D01*
X26207Y-34520D01*
X26255Y-34520D01*
X26274Y-34529D01*
X26284Y-34538D01*
X26293Y-34555D01*
X26293Y-34598D01*
X26284Y-34615D01*
X26274Y-34623D01*
G54D24*
X25584Y-34885D02*
X25584Y-34953D01*
X25584Y-34919D02*
X25384Y-34919D01*
X25413Y-34930D01*
X25432Y-34942D01*
X25442Y-34953D01*
X25384Y-34812D02*
X25384Y-34801D01*
X25394Y-34790D01*
X25403Y-34784D01*
X25422Y-34778D01*
X25461Y-34773D01*
X25508Y-34773D01*
X25546Y-34778D01*
X25565Y-34784D01*
X25575Y-34790D01*
X25584Y-34801D01*
X25584Y-34812D01*
X25575Y-34823D01*
X25565Y-34829D01*
X25546Y-34835D01*
X25508Y-34840D01*
X25461Y-34840D01*
X25422Y-34835D01*
X25403Y-34829D01*
X25394Y-34823D01*
X25384Y-34812D01*
X25384Y-34700D02*
X25384Y-34688D01*
X25394Y-34677D01*
X25403Y-34672D01*
X25422Y-34666D01*
X25461Y-34660D01*
X25508Y-34660D01*
X25546Y-34666D01*
X25565Y-34672D01*
X25575Y-34677D01*
X25584Y-34688D01*
X25584Y-34700D01*
X25575Y-34711D01*
X25565Y-34717D01*
X25546Y-34722D01*
X25508Y-34728D01*
X25461Y-34728D01*
X25422Y-34722D01*
X25403Y-34717D01*
X25394Y-34711D01*
X25384Y-34700D01*
X25584Y-34542D02*
X25489Y-34582D01*
X25584Y-34610D02*
X25384Y-34610D01*
X25384Y-34565D01*
X25394Y-34553D01*
X25403Y-34548D01*
X25422Y-34542D01*
X25451Y-34542D01*
X25470Y-34548D01*
X25480Y-34553D01*
X25489Y-34565D01*
X25489Y-34610D01*
G54D23*
X35238Y-39332D02*
X35178Y-39237D01*
X35135Y-39332D02*
X35135Y-39132D01*
X35204Y-39132D01*
X35221Y-39142D01*
X35230Y-39151D01*
X35238Y-39171D01*
X35238Y-39199D01*
X35230Y-39218D01*
X35221Y-39228D01*
X35204Y-39237D01*
X35135Y-39237D01*
X35410Y-39332D02*
X35307Y-39332D01*
X35358Y-39332D02*
X35358Y-39132D01*
X35341Y-39161D01*
X35324Y-39180D01*
X35307Y-39190D01*
X35478Y-39151D02*
X35487Y-39142D01*
X35504Y-39132D01*
X35547Y-39132D01*
X35564Y-39142D01*
X35572Y-39151D01*
X35581Y-39171D01*
X35581Y-39190D01*
X35572Y-39218D01*
X35470Y-39332D01*
X35581Y-39332D01*
G54D24*
X35392Y-39857D02*
X35525Y-39857D01*
X35316Y-39885D02*
X35459Y-39913D01*
X35459Y-39840D01*
X35325Y-39807D02*
X35325Y-39728D01*
X35525Y-39778D01*
X35325Y-39660D02*
X35325Y-39649D01*
X35335Y-39638D01*
X35344Y-39632D01*
X35363Y-39627D01*
X35402Y-39621D01*
X35449Y-39621D01*
X35487Y-39627D01*
X35506Y-39632D01*
X35516Y-39638D01*
X35525Y-39649D01*
X35525Y-39660D01*
X35516Y-39672D01*
X35506Y-39677D01*
X35487Y-39683D01*
X35449Y-39688D01*
X35402Y-39688D01*
X35363Y-39683D01*
X35344Y-39677D01*
X35335Y-39672D01*
X35325Y-39660D01*
X35525Y-39503D02*
X35430Y-39542D01*
X35525Y-39570D02*
X35325Y-39570D01*
X35325Y-39525D01*
X35335Y-39514D01*
X35344Y-39508D01*
X35363Y-39503D01*
X35392Y-39503D01*
X35411Y-39508D01*
X35421Y-39514D01*
X35430Y-39525D01*
X35430Y-39570D01*
G54D23*
X26262Y-41309D02*
X26272Y-41318D01*
X26281Y-41343D01*
X26281Y-41360D01*
X26272Y-41386D01*
X26253Y-41403D01*
X26234Y-41412D01*
X26196Y-41420D01*
X26167Y-41420D01*
X26129Y-41412D01*
X26110Y-41403D01*
X26091Y-41386D01*
X26081Y-41360D01*
X26081Y-41343D01*
X26091Y-41318D01*
X26100Y-41309D01*
X26100Y-41240D02*
X26091Y-41232D01*
X26081Y-41215D01*
X26081Y-41172D01*
X26091Y-41155D01*
X26100Y-41146D01*
X26119Y-41138D01*
X26138Y-41138D01*
X26167Y-41146D01*
X26281Y-41249D01*
X26281Y-41138D01*
X26904Y-41498D02*
X26904Y-41480D01*
X26914Y-41463D01*
X26923Y-41455D01*
X26942Y-41446D01*
X26980Y-41438D01*
X27028Y-41438D01*
X27066Y-41446D01*
X27085Y-41455D01*
X27095Y-41463D01*
X27104Y-41480D01*
X27104Y-41498D01*
X27095Y-41515D01*
X27085Y-41523D01*
X27066Y-41532D01*
X27028Y-41540D01*
X26980Y-41540D01*
X26942Y-41532D01*
X26923Y-41523D01*
X26914Y-41515D01*
X26904Y-41498D01*
X27085Y-41360D02*
X27095Y-41352D01*
X27104Y-41360D01*
X27095Y-41369D01*
X27085Y-41360D01*
X27104Y-41360D01*
X27104Y-41180D02*
X27104Y-41283D01*
X27104Y-41232D02*
X26904Y-41232D01*
X26933Y-41249D01*
X26952Y-41266D01*
X26961Y-41283D01*
X26971Y-41026D02*
X27104Y-41026D01*
X26971Y-41103D02*
X27076Y-41103D01*
X27095Y-41095D01*
X27104Y-41078D01*
X27104Y-41052D01*
X27095Y-41035D01*
X27085Y-41026D01*
X30914Y-37660D02*
X30906Y-37669D01*
X30880Y-37679D01*
X30863Y-37679D01*
X30837Y-37669D01*
X30820Y-37650D01*
X30812Y-37631D01*
X30803Y-37593D01*
X30803Y-37565D01*
X30812Y-37526D01*
X30820Y-37507D01*
X30837Y-37488D01*
X30863Y-37479D01*
X30880Y-37479D01*
X30906Y-37488D01*
X30914Y-37498D01*
X31086Y-37679D02*
X30983Y-37679D01*
X31034Y-37679D02*
X31034Y-37479D01*
X31017Y-37507D01*
X31000Y-37526D01*
X30983Y-37536D01*
G54D24*
X31219Y-38174D02*
X31219Y-38163D01*
X31229Y-38152D01*
X31238Y-38146D01*
X31257Y-38141D01*
X31295Y-38135D01*
X31343Y-38135D01*
X31381Y-38141D01*
X31400Y-38146D01*
X31410Y-38152D01*
X31419Y-38163D01*
X31419Y-38174D01*
X31410Y-38186D01*
X31400Y-38191D01*
X31381Y-38197D01*
X31343Y-38203D01*
X31295Y-38203D01*
X31257Y-38197D01*
X31238Y-38191D01*
X31229Y-38186D01*
X31219Y-38174D01*
X31400Y-38084D02*
X31410Y-38079D01*
X31419Y-38084D01*
X31410Y-38090D01*
X31400Y-38084D01*
X31419Y-38084D01*
X31419Y-37966D02*
X31419Y-38034D01*
X31419Y-38000D02*
X31219Y-38000D01*
X31248Y-38011D01*
X31267Y-38023D01*
X31276Y-38034D01*
X31286Y-37865D02*
X31419Y-37865D01*
X31286Y-37916D02*
X31390Y-37916D01*
X31410Y-37910D01*
X31419Y-37899D01*
X31419Y-37882D01*
X31410Y-37871D01*
X31400Y-37865D01*
G54D23*
X26970Y-36345D02*
X26961Y-36354D01*
X26935Y-36364D01*
X26918Y-36364D01*
X26892Y-36354D01*
X26875Y-36335D01*
X26867Y-36316D01*
X26858Y-36278D01*
X26858Y-36250D01*
X26867Y-36212D01*
X26875Y-36192D01*
X26892Y-36173D01*
X26918Y-36164D01*
X26935Y-36164D01*
X26961Y-36173D01*
X26970Y-36183D01*
X27030Y-36164D02*
X27141Y-36164D01*
X27081Y-36240D01*
X27107Y-36240D01*
X27124Y-36250D01*
X27132Y-36259D01*
X27141Y-36278D01*
X27141Y-36326D01*
X27132Y-36345D01*
X27124Y-36354D01*
X27107Y-36364D01*
X27055Y-36364D01*
X27038Y-36354D01*
X27030Y-36345D01*
X26880Y-35990D02*
X26880Y-35973D01*
X26890Y-35955D01*
X26900Y-35947D01*
X26919Y-35938D01*
X26957Y-35930D01*
X27004Y-35930D01*
X27042Y-35938D01*
X27061Y-35947D01*
X27071Y-35955D01*
X27080Y-35973D01*
X27080Y-35990D01*
X27071Y-36007D01*
X27061Y-36015D01*
X27042Y-36024D01*
X27004Y-36033D01*
X26957Y-36033D01*
X26919Y-36024D01*
X26900Y-36015D01*
X26890Y-36007D01*
X26880Y-35990D01*
X27061Y-35853D02*
X27071Y-35844D01*
X27080Y-35853D01*
X27071Y-35861D01*
X27061Y-35853D01*
X27080Y-35853D01*
X27080Y-35673D02*
X27080Y-35775D01*
X27080Y-35724D02*
X26880Y-35724D01*
X26909Y-35741D01*
X26928Y-35758D01*
X26938Y-35775D01*
X26947Y-35518D02*
X27080Y-35518D01*
X26947Y-35595D02*
X27052Y-35595D01*
X27071Y-35587D01*
X27080Y-35570D01*
X27080Y-35544D01*
X27071Y-35527D01*
X27061Y-35518D01*
X31938Y-43231D02*
X31929Y-43240D01*
X31904Y-43250D01*
X31887Y-43250D01*
X31861Y-43240D01*
X31844Y-43221D01*
X31835Y-43202D01*
X31827Y-43164D01*
X31827Y-43135D01*
X31835Y-43097D01*
X31844Y-43078D01*
X31861Y-43059D01*
X31887Y-43050D01*
X31904Y-43050D01*
X31929Y-43059D01*
X31938Y-43069D01*
X32092Y-43116D02*
X32092Y-43250D01*
X32049Y-43040D02*
X32007Y-43183D01*
X32118Y-43183D01*
X31750Y-42675D02*
X31750Y-42778D01*
X31750Y-42727D02*
X31550Y-42727D01*
X31578Y-42744D01*
X31597Y-42761D01*
X31607Y-42778D01*
X31616Y-42521D02*
X31750Y-42521D01*
X31616Y-42598D02*
X31721Y-42598D01*
X31740Y-42589D01*
X31750Y-42572D01*
X31750Y-42547D01*
X31740Y-42529D01*
X31731Y-42521D01*
G54D17*
X28153Y-40946D02*
X28153Y-41270D01*
X28174Y-41308D01*
X28196Y-41327D01*
X28238Y-41346D01*
X28324Y-41346D01*
X28367Y-41327D01*
X28388Y-41308D01*
X28410Y-41270D01*
X28410Y-40946D01*
X28860Y-41346D02*
X28603Y-41346D01*
X28731Y-41346D02*
X28731Y-40946D01*
X28688Y-41004D01*
X28646Y-41042D01*
X28603Y-41061D01*
X28128Y-40269D02*
X28128Y-40041D01*
X28528Y-40155D02*
X28128Y-40155D01*
X28128Y-39946D02*
X28528Y-39679D01*
X28128Y-39679D02*
X28528Y-39946D01*
X28318Y-39393D02*
X28337Y-39336D01*
X28356Y-39317D01*
X28394Y-39298D01*
X28451Y-39298D01*
X28489Y-39317D01*
X28508Y-39336D01*
X28528Y-39374D01*
X28528Y-39526D01*
X28128Y-39526D01*
X28128Y-39393D01*
X28147Y-39355D01*
X28166Y-39336D01*
X28204Y-39317D01*
X28242Y-39317D01*
X28280Y-39336D01*
X28299Y-39355D01*
X28318Y-39393D01*
X28318Y-39526D01*
X28128Y-39050D02*
X28128Y-39012D01*
X28147Y-38974D01*
X28166Y-38955D01*
X28204Y-38936D01*
X28280Y-38917D01*
X28375Y-38917D01*
X28451Y-38936D01*
X28489Y-38955D01*
X28508Y-38974D01*
X28528Y-39012D01*
X28528Y-39050D01*
X28508Y-39088D01*
X28489Y-39107D01*
X28451Y-39126D01*
X28375Y-39146D01*
X28280Y-39146D01*
X28204Y-39126D01*
X28166Y-39107D01*
X28147Y-39088D01*
X28128Y-39050D01*
X28528Y-38536D02*
X28528Y-38765D01*
X28528Y-38650D02*
X28128Y-38650D01*
X28185Y-38688D01*
X28223Y-38726D01*
X28242Y-38765D01*
X28128Y-38288D02*
X28128Y-38250D01*
X28147Y-38212D01*
X28166Y-38193D01*
X28204Y-38174D01*
X28280Y-38155D01*
X28375Y-38155D01*
X28451Y-38174D01*
X28489Y-38193D01*
X28508Y-38212D01*
X28528Y-38250D01*
X28528Y-38288D01*
X28508Y-38326D01*
X28489Y-38346D01*
X28451Y-38365D01*
X28375Y-38384D01*
X28280Y-38384D01*
X28204Y-38365D01*
X28166Y-38346D01*
X28147Y-38326D01*
X28128Y-38288D01*
X28261Y-37812D02*
X28528Y-37812D01*
X28108Y-37907D02*
X28394Y-38003D01*
X28394Y-37755D01*
X28528Y-37603D02*
X28128Y-37603D01*
X28128Y-37507D01*
X28147Y-37450D01*
X28185Y-37412D01*
X28223Y-37393D01*
X28299Y-37374D01*
X28356Y-37374D01*
X28432Y-37393D01*
X28470Y-37412D01*
X28508Y-37450D01*
X28528Y-37507D01*
X28528Y-37603D01*
X28153Y-35474D02*
X28153Y-35798D01*
X28174Y-35836D01*
X28196Y-35855D01*
X28238Y-35874D01*
X28324Y-35874D01*
X28367Y-35855D01*
X28388Y-35836D01*
X28410Y-35798D01*
X28410Y-35474D01*
X28603Y-35512D02*
X28624Y-35493D01*
X28667Y-35474D01*
X28774Y-35474D01*
X28817Y-35493D01*
X28838Y-35512D01*
X28860Y-35550D01*
X28860Y-35588D01*
X28838Y-35645D01*
X28581Y-35874D01*
X28860Y-35874D01*
X28128Y-34758D02*
X28128Y-34529D01*
X28528Y-34643D02*
X28128Y-34643D01*
X28128Y-34434D02*
X28528Y-34167D01*
X28128Y-34167D02*
X28528Y-34434D01*
X28318Y-33881D02*
X28337Y-33824D01*
X28356Y-33805D01*
X28394Y-33786D01*
X28451Y-33786D01*
X28489Y-33805D01*
X28508Y-33824D01*
X28528Y-33862D01*
X28528Y-34015D01*
X28128Y-34015D01*
X28128Y-33881D01*
X28147Y-33843D01*
X28166Y-33824D01*
X28204Y-33805D01*
X28242Y-33805D01*
X28280Y-33824D01*
X28299Y-33843D01*
X28318Y-33881D01*
X28318Y-34015D01*
X28128Y-33538D02*
X28128Y-33500D01*
X28147Y-33462D01*
X28166Y-33443D01*
X28204Y-33424D01*
X28280Y-33405D01*
X28375Y-33405D01*
X28451Y-33424D01*
X28489Y-33443D01*
X28508Y-33462D01*
X28528Y-33500D01*
X28528Y-33538D01*
X28508Y-33577D01*
X28489Y-33596D01*
X28451Y-33615D01*
X28375Y-33634D01*
X28280Y-33634D01*
X28204Y-33615D01*
X28166Y-33596D01*
X28147Y-33577D01*
X28128Y-33538D01*
X28528Y-33024D02*
X28528Y-33253D01*
X28528Y-33138D02*
X28128Y-33138D01*
X28185Y-33177D01*
X28223Y-33215D01*
X28242Y-33253D01*
X28128Y-32777D02*
X28128Y-32738D01*
X28147Y-32700D01*
X28166Y-32681D01*
X28204Y-32662D01*
X28280Y-32643D01*
X28375Y-32643D01*
X28451Y-32662D01*
X28489Y-32681D01*
X28508Y-32700D01*
X28528Y-32738D01*
X28528Y-32777D01*
X28508Y-32815D01*
X28489Y-32834D01*
X28451Y-32853D01*
X28375Y-32872D01*
X28280Y-32872D01*
X28204Y-32853D01*
X28166Y-32834D01*
X28147Y-32815D01*
X28128Y-32777D01*
X28261Y-32300D02*
X28528Y-32300D01*
X28108Y-32396D02*
X28394Y-32491D01*
X28394Y-32243D01*
X28528Y-32091D02*
X28128Y-32091D01*
X28128Y-31996D01*
X28147Y-31938D01*
X28185Y-31900D01*
X28223Y-31881D01*
X28299Y-31862D01*
X28356Y-31862D01*
X28432Y-31881D01*
X28470Y-31900D01*
X28508Y-31938D01*
X28528Y-31996D01*
X28528Y-32091D01*
X30452Y-41391D02*
X30816Y-41391D01*
X30859Y-41372D01*
X30881Y-41353D01*
X30902Y-41315D01*
X30902Y-41238D01*
X30881Y-41200D01*
X30859Y-41181D01*
X30816Y-41162D01*
X30452Y-41162D01*
X30452Y-41010D02*
X30452Y-40762D01*
X30624Y-40896D01*
X30624Y-40838D01*
X30645Y-40800D01*
X30666Y-40781D01*
X30709Y-40762D01*
X30816Y-40762D01*
X30859Y-40781D01*
X30881Y-40800D01*
X30902Y-40838D01*
X30902Y-40953D01*
X30881Y-40991D01*
X30859Y-41010D01*
X31220Y-40697D02*
X31030Y-40697D01*
X31030Y-40297D01*
X31354Y-40697D02*
X31354Y-40297D01*
X31487Y-40583D01*
X31620Y-40297D01*
X31620Y-40697D01*
X31773Y-40297D02*
X32020Y-40297D01*
X31887Y-40449D01*
X31944Y-40449D01*
X31982Y-40468D01*
X32001Y-40487D01*
X32020Y-40525D01*
X32020Y-40621D01*
X32001Y-40659D01*
X31982Y-40678D01*
X31944Y-40697D01*
X31830Y-40697D01*
X31792Y-40678D01*
X31773Y-40659D01*
X32401Y-40697D02*
X32173Y-40697D01*
X32287Y-40697D02*
X32287Y-40297D01*
X32249Y-40354D01*
X32211Y-40392D01*
X32173Y-40411D01*
X32535Y-40297D02*
X32801Y-40297D01*
X32630Y-40697D01*
X33144Y-40697D02*
X32954Y-40697D01*
X32954Y-40297D01*
G54D18*
X24401Y-30107D02*
X24387Y-30135D01*
X24359Y-30164D01*
X24316Y-30207D01*
X24301Y-30235D01*
X24301Y-30264D01*
X24373Y-30250D02*
X24359Y-30278D01*
X24330Y-30307D01*
X24273Y-30321D01*
X24173Y-30321D01*
X24116Y-30307D01*
X24087Y-30278D01*
X24073Y-30250D01*
X24073Y-30193D01*
X24087Y-30164D01*
X24116Y-30135D01*
X24173Y-30121D01*
X24273Y-30121D01*
X24330Y-30135D01*
X24359Y-30164D01*
X24373Y-30193D01*
X24373Y-30250D01*
X24373Y-29835D02*
X24373Y-30007D01*
X24373Y-29921D02*
X24073Y-29921D01*
X24116Y-29950D01*
X24144Y-29978D01*
X24159Y-30007D01*
G54D25*
X24589Y-29747D02*
X24597Y-29738D01*
X24612Y-29729D01*
X24649Y-29729D01*
X24664Y-29738D01*
X24672Y-29747D01*
X24679Y-29766D01*
X24679Y-29785D01*
X24672Y-29813D01*
X24582Y-29926D01*
X24679Y-29926D01*
X24747Y-29926D02*
X24747Y-29729D01*
X24837Y-29926D01*
X24837Y-29729D01*
X24897Y-29729D02*
X25002Y-29729D01*
X24934Y-29926D01*
X25092Y-29729D02*
X25107Y-29729D01*
X25122Y-29738D01*
X25129Y-29747D01*
X25137Y-29766D01*
X25144Y-29804D01*
X25144Y-29851D01*
X25137Y-29888D01*
X25129Y-29907D01*
X25122Y-29916D01*
X25107Y-29926D01*
X25092Y-29926D01*
X25077Y-29916D01*
X25069Y-29907D01*
X25062Y-29888D01*
X25054Y-29851D01*
X25054Y-29804D01*
X25062Y-29766D01*
X25069Y-29747D01*
X25077Y-29738D01*
X25092Y-29729D01*
X25242Y-29729D02*
X25257Y-29729D01*
X25272Y-29738D01*
X25279Y-29747D01*
X25287Y-29766D01*
X25294Y-29804D01*
X25294Y-29851D01*
X25287Y-29888D01*
X25279Y-29907D01*
X25272Y-29916D01*
X25257Y-29926D01*
X25242Y-29926D01*
X25227Y-29916D01*
X25219Y-29907D01*
X25212Y-29888D01*
X25204Y-29851D01*
X25204Y-29804D01*
X25212Y-29766D01*
X25219Y-29747D01*
X25227Y-29738D01*
X25242Y-29729D01*
X25354Y-29747D02*
X25362Y-29738D01*
X25377Y-29729D01*
X25414Y-29729D01*
X25429Y-29738D01*
X25437Y-29747D01*
X25444Y-29766D01*
X25444Y-29785D01*
X25437Y-29813D01*
X25347Y-29926D01*
X25444Y-29926D01*
G54D18*
X26853Y-30803D02*
X26824Y-30789D01*
X26796Y-30760D01*
X26753Y-30717D01*
X26724Y-30703D01*
X26696Y-30703D01*
X26710Y-30774D02*
X26681Y-30760D01*
X26653Y-30732D01*
X26639Y-30674D01*
X26639Y-30574D01*
X26653Y-30517D01*
X26681Y-30489D01*
X26710Y-30474D01*
X26767Y-30474D01*
X26796Y-30489D01*
X26824Y-30517D01*
X26839Y-30574D01*
X26839Y-30674D01*
X26824Y-30732D01*
X26796Y-30760D01*
X26767Y-30774D01*
X26710Y-30774D01*
X26953Y-30503D02*
X26967Y-30489D01*
X26996Y-30474D01*
X27067Y-30474D01*
X27096Y-30489D01*
X27110Y-30503D01*
X27124Y-30532D01*
X27124Y-30560D01*
X27110Y-30603D01*
X26939Y-30774D01*
X27124Y-30774D01*
G54D25*
X26468Y-30298D02*
X26459Y-30291D01*
X26449Y-30276D01*
X26449Y-30238D01*
X26459Y-30223D01*
X26468Y-30216D01*
X26487Y-30208D01*
X26505Y-30208D01*
X26534Y-30216D01*
X26646Y-30306D01*
X26646Y-30208D01*
X26646Y-30141D02*
X26449Y-30141D01*
X26646Y-30051D01*
X26449Y-30051D01*
X26449Y-29991D02*
X26449Y-29886D01*
X26646Y-29953D01*
X26449Y-29796D02*
X26449Y-29781D01*
X26459Y-29766D01*
X26468Y-29758D01*
X26487Y-29751D01*
X26524Y-29743D01*
X26571Y-29743D01*
X26609Y-29751D01*
X26627Y-29758D01*
X26637Y-29766D01*
X26646Y-29781D01*
X26646Y-29796D01*
X26637Y-29811D01*
X26627Y-29818D01*
X26609Y-29826D01*
X26571Y-29833D01*
X26524Y-29833D01*
X26487Y-29826D01*
X26468Y-29818D01*
X26459Y-29811D01*
X26449Y-29796D01*
X26449Y-29646D02*
X26449Y-29631D01*
X26459Y-29616D01*
X26468Y-29608D01*
X26487Y-29601D01*
X26524Y-29593D01*
X26571Y-29593D01*
X26609Y-29601D01*
X26627Y-29608D01*
X26637Y-29616D01*
X26646Y-29631D01*
X26646Y-29646D01*
X26637Y-29661D01*
X26627Y-29668D01*
X26609Y-29676D01*
X26571Y-29683D01*
X26524Y-29683D01*
X26487Y-29676D01*
X26468Y-29668D01*
X26459Y-29661D01*
X26449Y-29646D01*
X26468Y-29533D02*
X26459Y-29526D01*
X26449Y-29511D01*
X26449Y-29474D01*
X26459Y-29459D01*
X26468Y-29451D01*
X26487Y-29444D01*
X26505Y-29444D01*
X26534Y-29451D01*
X26646Y-29541D01*
X26646Y-29444D01*
G54D13*
X25859Y-42285D02*
X25859Y-42571D01*
X25840Y-42628D01*
X25802Y-42666D01*
X25745Y-42685D01*
X25707Y-42685D01*
X26050Y-42685D02*
X26050Y-42285D01*
X26202Y-42285D01*
X26240Y-42304D01*
X26259Y-42323D01*
X26278Y-42361D01*
X26278Y-42418D01*
X26259Y-42456D01*
X26240Y-42476D01*
X26202Y-42495D01*
X26050Y-42495D01*
X26431Y-42323D02*
X26450Y-42304D01*
X26488Y-42285D01*
X26583Y-42285D01*
X26621Y-42304D01*
X26640Y-42323D01*
X26659Y-42361D01*
X26659Y-42399D01*
X26640Y-42456D01*
X26411Y-42685D01*
X26659Y-42685D01*
X27009Y-43171D02*
X27142Y-43571D01*
X27275Y-43171D01*
X27637Y-43533D02*
X27618Y-43552D01*
X27561Y-43571D01*
X27523Y-43571D01*
X27466Y-43552D01*
X27428Y-43514D01*
X27409Y-43476D01*
X27390Y-43399D01*
X27390Y-43342D01*
X27409Y-43266D01*
X27428Y-43228D01*
X27466Y-43190D01*
X27523Y-43171D01*
X27561Y-43171D01*
X27618Y-43190D01*
X27637Y-43209D01*
X28037Y-43533D02*
X28018Y-43552D01*
X27961Y-43571D01*
X27923Y-43571D01*
X27866Y-43552D01*
X27828Y-43514D01*
X27809Y-43476D01*
X27790Y-43399D01*
X27790Y-43342D01*
X27809Y-43266D01*
X27828Y-43228D01*
X27866Y-43190D01*
X27923Y-43171D01*
X27961Y-43171D01*
X28018Y-43190D01*
X28037Y-43209D01*
X28342Y-43361D02*
X28209Y-43361D01*
X28209Y-43571D02*
X28209Y-43171D01*
X28399Y-43171D01*
X28837Y-43552D02*
X28894Y-43571D01*
X28990Y-43571D01*
X29028Y-43552D01*
X29047Y-43533D01*
X29066Y-43495D01*
X29066Y-43457D01*
X29047Y-43418D01*
X29028Y-43399D01*
X28990Y-43380D01*
X28913Y-43361D01*
X28875Y-43342D01*
X28856Y-43323D01*
X28837Y-43285D01*
X28837Y-43247D01*
X28856Y-43209D01*
X28875Y-43190D01*
X28913Y-43171D01*
X29009Y-43171D01*
X29066Y-43190D01*
X29466Y-43571D02*
X29332Y-43380D01*
X29237Y-43571D02*
X29237Y-43171D01*
X29390Y-43171D01*
X29428Y-43190D01*
X29447Y-43209D01*
X29466Y-43247D01*
X29466Y-43304D01*
X29447Y-43342D01*
X29428Y-43361D01*
X29390Y-43380D01*
X29237Y-43380D01*
X29866Y-43533D02*
X29847Y-43552D01*
X29790Y-43571D01*
X29751Y-43571D01*
X29694Y-43552D01*
X29656Y-43514D01*
X29637Y-43476D01*
X29618Y-43399D01*
X29618Y-43342D01*
X29637Y-43266D01*
X29656Y-43228D01*
X29694Y-43190D01*
X29751Y-43171D01*
X29790Y-43171D01*
X29847Y-43190D01*
X29866Y-43209D01*
X27450Y-30652D02*
X27736Y-30652D01*
X27793Y-30671D01*
X27831Y-30709D01*
X27850Y-30766D01*
X27850Y-30804D01*
X27850Y-30461D02*
X27450Y-30461D01*
X27450Y-30309D01*
X27469Y-30271D01*
X27488Y-30252D01*
X27527Y-30233D01*
X27584Y-30233D01*
X27622Y-30252D01*
X27641Y-30271D01*
X27660Y-30309D01*
X27660Y-30461D01*
X27850Y-29852D02*
X27850Y-30080D01*
X27850Y-29966D02*
X27450Y-29966D01*
X27508Y-30004D01*
X27546Y-30042D01*
X27565Y-30080D01*
X29504Y-30554D02*
X29104Y-30554D01*
X29466Y-30135D02*
X29485Y-30154D01*
X29504Y-30212D01*
X29504Y-30250D01*
X29485Y-30307D01*
X29447Y-30345D01*
X29409Y-30364D01*
X29332Y-30383D01*
X29275Y-30383D01*
X29199Y-30364D01*
X29161Y-30345D01*
X29123Y-30307D01*
X29104Y-30250D01*
X29104Y-30212D01*
X29123Y-30154D01*
X29142Y-30135D01*
X29504Y-29964D02*
X29104Y-29964D01*
X29104Y-29812D01*
X29123Y-29774D01*
X29142Y-29754D01*
X29180Y-29735D01*
X29237Y-29735D01*
X29275Y-29754D01*
X29294Y-29774D01*
X29313Y-29812D01*
X29313Y-29964D01*
X29485Y-29278D02*
X29504Y-29221D01*
X29504Y-29126D01*
X29485Y-29088D01*
X29466Y-29069D01*
X29428Y-29050D01*
X29390Y-29050D01*
X29352Y-29069D01*
X29332Y-29088D01*
X29313Y-29126D01*
X29294Y-29202D01*
X29275Y-29240D01*
X29256Y-29259D01*
X29218Y-29278D01*
X29180Y-29278D01*
X29142Y-29259D01*
X29123Y-29240D01*
X29104Y-29202D01*
X29104Y-29107D01*
X29123Y-29050D01*
X29294Y-28878D02*
X29294Y-28745D01*
X29504Y-28688D02*
X29504Y-28878D01*
X29104Y-28878D01*
X29104Y-28688D01*
X29504Y-28326D02*
X29504Y-28516D01*
X29104Y-28516D01*
X29466Y-28193D02*
X29485Y-28174D01*
X29504Y-28193D01*
X29485Y-28212D01*
X29466Y-28193D01*
X29504Y-28193D01*
X23648Y-45804D02*
X23619Y-45789D01*
X23576Y-45789D01*
X23534Y-45804D01*
X23505Y-45832D01*
X23491Y-45861D01*
X23476Y-45918D01*
X23476Y-45961D01*
X23491Y-46018D01*
X23505Y-46047D01*
X23534Y-46075D01*
X23576Y-46089D01*
X23605Y-46089D01*
X23648Y-46075D01*
X23662Y-46061D01*
X23662Y-45961D01*
X23605Y-45961D01*
X23948Y-46089D02*
X23776Y-46089D01*
X23862Y-46089D02*
X23862Y-45789D01*
X23834Y-45832D01*
X23805Y-45861D01*
X23776Y-45875D01*
X21835Y-46098D02*
X21821Y-46127D01*
X21821Y-46170D01*
X21835Y-46212D01*
X21864Y-46241D01*
X21892Y-46255D01*
X21950Y-46270D01*
X21992Y-46270D01*
X22050Y-46255D01*
X22078Y-46241D01*
X22107Y-46212D01*
X22121Y-46170D01*
X22121Y-46141D01*
X22107Y-46098D01*
X22092Y-46084D01*
X21992Y-46084D01*
X21992Y-46141D01*
X22121Y-45955D02*
X21821Y-45955D01*
X22121Y-45784D01*
X21821Y-45784D01*
X22121Y-45641D02*
X21821Y-45641D01*
X21821Y-45570D01*
X21835Y-45527D01*
X21864Y-45498D01*
X21892Y-45484D01*
X21950Y-45470D01*
X21992Y-45470D01*
X22050Y-45484D01*
X22078Y-45498D01*
X22107Y-45527D01*
X22121Y-45570D01*
X22121Y-45641D01*
G54D23*
X37202Y-29722D02*
X37107Y-29782D01*
X37202Y-29825D02*
X37002Y-29825D01*
X37002Y-29757D01*
X37012Y-29740D01*
X37022Y-29731D01*
X37041Y-29722D01*
X37069Y-29722D01*
X37088Y-29731D01*
X37098Y-29740D01*
X37107Y-29757D01*
X37107Y-29825D01*
X37002Y-29560D02*
X37002Y-29645D01*
X37098Y-29654D01*
X37088Y-29645D01*
X37079Y-29628D01*
X37079Y-29585D01*
X37088Y-29568D01*
X37098Y-29560D01*
X37117Y-29551D01*
X37164Y-29551D01*
X37183Y-29560D01*
X37193Y-29568D01*
X37202Y-29585D01*
X37202Y-29628D01*
X37193Y-29645D01*
X37183Y-29654D01*
G54D24*
X37656Y-29818D02*
X37789Y-29818D01*
X37580Y-29846D02*
X37722Y-29874D01*
X37722Y-29801D01*
X37589Y-29767D02*
X37589Y-29688D01*
X37789Y-29739D01*
X37589Y-29621D02*
X37589Y-29610D01*
X37599Y-29598D01*
X37608Y-29593D01*
X37627Y-29587D01*
X37665Y-29582D01*
X37713Y-29582D01*
X37751Y-29587D01*
X37770Y-29593D01*
X37780Y-29598D01*
X37789Y-29610D01*
X37789Y-29621D01*
X37780Y-29632D01*
X37770Y-29638D01*
X37751Y-29643D01*
X37713Y-29649D01*
X37665Y-29649D01*
X37627Y-29643D01*
X37608Y-29638D01*
X37599Y-29632D01*
X37589Y-29621D01*
X37789Y-29464D02*
X37694Y-29503D01*
X37789Y-29531D02*
X37589Y-29531D01*
X37589Y-29486D01*
X37599Y-29475D01*
X37608Y-29469D01*
X37627Y-29464D01*
X37656Y-29464D01*
X37675Y-29469D01*
X37684Y-29475D01*
X37694Y-29486D01*
X37694Y-29531D01*
G54D23*
X26261Y-28372D02*
X26201Y-28277D01*
X26158Y-28372D02*
X26158Y-28172D01*
X26227Y-28172D01*
X26244Y-28181D01*
X26252Y-28191D01*
X26261Y-28210D01*
X26261Y-28238D01*
X26252Y-28258D01*
X26244Y-28267D01*
X26227Y-28277D01*
X26158Y-28277D01*
X26364Y-28258D02*
X26347Y-28248D01*
X26338Y-28238D01*
X26329Y-28219D01*
X26329Y-28210D01*
X26338Y-28191D01*
X26347Y-28181D01*
X26364Y-28172D01*
X26398Y-28172D01*
X26415Y-28181D01*
X26424Y-28191D01*
X26432Y-28210D01*
X26432Y-28219D01*
X26424Y-28238D01*
X26415Y-28248D01*
X26398Y-28258D01*
X26364Y-28258D01*
X26347Y-28267D01*
X26338Y-28277D01*
X26329Y-28296D01*
X26329Y-28334D01*
X26338Y-28353D01*
X26347Y-28362D01*
X26364Y-28372D01*
X26398Y-28372D01*
X26415Y-28362D01*
X26424Y-28353D01*
X26432Y-28334D01*
X26432Y-28296D01*
X26424Y-28277D01*
X26415Y-28267D01*
X26398Y-28258D01*
G54D22*
X26411Y-28872D02*
X26411Y-28962D01*
X26411Y-28917D02*
X26211Y-28917D01*
X26240Y-28932D01*
X26259Y-28947D01*
X26268Y-28962D01*
X26211Y-28775D02*
X26211Y-28760D01*
X26221Y-28745D01*
X26230Y-28737D01*
X26249Y-28730D01*
X26287Y-28722D01*
X26335Y-28722D01*
X26373Y-28730D01*
X26392Y-28737D01*
X26402Y-28745D01*
X26411Y-28760D01*
X26411Y-28775D01*
X26402Y-28790D01*
X26392Y-28797D01*
X26373Y-28805D01*
X26335Y-28812D01*
X26287Y-28812D01*
X26249Y-28805D01*
X26230Y-28797D01*
X26221Y-28790D01*
X26211Y-28775D01*
X26411Y-28655D02*
X26211Y-28655D01*
X26411Y-28565D02*
X26297Y-28632D01*
X26211Y-28565D02*
X26325Y-28655D01*
G54D23*
X33262Y-44041D02*
X33202Y-43946D01*
X33159Y-44041D02*
X33159Y-43841D01*
X33227Y-43841D01*
X33245Y-43851D01*
X33253Y-43860D01*
X33262Y-43879D01*
X33262Y-43908D01*
X33253Y-43927D01*
X33245Y-43936D01*
X33227Y-43946D01*
X33159Y-43946D01*
X33322Y-43841D02*
X33433Y-43841D01*
X33373Y-43917D01*
X33399Y-43917D01*
X33416Y-43927D01*
X33425Y-43936D01*
X33433Y-43955D01*
X33433Y-44003D01*
X33425Y-44022D01*
X33416Y-44032D01*
X33399Y-44041D01*
X33347Y-44041D01*
X33330Y-44032D01*
X33322Y-44022D01*
X33502Y-43860D02*
X33510Y-43851D01*
X33527Y-43841D01*
X33570Y-43841D01*
X33587Y-43851D01*
X33596Y-43860D01*
X33605Y-43879D01*
X33605Y-43898D01*
X33596Y-43927D01*
X33493Y-44041D01*
X33605Y-44041D01*
G54D24*
X33228Y-44577D02*
X33228Y-44710D01*
X33200Y-44501D02*
X33172Y-44644D01*
X33245Y-44644D01*
X33279Y-44510D02*
X33358Y-44510D01*
X33307Y-44710D01*
X33425Y-44510D02*
X33437Y-44510D01*
X33448Y-44520D01*
X33453Y-44529D01*
X33459Y-44548D01*
X33465Y-44587D01*
X33465Y-44634D01*
X33459Y-44672D01*
X33453Y-44691D01*
X33448Y-44701D01*
X33437Y-44710D01*
X33425Y-44710D01*
X33414Y-44701D01*
X33408Y-44691D01*
X33403Y-44672D01*
X33397Y-44634D01*
X33397Y-44587D01*
X33403Y-44548D01*
X33408Y-44529D01*
X33414Y-44520D01*
X33425Y-44510D01*
X33583Y-44710D02*
X33543Y-44615D01*
X33515Y-44710D02*
X33515Y-44510D01*
X33560Y-44510D01*
X33571Y-44520D01*
X33577Y-44529D01*
X33583Y-44548D01*
X33583Y-44577D01*
X33577Y-44596D01*
X33571Y-44606D01*
X33560Y-44615D01*
X33515Y-44615D01*
G54D23*
X26293Y-32737D02*
X26198Y-32797D01*
X26293Y-32840D02*
X26093Y-32840D01*
X26093Y-32772D01*
X26103Y-32754D01*
X26112Y-32746D01*
X26131Y-32737D01*
X26160Y-32737D01*
X26179Y-32746D01*
X26188Y-32754D01*
X26198Y-32772D01*
X26198Y-32840D01*
X26112Y-32669D02*
X26103Y-32660D01*
X26093Y-32643D01*
X26093Y-32600D01*
X26103Y-32583D01*
X26112Y-32574D01*
X26131Y-32566D01*
X26150Y-32566D01*
X26179Y-32574D01*
X26293Y-32677D01*
X26293Y-32566D01*
X26293Y-32394D02*
X26293Y-32497D01*
X26293Y-32446D02*
X26093Y-32446D01*
X26122Y-32463D01*
X26141Y-32480D01*
X26150Y-32497D01*
G54D24*
X25584Y-32759D02*
X25584Y-32827D01*
X25584Y-32793D02*
X25384Y-32793D01*
X25413Y-32804D01*
X25432Y-32816D01*
X25442Y-32827D01*
X25384Y-32686D02*
X25384Y-32675D01*
X25394Y-32664D01*
X25403Y-32658D01*
X25422Y-32652D01*
X25461Y-32647D01*
X25508Y-32647D01*
X25546Y-32652D01*
X25565Y-32658D01*
X25575Y-32664D01*
X25584Y-32675D01*
X25584Y-32686D01*
X25575Y-32697D01*
X25565Y-32703D01*
X25546Y-32709D01*
X25508Y-32714D01*
X25461Y-32714D01*
X25422Y-32709D01*
X25403Y-32703D01*
X25394Y-32697D01*
X25384Y-32686D01*
X25384Y-32574D02*
X25384Y-32562D01*
X25394Y-32551D01*
X25403Y-32546D01*
X25422Y-32540D01*
X25461Y-32534D01*
X25508Y-32534D01*
X25546Y-32540D01*
X25565Y-32546D01*
X25575Y-32551D01*
X25584Y-32562D01*
X25584Y-32574D01*
X25575Y-32585D01*
X25565Y-32591D01*
X25546Y-32596D01*
X25508Y-32602D01*
X25461Y-32602D01*
X25422Y-32596D01*
X25403Y-32591D01*
X25394Y-32585D01*
X25384Y-32574D01*
X25584Y-32416D02*
X25489Y-32456D01*
X25584Y-32484D02*
X25384Y-32484D01*
X25384Y-32439D01*
X25394Y-32428D01*
X25403Y-32422D01*
X25422Y-32416D01*
X25451Y-32416D01*
X25470Y-32422D01*
X25480Y-32428D01*
X25489Y-32439D01*
X25489Y-32484D01*
G54D23*
X26293Y-37816D02*
X26198Y-37876D01*
X26293Y-37919D02*
X26093Y-37919D01*
X26093Y-37850D01*
X26103Y-37833D01*
X26112Y-37825D01*
X26131Y-37816D01*
X26160Y-37816D01*
X26179Y-37825D01*
X26188Y-37833D01*
X26198Y-37850D01*
X26198Y-37919D01*
X26112Y-37747D02*
X26103Y-37739D01*
X26093Y-37722D01*
X26093Y-37679D01*
X26103Y-37662D01*
X26112Y-37653D01*
X26131Y-37645D01*
X26150Y-37645D01*
X26179Y-37653D01*
X26293Y-37756D01*
X26293Y-37645D01*
X26093Y-37533D02*
X26093Y-37516D01*
X26103Y-37499D01*
X26112Y-37490D01*
X26131Y-37482D01*
X26169Y-37473D01*
X26217Y-37473D01*
X26255Y-37482D01*
X26274Y-37490D01*
X26284Y-37499D01*
X26293Y-37516D01*
X26293Y-37533D01*
X26284Y-37550D01*
X26274Y-37559D01*
X26255Y-37567D01*
X26217Y-37576D01*
X26169Y-37576D01*
X26131Y-37567D01*
X26112Y-37559D01*
X26103Y-37550D01*
X26093Y-37533D01*
G54D24*
X25604Y-37858D02*
X25604Y-37925D01*
X25604Y-37892D02*
X25404Y-37892D01*
X25433Y-37903D01*
X25452Y-37914D01*
X25461Y-37925D01*
X25404Y-37785D02*
X25404Y-37773D01*
X25414Y-37762D01*
X25423Y-37757D01*
X25442Y-37751D01*
X25480Y-37745D01*
X25528Y-37745D01*
X25566Y-37751D01*
X25585Y-37757D01*
X25595Y-37762D01*
X25604Y-37773D01*
X25604Y-37785D01*
X25595Y-37796D01*
X25585Y-37802D01*
X25566Y-37807D01*
X25528Y-37813D01*
X25480Y-37813D01*
X25442Y-37807D01*
X25423Y-37802D01*
X25414Y-37796D01*
X25404Y-37785D01*
X25404Y-37672D02*
X25404Y-37661D01*
X25414Y-37650D01*
X25423Y-37644D01*
X25442Y-37638D01*
X25480Y-37633D01*
X25528Y-37633D01*
X25566Y-37638D01*
X25585Y-37644D01*
X25595Y-37650D01*
X25604Y-37661D01*
X25604Y-37672D01*
X25595Y-37683D01*
X25585Y-37689D01*
X25566Y-37695D01*
X25528Y-37700D01*
X25480Y-37700D01*
X25442Y-37695D01*
X25423Y-37689D01*
X25414Y-37683D01*
X25404Y-37672D01*
X25604Y-37515D02*
X25509Y-37554D01*
X25604Y-37582D02*
X25404Y-37582D01*
X25404Y-37537D01*
X25414Y-37526D01*
X25423Y-37520D01*
X25442Y-37515D01*
X25471Y-37515D01*
X25490Y-37520D01*
X25499Y-37526D01*
X25509Y-37537D01*
X25509Y-37582D01*
G54D11*
X34307Y-34316D02*
X34307Y-33923D01*
X34457Y-33923D01*
X34495Y-33941D01*
X34514Y-33960D01*
X34532Y-33998D01*
X34532Y-34054D01*
X34514Y-34091D01*
X34495Y-34110D01*
X34457Y-34129D01*
X34307Y-34129D01*
X34682Y-33960D02*
X34701Y-33941D01*
X34739Y-33923D01*
X34832Y-33923D01*
X34870Y-33941D01*
X34889Y-33960D01*
X34907Y-33998D01*
X34907Y-34035D01*
X34889Y-34091D01*
X34664Y-34316D01*
X34907Y-34316D01*
X34147Y-37920D02*
X34170Y-37863D01*
X34170Y-37768D01*
X34147Y-37730D01*
X34123Y-37711D01*
X34075Y-37692D01*
X34028Y-37692D01*
X33980Y-37711D01*
X33956Y-37730D01*
X33932Y-37768D01*
X33908Y-37844D01*
X33885Y-37882D01*
X33861Y-37901D01*
X33813Y-37920D01*
X33766Y-37920D01*
X33718Y-37901D01*
X33694Y-37882D01*
X33670Y-37844D01*
X33670Y-37749D01*
X33694Y-37692D01*
X34170Y-37520D02*
X33670Y-37520D01*
X33670Y-37368D01*
X33694Y-37330D01*
X33718Y-37311D01*
X33766Y-37292D01*
X33837Y-37292D01*
X33885Y-37311D01*
X33908Y-37330D01*
X33932Y-37368D01*
X33932Y-37520D01*
X34170Y-37120D02*
X33670Y-37120D01*
X33908Y-36492D02*
X33908Y-36625D01*
X34170Y-36625D02*
X33670Y-36625D01*
X33670Y-36435D01*
X34170Y-36225D02*
X34147Y-36263D01*
X34099Y-36282D01*
X33670Y-36282D01*
X34170Y-35901D02*
X33908Y-35901D01*
X33861Y-35920D01*
X33837Y-35959D01*
X33837Y-36035D01*
X33861Y-36073D01*
X34147Y-35901D02*
X34170Y-35940D01*
X34170Y-36035D01*
X34147Y-36073D01*
X34099Y-36092D01*
X34051Y-36092D01*
X34004Y-36073D01*
X33980Y-36035D01*
X33980Y-35940D01*
X33956Y-35901D01*
X34147Y-35730D02*
X34170Y-35692D01*
X34170Y-35616D01*
X34147Y-35578D01*
X34099Y-35559D01*
X34075Y-35559D01*
X34028Y-35578D01*
X34004Y-35616D01*
X34004Y-35673D01*
X33980Y-35711D01*
X33932Y-35730D01*
X33908Y-35730D01*
X33861Y-35711D01*
X33837Y-35673D01*
X33837Y-35616D01*
X33861Y-35578D01*
X34170Y-35387D02*
X33670Y-35387D01*
X34170Y-35216D02*
X33908Y-35216D01*
X33861Y-35235D01*
X33837Y-35273D01*
X33837Y-35330D01*
X33861Y-35368D01*
X33885Y-35387D01*
G54D13*
X36281Y-28820D02*
X36281Y-29144D01*
X36300Y-29182D01*
X36319Y-29201D01*
X36358Y-29220D01*
X36434Y-29220D01*
X36472Y-29201D01*
X36491Y-29182D01*
X36510Y-29144D01*
X36510Y-28820D01*
X36872Y-28954D02*
X36872Y-29220D01*
X36777Y-28801D02*
X36681Y-29087D01*
X36929Y-29087D01*
X33812Y-29950D02*
X33812Y-29450D01*
X33945Y-29450D01*
X33978Y-29474D01*
X33995Y-29498D01*
X34012Y-29545D01*
X34012Y-29617D01*
X33995Y-29664D01*
X33978Y-29688D01*
X33945Y-29712D01*
X33812Y-29712D01*
X34362Y-29902D02*
X34345Y-29926D01*
X34295Y-29950D01*
X34262Y-29950D01*
X34212Y-29926D01*
X34178Y-29878D01*
X34162Y-29831D01*
X34145Y-29736D01*
X34145Y-29664D01*
X34162Y-29569D01*
X34178Y-29521D01*
X34212Y-29474D01*
X34262Y-29450D01*
X34295Y-29450D01*
X34345Y-29474D01*
X34362Y-29498D01*
X34562Y-29664D02*
X34528Y-29640D01*
X34512Y-29617D01*
X34495Y-29569D01*
X34495Y-29545D01*
X34512Y-29498D01*
X34528Y-29474D01*
X34562Y-29450D01*
X34628Y-29450D01*
X34662Y-29474D01*
X34678Y-29498D01*
X34695Y-29545D01*
X34695Y-29569D01*
X34678Y-29617D01*
X34662Y-29640D01*
X34628Y-29664D01*
X34562Y-29664D01*
X34528Y-29688D01*
X34512Y-29712D01*
X34495Y-29759D01*
X34495Y-29855D01*
X34512Y-29902D01*
X34528Y-29926D01*
X34562Y-29950D01*
X34628Y-29950D01*
X34662Y-29926D01*
X34678Y-29902D01*
X34695Y-29855D01*
X34695Y-29759D01*
X34678Y-29712D01*
X34662Y-29688D01*
X34628Y-29664D01*
X35028Y-29950D02*
X34828Y-29950D01*
X34928Y-29950D02*
X34928Y-29450D01*
X34895Y-29521D01*
X34862Y-29569D01*
X34828Y-29593D01*
X35145Y-29450D02*
X35378Y-29450D01*
X35228Y-29950D01*
M02*
