M48
;DRILL file {Pcbnew (2013-05-31 BZR 4019)-stable} date 26/06/2013 01:20:42
;FORMAT={-:-/ absolute / inch / decimal}
FMAT,2
INCH,TZ
T1C0.024
T2C0.025
T3C0.030
T4C0.032
T5C0.040
T6C0.047
T7C0.053
T8C0.059
T9C0.091
T10C0.120
%
G90
G05
M72
T1
X2.9213Y-2.126
X2.9213Y-2.815
X2.9213Y-3.5039
X2.9213Y-4.1929
X2.9232Y-2.5984
X2.9232Y-3.2874
X2.9232Y-3.9764
X2.9232Y-4.6654
X3.4055Y-4.0669
X3.878Y-4.065
X4.1929Y-4.0669
X4.6654Y-4.065
X4.9803Y-4.0669
X5.4528Y-4.065
X5.7677Y-4.0669
X6.2402Y-4.065
X6.7224Y-2.126
X6.7224Y-2.815
X6.7224Y-3.5039
X6.7224Y-4.1929
X6.7244Y-2.5984
X6.7244Y-3.2874
X6.7244Y-3.9764
X6.7244Y-4.6654
T2
X3.2477Y-3.6512
X3.3Y-2.5
X3.425Y-3.3
X3.4343Y-2.6996
X3.4713Y-2.449
X3.4819Y-2.6975
X3.5197Y-2.5658
X3.54Y-2.29
X3.54Y-2.43
X3.5473Y-3.1437
X3.6901Y-3.5916
X3.815Y-3.25
X4.0601Y-3.1418
X4.1452Y-3.612
X4.3398Y-3.5216
X4.39Y-2.58
X4.41Y-3.275
X4.5729Y-2.4306
X4.6832Y-3.5869
X4.7712Y-3.8233
X4.7767Y-2.3892
X4.849Y-3.0344
X4.8515Y-2.3893
X4.8527Y-3.6761
X4.8727Y-2.5361
X4.8835Y-3.83
X4.895Y-3.275
X4.9126Y-2.388
X5.0115Y-2.8406
X5.08Y-2.3883
X5.0966Y-3.6922
X5.19Y-2.3881
X5.2113Y-3.1487
X5.2252Y-2.4871
X5.233Y-2.9011
X5.2692Y-2.8476
X5.2783Y-2.4537
X5.3294Y-2.3891
X5.3426Y-3.5537
X5.3733Y-2.4331
X5.405Y-3.26
X5.4573Y-2.8176
X5.4602Y-3.4308
X5.4621Y-2.7707
X5.543Y-2.4565
X5.6136Y-2.9224
X5.7196Y-3.1404
X5.7485Y-2.3424
X5.8299Y-3.7041
X5.8515Y-3.2768
X5.92Y-3.255
X6.0698Y-2.728
X6.1073Y-3.5591
X6.1252Y-3.2816
X6.2102Y-3.4012
X6.9291Y-2.5197
T3
X4.52Y-2.485
X4.52Y-2.685
T4
X3.33Y-2.28
X3.43Y-2.28
X4.1232Y-2.1142
X4.1232Y-2.1929
X4.2232Y-2.1142
X4.2232Y-2.1929
T5
X4.68Y-2.
X4.68Y-2.1
X4.78Y-2.
X4.78Y-2.1
X4.88Y-2.
X4.88Y-2.1
X4.98Y-2.
X4.98Y-2.1
X5.08Y-2.
X5.08Y-2.1
X5.18Y-2.
X5.18Y-2.1
X5.28Y-2.
X5.28Y-2.1
X5.37Y-2.63
X5.38Y-2.
X5.38Y-2.1
X5.47Y-2.63
X5.48Y-2.
X5.48Y-2.1
X5.57Y-2.63
X5.58Y-2.
X5.58Y-2.1
X5.67Y-2.63
X5.68Y-2.
X5.68Y-2.1
X5.77Y-2.63
X5.78Y-2.
X5.78Y-2.1
T6
X2.4409Y-2.126
X2.4409Y-2.5984
X2.4409Y-2.815
X2.4409Y-3.2874
X2.4409Y-3.5039
X2.4409Y-3.9764
X2.4409Y-4.1929
X2.4409Y-4.6654
X3.Y-2.3622
X3.Y-3.0512
X3.Y-3.7402
X3.Y-4.4291
X3.4055Y-4.5472
X3.6417Y-3.9882
X3.878Y-4.5472
X4.1929Y-4.5472
X4.4291Y-3.9882
X4.6654Y-4.5472
X4.9803Y-4.5472
X5.2165Y-3.9882
X5.4528Y-4.5472
X5.7677Y-4.5472
X6.0039Y-3.9882
X6.2402Y-4.5472
X6.6457Y-2.3622
X6.6457Y-3.0512
X6.6457Y-3.7402
X6.6457Y-4.4291
X7.2047Y-2.126
X7.2047Y-2.5984
X7.2047Y-2.815
X7.2047Y-3.2874
X7.2047Y-3.5039
X7.2047Y-3.9764
X7.2047Y-4.1929
X7.2047Y-4.6654
T7
X6.4489Y-5.3937
X6.5489Y-5.2937
X6.5489Y-5.4937
X6.6489Y-5.3937
X7.052Y-5.3937
X7.152Y-5.2937
X7.152Y-5.4937
X7.252Y-5.3937
T8
X2.0079Y-2.3228
X2.0079Y-2.5984
X2.0079Y-2.9921
X2.0079Y-3.3071
X2.0079Y-3.6614
X2.0079Y-3.9764
X2.0079Y-4.3307
X2.0079Y-4.685
X3.3858Y-5.
X3.7795Y-5.
X4.1732Y-5.
X4.6063Y-5.
X5.Y-5.
X5.3543Y-5.
X5.748Y-5.
X6.063Y-5.
X7.6378Y-2.2835
X7.6378Y-2.5984
X7.6378Y-2.9528
X7.6378Y-3.3071
X7.6378Y-3.6614
X7.6378Y-3.9764
X7.6378Y-4.3307
X7.6378Y-4.685
X7.6378Y-5.1181
T9
X4.4094Y-2.0079
T10
X1.811Y-3.4646
X1.8504Y-5.4724
X3.6417Y-2.0669
X4.8031Y-5.4724
X6.2008Y-2.0669
X7.874Y-3.4646
X7.874Y-5.4724
T0
M30
